<?xml version="1.0" encoding="UTF-8"?>
<svg version="1.1" xmlns="http://www.w3.org/2000/svg" width="512" height="512">
<path d="M0 0 C1.24375397 0.00648056 1.24375397 0.00648056 2.51263428 0.01309204 C14.93018122 0.08880333 26.9756282 0.61584111 39.125 3.375 C40.34727295 3.64038574 40.34727295 3.64038574 41.59423828 3.91113281 C66.43873734 9.38590539 91.14975199 18.24230955 111.125 34.375 C111.68654785 34.82520508 112.2480957 35.27541016 112.82666016 35.73925781 C125.7888578 46.21620827 137.65382887 57.86229091 146.484375 72.10546875 C153.88802696 83.85640528 163.38238725 88.7733734 176.6875 92.3125 C178.49146394 92.70785349 180.30498398 93.06173977 182.125 93.375 C183.13820313 93.55546875 184.15140625 93.7359375 185.1953125 93.921875 C214.37605367 97.28665231 243.11294626 91.35277523 270.69921875 82.1875 C275.25113645 81.10791177 279.58553599 80.9915705 284.25 81 C285.64061646 81.00241699 285.64061646 81.00241699 287.05932617 81.00488281 C294.71878283 81.14093237 301.02688147 82.3703392 308.125 85.375 C309.21941406 85.79072266 309.21941406 85.79072266 310.3359375 86.21484375 C321.64448595 91.06455722 330.98144229 102.07456256 335.875 113.125 C339.9903441 124.03719993 341.66519317 134.48428439 341.5625 146.125 C341.55420166 147.34928711 341.54590332 148.57357422 341.53735352 149.83496094 C341.0487655 176.15959617 329.799082 199.03893705 311.75 218.0625 C293.43965847 235.63219851 270.10297591 240.92846044 245.52734375 240.671875 C219.08731756 239.85615878 219.08731756 239.85615878 210.125 235.375 C210.13499275 236.49134071 210.13499275 236.49134071 210.14518738 237.63023376 C210.2055353 244.67643317 210.25109396 251.72254163 210.28043652 258.76892757 C210.29602948 262.39074248 210.31714953 266.01234214 210.35131836 269.6340332 C210.38414149 273.1353775 210.4019008 276.636516 210.40963173 280.1380024 C210.41779505 282.11037617 210.44117711 284.08266826 210.46488953 286.05491638 C210.46635911 293.97112701 210.16275866 301.22406709 205.35546875 307.79296875 C191.19206845 320.06069406 171.33567177 323.45590041 153.375 326.5625 C152.49730957 326.71734863 151.61961914 326.87219727 150.71533203 327.03173828 C131.51668015 330.15062834 112.18847594 330.724604 92.77539062 330.69067383 C89.02444143 330.68752055 85.27428979 330.71106408 81.5234375 330.73632812 C-0.03972366 330.94809401 -0.03972366 330.94809401 -25.2265625 309.359375 C-30.79188261 303.35890641 -32.18336204 297.55132559 -32.10205078 289.44189453 C-32.10234283 288.6704863 -32.10263489 287.89907806 -32.10293579 287.10429382 C-32.10155011 284.5720162 -32.08602512 282.04003828 -32.0703125 279.5078125 C-32.06657966 277.74519003 -32.06373396 275.98256548 -32.06173706 274.21994019 C-32.05412198 269.59377251 -32.03449182 264.96773157 -32.0123291 260.34161377 C-31.99182481 255.61578078 -31.98272556 250.8899272 -31.97265625 246.1640625 C-31.95124386 236.90098616 -31.91713366 227.63800364 -31.875 218.375 C-32.69144485 218.31337173 -33.50788971 218.25174347 -34.34907532 218.18824768 C-35.96159431 218.06134804 -35.96159431 218.06134804 -37.60668945 217.93188477 C-38.67063431 217.8496315 -39.73457916 217.76737823 -40.83076477 217.68263245 C-44.73143445 217.28845379 -48.3264959 216.4695164 -52.0625 215.3125 C-52.77172607 215.09625977 -53.48095215 214.88001953 -54.21166992 214.65722656 C-67.53871219 210.40313492 -79.11812535 204.33361293 -89.875 195.375 C-90.59945312 194.81296875 -91.32390625 194.2509375 -92.0703125 193.671875 C-98.11131642 188.79169144 -102.47043598 182.72251189 -106.875 176.375 C-107.40996094 175.61832031 -107.94492188 174.86164063 -108.49609375 174.08203125 C-116.02517899 162.5537571 -121.42462993 147.88241189 -123.875 134.375 C-124.05546875 133.39789063 -124.2359375 132.42078125 -124.421875 131.4140625 C-128.47689158 101.64371731 -122.34458253 72.20475896 -104.21777344 48.07861328 C-100.39661157 43.23060101 -96.17818113 38.79248438 -91.875 34.375 C-91.318125 33.74464844 -90.76125 33.11429688 -90.1875 32.46484375 C-67.84962984 7.85828365 -31.79639461 -0.31644788 0 0 Z M-83.875 50.375 C-103.52587491 72.29192174 -109.42668616 97.40870968 -107.875 126.375 C-105.70360098 147.30190753 -94.14034407 170.02323003 -77.875 183.375 C-65.13527863 192.30577159 -45.10171205 203.84073501 -28.875 201.375 C-26.68420322 199.1712309 -25.3587154 196.61856364 -23.9375 193.875 C-23.53982422 193.15957031 -23.14214844 192.44414062 -22.73242188 191.70703125 C-21.75613425 189.94265603 -20.81232433 188.16037967 -19.875 186.375 C-20.720625 185.385 -21.56625 184.395 -22.4375 183.375 C-22.98921875 182.7253125 -23.5409375 182.075625 -24.109375 181.40625 C-25.21721413 180.13174481 -26.34962611 178.87777265 -27.515625 177.65625 C-44.43088278 159.63438657 -53.34010473 132.29627193 -53.30859375 107.84375 C-52.875 105.375 -52.875 105.375 -51.59765625 103.5546875 C-49.52742835 102.13698041 -48.36797357 101.97167075 -45.875 102 C-44.8540625 101.98839844 -44.8540625 101.98839844 -43.8125 101.9765625 C-41.25290719 102.50293038 -40.51156892 103.34916481 -38.875 105.375 C-38.1706543 107.74072266 -38.1706543 107.74072266 -37.69921875 110.5390625 C-37.51431885 111.5707959 -37.32941895 112.6025293 -37.13891602 113.66552734 C-36.94869873 114.76590332 -36.75848145 115.8662793 -36.5625 117 C-32.90926586 136.55019358 -27.07360676 154.75660834 -12.875 169.375 C-10.23345224 171.15656843 -10.23345224 171.15656843 -7.875 172.375 C-7.42511719 171.93929687 -6.97523438 171.50359375 -6.51171875 171.0546875 C-1.12771819 166.06990141 4.58344651 162.65780166 11.125 159.375 C10.38328932 155.69325542 8.87573481 152.52849858 7.3125 149.125 C2.45757832 138.0878908 -1.61189239 125.55344313 0.125 113.375 C2.125 110.375 2.125 110.375 5.4375 109.5 C9.71478921 109.35500715 10.92985283 109.57598853 14.125 112.375 C15.22819212 115.44853912 15.65083625 118.5902481 16.125 121.8125 C17.53308606 129.90863308 19.41068249 136.99125099 23.125 144.375 C23.43824219 145.28507812 23.75148437 146.19515625 24.07421875 147.1328125 C25.42372127 150.22956566 26.23589305 151.57629793 29.125 153.375 C34.01617075 153.98456032 38.94474373 153.27381179 43.82421875 152.80078125 C72.04671889 150.1398172 99.68570011 164.19415121 120.75 181.625 C142.58871915 199.64990506 171.52131661 219.69237764 201.125 217.375 C212.06532393 215.16674546 222.11015913 210.2076854 230.125 202.375 C231.12447009 200.80440414 232.10247058 199.22000951 233.0625 197.625 C235.2587622 194.16055491 235.67683188 193.52181369 239.75 192.1875 C242.91148364 192.36313798 244.59454303 192.52581991 247.125 194.375 C248.77349761 197.67199522 248.74608434 200.82507677 248.125 204.375 C245.17403775 210.85134844 240.27672788 215.35772136 234.8828125 219.84375 C234.30273438 220.3490625 233.72265625 220.854375 233.125 221.375 C233.125 221.705 233.125 222.035 233.125 222.375 C252.99994591 225.65225172 274.07449252 223.49722819 291.1875 212.25 C307.89143832 199.84289469 320.02769427 181.36096745 323.81591797 160.72167969 C326.05352877 143.73280523 325.25723883 125.74556095 315.125 111.375 C308.37894081 103.81585647 300.16724496 99.16950969 290.078125 98.03125 C280.08808562 97.60972935 271.78790174 99.62513145 262.27246094 102.5925293 C252.6544599 105.58925608 243.04849446 107.68734584 233.125 109.375 C231.89007813 109.60058594 230.65515625 109.82617188 229.3828125 110.05859375 C210.0339521 113.07535155 189.19034939 112.93461888 170.125 108.375 C168.45925595 108.03708632 166.7927324 107.70295967 165.125 107.375 C165.38192627 108.1498877 165.63885254 108.92477539 165.90356445 109.72314453 C166.87666903 112.66983574 167.84309614 115.6186197 168.80541992 118.56884766 C169.4193852 120.44465506 170.04063824 122.31807222 170.66210938 124.19140625 C178.69279264 148.87106701 178.69279264 148.87106701 177.125 160.375 C175.125 163.375 175.125 163.375 171.8125 164.25 C167.63039106 164.3917664 166.37380928 163.90125642 163.125 161.375 C162.10180664 158.93334961 162.10180664 158.93334961 161.53515625 156.02734375 C161.31174561 154.95629395 161.08833496 153.88524414 160.8581543 152.78173828 C160.52618042 151.06446533 160.52618042 151.06446533 160.1875 149.3125 C159.68075478 146.93224905 159.16770444 144.55333192 158.6484375 142.17578125 C158.26703613 140.4270874 158.26703613 140.4270874 157.87792969 138.64306641 C148.74318541 98.99401101 124.17533656 62.44207966 89.89794922 40.46142578 C75.29468642 31.51285522 58.96019523 25.58182101 42.375 21.5625 C41.57296143 21.36760986 40.77092285 21.17271973 39.94458008 20.97192383 C26.66338 17.94297187 13.50592441 16.96007982 -0.0625 17 C-0.82780029 17.0012085 -1.59310059 17.00241699 -2.3815918 17.00366211 C-33.70361074 17.13747505 -62.10143387 27.11634516 -83.875 50.375 Z M-0.6875 188.25 C-4.71726323 192.94899177 -8.05952169 197.86300726 -10.875 203.375 C-11.20390732 203.94209686 -11.53281464 204.50919373 -11.87168884 205.09347534 C-15.60899304 212.23070791 -15.39042759 219.14692078 -15.265625 227.03515625 C-15.25814951 228.43476039 -15.25246277 229.83437511 -15.24847412 231.23399353 C-15.23332027 234.88876068 -15.19413015 238.54287543 -15.1496582 242.1973877 C-15.10848156 245.93814269 -15.09041571 249.67900478 -15.0703125 253.41992188 C-15.02762319 260.73857624 -14.9595 268.05669614 -14.875 275.375 C-11.71850052 274.75826631 -8.67209808 274.0635682 -5.6015625 273.10546875 C13.96534131 267.15529917 33.74643112 263.89171766 54.125 262.375 C54.89247559 262.31715332 55.65995117 262.25930664 56.45068359 262.19970703 C101.9412504 258.96067872 149.9488054 260.6745656 193.125 276.375 C193.125 262.515 193.125 248.655 193.125 234.375 C187.515 233.385 181.905 232.395 176.125 231.375 C172.48568189 230.26410317 169.1196256 229.16788245 165.625 227.75 C164.75045166 227.40517578 163.87590332 227.06035156 162.97485352 226.70507812 C143.7664137 218.93592066 126.78701595 207.69358433 110.75 194.640625 C93.13748587 180.35827041 72.2378835 169.41734573 49.125 168.375 C48.42632812 168.33503906 47.72765625 168.29507813 47.0078125 168.25390625 C28.43256356 167.6920215 11.97786513 174.78115595 -0.6875 188.25 Z M-12.875 294.375 C-12.875 295.365 -12.875 296.355 -12.875 297.375 C-0.87710679 304.45918318 12.87355622 307.13191333 26.4375 309.5625 C27.28787842 309.71726807 28.13825684 309.87203613 29.0144043 310.03149414 C47.37327337 313.12863754 65.73851146 313.72294398 84.32373047 313.69067383 C88.0924209 313.6875272 91.86031276 313.71102731 95.62890625 313.73632812 C126.70555305 313.81787886 164.81323164 313.20346333 192.125 296.375 C174.98096376 277.64721907 131.13794226 278.69746758 107.95751953 277.53173828 C69.90547117 275.97552634 21.2576964 274.54942185 -12.875 294.375 Z " fill="#000000" transform="translate(147.875,90.625)"/>
</svg>
