<?xml version="1.0" encoding="UTF-8"?>
<svg version="1.1" xmlns="http://www.w3.org/2000/svg" width="612" height="612">
<path d="M0 0 C201.96 0 403.92 0 612 0 C612 201.96 612 403.92 612 612 C410.04 612 208.08 612 0 612 C0 410.04 0 208.08 0 0 Z " fill="#FEFEFE" transform="translate(0,0)"/>
<path d="M0 0 C44.55 0 89.1 0 135 0 C135 0.99 135 1.98 135 3 C139.62 2.67 144.24 2.34 149 2 C149 5.3 149 8.6 149 12 C139.5 14 139.5 14 135 14 C135.02356567 15.56512329 135.02356567 15.56512329 135.04760742 17.16186523 C135.10231722 21.0699884 135.13649782 24.97807839 135.16479492 28.88647461 C135.17978874 30.57110302 135.20019073 32.25569303 135.22631836 33.94018555 C135.5483825 55.25325387 135.5483825 55.25325387 128.52734375 64.4296875 C123.97886242 69.10613122 118.51813474 71.91135275 112.01057434 72.14044189 C110.30110495 72.15251174 108.59159071 72.15897024 106.88208008 72.16113281 C105.948396 72.16609772 105.01471191 72.17106262 104.05273438 72.17617798 C100.95832587 72.19080335 97.86396867 72.19760314 94.76953125 72.203125 C92.61822 72.20887726 90.46690876 72.21463499 88.31559753 72.22039795 C83.80048382 72.23090977 79.28538791 72.23675089 74.77026367 72.24023438 C68.99450658 72.24571172 63.21898611 72.26972286 57.44330311 72.29820633 C52.99681419 72.31686547 48.5503818 72.32204012 44.10385704 72.32357025 C41.97527463 72.32659118 39.84669309 72.33460077 37.71814919 72.34775543 C34.73354956 72.36488005 31.7495219 72.36291963 28.76489258 72.35644531 C27.89134628 72.3656601 27.01779999 72.37487488 26.11778259 72.3843689 C18.7214374 72.33430857 12.0804155 70.76229859 6.3828125 65.65625 C0.42445694 58.51968854 -1.15825171 50.73702811 -1.09765625 41.734375 C-1.0962413 40.94097717 -1.09482635 40.14757935 -1.09336853 39.33013916 C-1.08778415 36.80338728 -1.07523454 34.27672496 -1.0625 31.75 C-1.05748298 30.03385545 -1.05292043 28.31770951 -1.04882812 26.6015625 C-1.03781984 22.40100731 -1.02056596 18.20051883 -1 14 C-1.92683594 13.93941406 -2.85367188 13.87882812 -3.80859375 13.81640625 C-5.00613281 13.73261719 -6.20367187 13.64882813 -7.4375 13.5625 C-8.63246094 13.48128906 -9.82742187 13.40007812 -11.05859375 13.31640625 C-14 13 -14 13 -15 12 C-15.14257189 8.66381769 -15.04228157 5.34024394 -15 2 C-10.38 2 -5.76 2 -1 2 C-0.67 1.34 -0.34 0.68 0 0 Z " fill="#1A1A1A" transform="translate(239,310)"/>
<path d="M0 0 C6.38238691 1.13971195 10.24679138 3.78106796 14.5 8.625 C14.94472656 9.63240234 14.94472656 9.63240234 15.3984375 10.66015625 C16.75796912 13.0851364 17.84512134 13.55576827 20.375 14.625 C23.75205776 16.17562725 26.04184494 17.77354013 28.5 20.625 C28.83 20.955 29.16 21.285 29.5 21.625 C30.49 21.295 31.48 20.965 32.5 20.625 C33.16 20.625 33.82 20.625 34.5 20.625 C34.438125 19.738125 34.37625 18.85125 34.3125 17.9375 C34.59906178 12.87490847 36.35355864 10.65959342 40.0625 7.3125 C44.64696097 5.06194643 48.48680673 5.26833012 53.5 5.625 C50.5 7.625 50.5 7.625 47.5625 9.1875 C43.97751783 12.04085315 42.94874449 14.40506939 41.359375 18.6015625 C40.5 20.625 40.5 20.625 38.5 22.625 C41.4254644 22.8486068 41.4254644 22.8486068 43.5 21.625 C45.8329866 21.58477609 48.16706666 21.58179753 50.5 21.625 C51.65837626 25.67931692 51.33691257 27.84312119 49.5 31.625 C52.8 31.295 56.1 30.965 59.5 30.625 C59.78875 29.820625 60.0775 29.01625 60.375 28.1875 C61.5 25.625 61.5 25.625 63.5 24.625 C68.50404498 24.24733623 71.49885156 24.51299566 75.5 27.625 C77.56295164 29.87459965 78.45721597 31.05276365 78.6875 34.1328125 C78.5946875 35.42832031 78.5946875 35.42832031 78.5 36.75 C78.24920184 39.31848408 78.24920184 39.31848408 78.5 41.625 C81.94450737 43.92133824 84.43812283 44.16516485 88.5 44.625 C88.995 46.605 88.995 46.605 89.5 48.625 C90.82 48.625 92.14 48.625 93.5 48.625 C93.5 50.935 93.5 53.245 93.5 55.625 C92.51 55.955 91.52 56.285 90.5 56.625 C89.695625 57.470625 88.89125 58.31625 88.0625 59.1875 C85.5 61.625 85.5 61.625 81.5 61.625 C81.5 63.275 81.5 64.925 81.5 66.625 C82.16 66.625 82.82 66.625 83.5 66.625 C83.5 67.945 83.5 69.265 83.5 70.625 C81.85 70.955 80.2 71.285 78.5 71.625 C78.479375 72.45 78.45875 73.275 78.4375 74.125 C75.80621558 83.94846182 64.72604722 90.91929352 56.38671875 95.8828125 C54.5 96.625 54.5 96.625 50.5 96.625 C50.17 95.965 49.84 95.305 49.5 94.625 C49.47421875 95.24246094 49.4484375 95.85992187 49.421875 96.49609375 C48.85175408 105.00903565 47.07253349 111.61955358 40.625 117.5 C33.00783063 123.625 33.00783063 123.625 28.5 123.625 C28.83 120.985 29.16 118.345 29.5 115.625 C28.83613281 115.68300781 28.17226563 115.74101562 27.48828125 115.80078125 C20.22431633 116.17193274 20.22431633 116.17193274 16.4375 113.3125 C12.9133445 108.42415527 12.8291308 103.46715261 13.5 97.625 C15.1875 94.5625 15.1875 94.5625 17.5 92.625 C19.16666667 92.29166667 20.83333333 91.95833333 22.5 91.625 C24.81607874 89.16866927 24.81607874 89.16866927 26.5 86.625 C26.17 86.00625 25.84 85.3875 25.5 84.75 C24.09612316 80.36288488 24.34032477 76.19348573 24.5 71.625 C24.09910156 72.02332031 23.69820313 72.42164063 23.28515625 72.83203125 C18.72752739 77.07961733 14.50739397 79.07206823 8.5 80.625 C9.2734375 81.9553125 9.2734375 81.9553125 10.0625 83.3125 C11.5 86.625 11.5 86.625 11.4375 89.25 C10.24836336 92.26247948 9.12316667 93.71079729 6.5 95.625 C2.39222251 96.12799316 0.99124017 95.95249345 -2.5 93.625 C-2.6875 90 -2.6875 90 -2.5 86.625 C-5.965 86.13 -5.965 86.13 -9.5 85.625 C-9.5 84.965 -9.5 84.305 -9.5 83.625 C-10.551875 83.398125 -11.60375 83.17125 -12.6875 82.9375 C-16.75498211 81.73536966 -18.92288316 80.08569975 -21.5 76.625 C-23.73579403 70.79636283 -23.60175094 65.68463019 -22.5 59.625 C-23.4075 59.8725 -24.315 60.12 -25.25 60.375 C-28.5 60.625 -28.5 60.625 -30.8125 59.25 C-33.22167741 55.50239069 -33.82341283 52.05812217 -33.5 47.625 C-31.9375 44.5625 -31.9375 44.5625 -29.5 42.625 C-26.4375 42.0625 -26.4375 42.0625 -23.5 42.625 C-23.05140625 43.30175781 -22.6028125 43.97851562 -22.140625 44.67578125 C-21.32851562 45.64064453 -21.32851562 45.64064453 -20.5 46.625 C-17.97346579 46.89225096 -17.97346579 46.89225096 -15.3125 46.375 C-14.41144531 46.24609375 -13.51039063 46.1171875 -12.58203125 45.984375 C-11.89496094 45.86578125 -11.20789063 45.7471875 -10.5 45.625 C-10.17 43.975 -9.84 42.325 -9.5 40.625 C-10.593125 40.17125 -11.68625 39.7175 -12.8125 39.25 C-15.32137765 38.20857909 -17.19717067 37.16021956 -19.5 35.625 C-19.995 34.14 -19.995 34.14 -20.5 32.625 C-21.015625 32.934375 -21.53125 33.24375 -22.0625 33.5625 C-24.5 34.625 -24.5 34.625 -28.125 35 C-31.5848971 35.23197604 -31.5848971 35.23197604 -32.9375 37.6875 C-33.123125 38.326875 -33.30875 38.96625 -33.5 39.625 C-34.16 39.625 -34.82 39.625 -35.5 39.625 C-35.5 38.965 -35.5 38.305 -35.5 37.625 C-34.51 37.13 -34.51 37.13 -33.5 36.625 C-33.54640625 35.8515625 -33.5928125 35.078125 -33.640625 34.28125 C-33.87778068 27.43761456 -33.6778869 22.22597962 -29.5 16.625 C-25.0004194 11.91115365 -19.73454499 9.46655702 -13.5 7.625 C-12.18 7.625 -10.86 7.625 -9.5 7.625 C-7.96812936 6.0953094 -7.96812936 6.0953094 -6.6875 4.125 C-4.31395813 1.17152473 -3.92162945 0.70029097 0 0 Z M-22.5 57.625 C-22.17 58.285 -21.84 58.945 -21.5 59.625 C-21.17 58.965 -20.84 58.305 -20.5 57.625 C-21.16 57.625 -21.82 57.625 -22.5 57.625 Z " fill="#F3F3F3" transform="translate(276.5,169.375)"/>
<path d="M0 0 C6.38238691 1.13971195 10.24679138 3.78106796 14.5 8.625 C14.94472656 9.63240234 14.94472656 9.63240234 15.3984375 10.66015625 C16.75796912 13.0851364 17.84512134 13.55576827 20.375 14.625 C23.75205776 16.17562725 26.04184494 17.77354013 28.5 20.625 C28.83 20.955 29.16 21.285 29.5 21.625 C30.49 21.295 31.48 20.965 32.5 20.625 C33.16 20.625 33.82 20.625 34.5 20.625 C34.438125 19.738125 34.37625 18.85125 34.3125 17.9375 C34.59906178 12.87490847 36.35355864 10.65959342 40.0625 7.3125 C44.64696097 5.06194643 48.48680673 5.26833012 53.5 5.625 C50.5 7.625 50.5 7.625 47.5625 9.1875 C43.97751783 12.04085315 42.94874449 14.40506939 41.359375 18.6015625 C40.5 20.625 40.5 20.625 38.5 22.625 C41.4254644 22.8486068 41.4254644 22.8486068 43.5 21.625 C45.8329866 21.58477609 48.16706666 21.58179753 50.5 21.625 C51.59324611 25.00412433 51.5935707 26.39107326 50.25 29.75 C48.80005912 32.13204573 47.6804196 33.91858466 45.5 35.625 C44.84 35.625 44.18 35.625 43.5 35.625 C43.5 36.285 43.5 36.945 43.5 37.625 C39.3794254 39.62285435 36.04805635 39.80335515 31.5 39.625 C31.55800781 40.49382812 31.61601562 41.36265625 31.67578125 42.2578125 C32.09032395 52.84641759 32.09032395 52.84641759 29.1875 56.375 C25.0206842 59.86349694 21.80729283 59.9043312 16.5 59.625 C14.1875 58.9375 14.1875 58.9375 12.5 57.625 C10.5947749 53.75892279 10.17044028 50.3396801 9.9375 46.0625 C9.84980526 40.70540964 9.84980526 40.70540964 8.5 35.625 C6.17918873 34.52019159 6.17918873 34.52019159 3.5 33.625 C-1.51599975 30.26690236 -6.02606565 26.60934059 -9.5 21.625 C-9.5 22.615 -9.5 23.605 -9.5 24.625 C-10.16 24.955 -10.82 25.285 -11.5 25.625 C-11.5 26.615 -11.5 27.605 -11.5 28.625 C-10.18 29.285 -8.86 29.945 -7.5 30.625 C-7.25 32.9375 -7.25 32.9375 -7.5 35.625 C-9.1875 37.5 -9.1875 37.5 -11.5 38.625 C-15.00610679 38.3684556 -16.5278901 37.6064066 -19.5 35.625 C-19.995 34.14 -19.995 34.14 -20.5 32.625 C-21.015625 32.934375 -21.53125 33.24375 -22.0625 33.5625 C-24.5 34.625 -24.5 34.625 -28.125 35 C-31.5848971 35.23197604 -31.5848971 35.23197604 -32.9375 37.6875 C-33.123125 38.326875 -33.30875 38.96625 -33.5 39.625 C-34.16 39.625 -34.82 39.625 -35.5 39.625 C-35.5 38.965 -35.5 38.305 -35.5 37.625 C-34.51 37.13 -34.51 37.13 -33.5 36.625 C-33.54640625 35.8515625 -33.5928125 35.078125 -33.640625 34.28125 C-33.87778068 27.43761456 -33.6778869 22.22597962 -29.5 16.625 C-25.0004194 11.91115365 -19.73454499 9.46655702 -13.5 7.625 C-12.18 7.625 -10.86 7.625 -9.5 7.625 C-7.96812936 6.0953094 -7.96812936 6.0953094 -6.6875 4.125 C-4.31395813 1.17152473 -3.92162945 0.70029097 0 0 Z " fill="#F1F1F1" transform="translate(276.5,169.375)"/>
<path d="M0 0 C3.70413243 1.68369656 5.87679166 3.54673585 8 7 C8.1875 9.5078125 8.1875 9.5078125 8 12.125 C7.74920184 14.69348408 7.74920184 14.69348408 8 17 C11.44450737 19.29633824 13.93812283 19.54016485 18 20 C18.495 21.98 18.495 21.98 19 24 C20.32 24 21.64 24 23 24 C23 26.31 23 28.62 23 31 C22.01 31.33 21.02 31.66 20 32 C18.7934375 33.2684375 18.7934375 33.2684375 17.5625 34.5625 C15 37 15 37 11 37 C11 38.65 11 40.3 11 42 C11.66 42 12.32 42 13 42 C13 43.32 13 44.64 13 46 C10.525 46.495 10.525 46.495 8 47 C7.979375 47.825 7.95875 48.65 7.9375 49.5 C5.31737631 59.2817951 -5.79626677 66.41364075 -14.17578125 71.2578125 C-16 72 -16 72 -19 72 C-18.84406672 64.82706911 -15.34314027 60.50019308 -11 55 C-10.35289062 54.175 -9.70578125 53.35 -9.0390625 52.5 C-5.83212446 48.6466041 -3.22315546 45.83913337 1.4375 43.875 C3.41660428 43.10707374 3.41660428 43.10707374 5 42 C6.35034061 37.41190618 6.35034061 37.41190618 5 33 C4.34 33.99 3.68 34.98 3 36 C1.16015625 36.6171875 1.16015625 36.6171875 -0.9375 36.875 C-1.97197266 37.02582031 -1.97197266 37.02582031 -3.02734375 37.1796875 C-5 37 -5 37 -6.7421875 35.92578125 C-8.61419725 33.05962967 -8.2878771 30.69186228 -8.1875 27.3125 C-8.16042969 26.13300781 -8.13335937 24.95351562 -8.10546875 23.73828125 C-8.07066406 22.83464844 -8.03585937 21.93101562 -8 21 C-9.65 21 -11.3 21 -13 21 C-13.33 21.99 -13.66 22.98 -14 24 C-15.98 23.34 -17.96 22.68 -20 22 C-20.22134176 19.87631556 -20.42670007 17.75095976 -20.625 15.625 C-20.74101562 14.44164062 -20.85703125 13.25828125 -20.9765625 12.0390625 C-20.98429687 11.03617188 -20.99203125 10.03328125 -21 9 C-17.99382731 5.99382731 -15.17618402 6.40414684 -11 6 C-10.71125 5.195625 -10.4225 4.39125 -10.125 3.5625 C-8.06787013 -1.1231847 -4.68481579 -0.31761463 0 0 Z " fill="#EEEEEE" transform="translate(347,194)"/>
<path d="M0 0 C-3 2 -3 2 -5.9375 3.5625 C-9.52248217 6.41585315 -10.55125551 8.78006939 -12.140625 12.9765625 C-13 15 -13 15 -15 17 C-12.0745356 17.2236068 -12.0745356 17.2236068 -10 16 C-7.6670134 15.95977609 -5.33293334 15.95679753 -3 16 C-1.90675389 19.37912433 -1.9064293 20.76607326 -3.25 24.125 C-4.69994088 26.50704573 -5.8195804 28.29358466 -8 30 C-8.66 30 -9.32 30 -10 30 C-10 30.66 -10 31.32 -10 32 C-14.1205746 33.99785435 -17.45194365 34.17835515 -22 34 C-21.94199219 34.86882812 -21.88398438 35.73765625 -21.82421875 36.6328125 C-21.40967605 47.22141759 -21.40967605 47.22141759 -24.3125 50.75 C-28.4793158 54.23849694 -31.69270717 54.2793312 -37 54 C-39.3125 53.3125 -39.3125 53.3125 -41 52 C-42.86536178 48.2223069 -43.29674332 45.06627702 -43.3125 40.875 C-43.33763672 39.32425781 -43.33763672 39.32425781 -43.36328125 37.7421875 C-43 35 -43 35 -41.6796875 33.14453125 C-39.1666687 31.43217193 -36.95484684 31.80301021 -34 32 C-33.67 30.68 -33.34 29.36 -33 28 C-31.68 27.67 -30.36 27.34 -29 27 C-29 27.66 -29 28.32 -29 29 C-29.66 29 -30.32 29 -31 29 C-31 29.66 -31 30.32 -31 31 C-27.72226496 30.24849977 -27.72226496 30.24849977 -26 27 C-27.38618642 24.22762716 -28.86942662 24.15621118 -31.75 23.125 C-36.55568179 21.27137988 -40.34868419 19.43765667 -43.3125 15.0625 C-44.13671231 12.58986306 -44.20998746 10.58984536 -44 8 C-43 7 -43 7 -41.14453125 6.98046875 C-34.25828926 7.59181017 -29.710612 9.7935341 -25 15 C-24.67 15.33 -24.34 15.66 -24 16 C-23.01 15.67 -22.02 15.34 -21 15 C-20.34 15 -19.68 15 -19 15 C-19.061875 14.113125 -19.12375 13.22625 -19.1875 12.3125 C-18.90093822 7.24990847 -17.14644136 5.03459342 -13.4375 1.6875 C-8.85303903 -0.56305357 -5.01319327 -0.35666988 0 0 Z M-25 24 C-24 26 -24 26 -24 26 Z " fill="#F1F1F1" transform="translate(330,175)"/>
<path d="M0 0 C0 18.81 0 37.62 0 57 C-7.95285171 55.86387833 -7.95285171 55.86387833 -11.25 52.875 C-11.89453125 52.31554687 -12.5390625 51.75609375 -13.203125 51.1796875 C-17.92756929 45.44873117 -18.42821373 39.92085713 -18.29296875 32.78515625 C-18.28872391 31.92941513 -18.28447906 31.07367401 -18.28010559 30.19200134 C-18.26342789 27.4818358 -18.22579705 24.77243752 -18.1875 22.0625 C-18.17243902 20.2155056 -18.1587531 18.36849944 -18.14648438 16.52148438 C-18.11356026 12.01403116 -18.06185469 7.50714528 -18 3 C-16 6 -16 6 -15 8 C-9.27602693 7.85690067 -6.59845924 5.24654142 -2.63671875 1.49609375 C-1 0 -1 0 0 0 Z " fill="#FAFAFA" transform="translate(262,320)"/>
<path d="M0 0 C3.72167775 1.17853129 6.2132416 2.1878623 8.9375 5 C10.59469021 9.6791253 10.77554769 14.10255994 10 19 C8.38735434 22.2380901 6.06259073 24.19389668 3.1875 26.375 C-1.90387555 27.82967873 -5.64602799 27.66421268 -10.3125 25.375 C-13.7801788 22.31053967 -15.62299932 19.66518539 -16.28125 15.01171875 C-16.48680835 10.4637403 -15.90964229 7.49157075 -13 4 C-8.61608144 0.31352303 -5.69473776 -0.69935376 0 0 Z " fill="#F7F7F7" transform="translate(189,415)"/>
<path d="M0 0 C0 0.66 0 1.32 0 2 C-0.66 2 -1.32 2 -2 2 C-2 2.66 -2 3.32 -2 4 C-0.6078125 4.0928125 -0.6078125 4.0928125 0.8125 4.1875 C4 5 4 5 5.875 6.9375 C7.49878163 11.35779445 7.80929376 15.35212944 7 20 C5.10337815 23.61884168 2.93639425 25.68786858 -1 27 C-8.87621359 27.42961165 -8.87621359 27.42961165 -12 25 C-13.86536178 21.2223069 -14.29674332 18.06627702 -14.3125 13.875 C-14.33763672 12.32425781 -14.33763672 12.32425781 -14.36328125 10.7421875 C-14 8 -14 8 -12.6796875 6.14453125 C-10.1666687 4.43217193 -7.95484684 4.80301021 -5 5 C-4.87625 4.360625 -4.7525 3.72125 -4.625 3.0625 C-4.41875 2.381875 -4.2125 1.70125 -4 1 C-2 0 -2 0 0 0 Z " fill="#242424" transform="translate(301,202)"/>
<path d="M0 0 C0.33 0.66 0.66 1.32 1 2 C0.67 2.66 0.34 3.32 0 4 C0.7425 3.896875 1.485 3.79375 2.25 3.6875 C5 4 5 4 7.3125 5.875 C9.69497748 10.28699533 9.67093318 14.08521237 9 19 C7.75598496 21.9856361 6.94052999 23.41010619 4.21875 25.1171875 C1.57916626 26.16744441 -0.41928563 26.19949248 -3.25 26.125 C-4.14203125 26.10695313 -5.0340625 26.08890625 -5.953125 26.0703125 C-6.62859375 26.04710937 -7.3040625 26.02390625 -8 26 C-11.89506574 20.40084299 -13.14231257 15.81925991 -12 9 C-10.3125 5.9375 -10.3125 5.9375 -8 4 C-5.4375 3.375 -5.4375 3.375 -3 3 C-1.20614008 1.5420814 -1.20614008 1.5420814 0 0 Z " fill="#212121" transform="translate(302,258)"/>
<path d="M0 0 C0 1.32 0 2.64 0 4 C0.66 4 1.32 4 2 4 C2 5.32 2 6.64 2 8 C0.35 8.33 -1.3 8.66 -3 9 C-3.020625 9.825 -3.04125 10.65 -3.0625 11.5 C-5.68262369 21.2817951 -16.79626677 28.41364075 -25.17578125 33.2578125 C-27 34 -27 34 -30 34 C-29.84406672 26.82706911 -26.34314027 22.50019308 -22 17 C-21.02933594 15.7625 -21.02933594 15.7625 -20.0390625 14.5 C-15.7624385 9.36128974 -12.0450727 6.75740158 -6 4 C-5.67 3.01 -5.34 2.02 -5 1 C-2 0 -2 0 0 0 Z " fill="#1E1E1E" transform="translate(358,232)"/>
<path d="M0 0 C2 2 2 2 2.17944336 5.69604492 C2.15875252 7.2909983 2.1281821 8.88584197 2.08984375 10.48046875 C2.06940743 12.21939807 2.04923358 13.9583305 2.02929688 15.69726562 C1.98594029 18.4380387 1.93767564 21.17860776 1.88354492 23.91918945 C1.83498536 26.56460899 1.80528755 29.20976245 1.77734375 31.85546875 C1.75558578 32.66614304 1.73382782 33.47681732 1.71141052 34.3120575 C1.64498041 42.00518484 3.84751735 47.13683008 9 53 C8.34 53.99 7.68 54.98 7 56 C3.10051134 55.10868831 1.42351465 53.56069814 -0.6875 50.3125 C-4.5089409 44.10110258 -5.2959759 37.77362106 -5.1953125 30.66015625 C-5.1924826 29.89319931 -5.18965271 29.12624237 -5.18673706 28.33604431 C-5.17563475 25.91136379 -5.15054967 23.48706691 -5.125 21.0625 C-5.1149573 19.4082085 -5.10583372 17.75391115 -5.09765625 16.09960938 C-5.07572817 12.06626077 -5.04126843 8.0331952 -5 4 C-4.01 5.485 -4.01 5.485 -3 7 C-2.34 7 -1.68 7 -1 7 C-0.67 4.69 -0.34 2.38 0 0 Z " fill="#292929" transform="translate(243,321)"/>
<path d="M0 0 C1.5 1.375 1.5 1.375 3 3 C3 3.66 3 4.32 3 5 C3.886875 4.896875 4.77375 4.79375 5.6875 4.6875 C9 5 9 5 11.9375 7.0625 C14 10 14 10 14.0625 13.5625 C12.93569047 17.20806025 11.95999714 18.66788104 9 21 C5.90826248 22.54586876 3.40570448 22.29359521 0 22 C-2.375 20.4375 -2.375 20.4375 -4 18 C-4.37400786 15.67284 -4.70764733 13.33882138 -5 11 C-6.42675173 8.61971709 -6.42675173 8.61971709 -8 7 C-6.02 6.67 -4.04 6.34 -2 6 C-1.855625 5.195625 -1.71125 4.39125 -1.5625 3.5625 C-1 1 -1 1 0 0 Z " fill="#1E1E1E" transform="translate(268,209)"/>
<path d="M0 0 C0.680625 0.33 1.36125 0.66 2.0625 1 C5.50840238 2.17307315 8.38397422 2.14180493 12 2 C11.690625 3.3921875 11.690625 3.3921875 11.375 4.8125 C10.63307034 8.15173402 10.63307034 8.15173402 13 11 C13.5 13.875 13.5 13.875 13 17 C9.76913907 20.62486836 8.22142275 21.78571531 3.4375 22.625 C0 22 0 22 -2.9375 20 C-5.76733593 15.88387501 -5.63512789 13.92224114 -5 9 C-3.625 7 -3.625 7 -2 6 C-1.34 6 -0.68 6 0 6 C0 4.02 0 2.04 0 0 Z " fill="#242424" transform="translate(306,234)"/>
<path d="M0 0 C2.24289648 1.16817525 4.20760562 2.20760562 6 4 C6.3125 6.3125 6.3125 6.3125 6 9 C4.26157063 11.23512348 2.86238874 12.63040482 0.25 13.75 C-5.1880116 14.35422351 -10.11497991 14.72986417 -15 12 C-17.1610211 8.75846834 -17.64247553 7.76307099 -17 4 C-12.89171667 -1.42880297 -6.21218697 -0.91695845 0 0 Z " fill="#272727" transform="translate(292,234)"/>
<path d="M0 0 C0.66 0 1.32 0 2 0 C2.33 1.32 2.66 2.64 3 4 C4.5778125 4.3403125 4.5778125 4.3403125 6.1875 4.6875 C10.18684388 5.81862756 12.25326202 7.87177063 15 11 C15.8353125 11.7734375 15.8353125 11.7734375 16.6875 12.5625 C20.18757988 16.39592082 20.24664952 19.92389581 20.1875 25 C20.18105469 26.216875 20.17460937 27.43375 20.16796875 28.6875 C20.03394204 31.33063144 19.78329524 33.49345523 19 36 C18.34 36 17.68 36 17 36 C16.89042969 35.41992188 16.78085937 34.83984375 16.66796875 34.2421875 C14.88039477 25.43511572 12.45207775 20.89434125 5.05859375 15.61328125 C3 14 3 14 1 11 C0.95653201 9.00047242 0.960008 6.99960012 1 5 C0.708776 3.32546201 0.38929201 1.65449105 0 0 Z " fill="#222222" transform="translate(351,179)"/>
<path d="M0 0 C-1.34290391 4.02871174 -3.51307554 4.67538369 -7 7 C-11.30918804 10.95008904 -11.59613695 14.87489018 -12.4453125 20.39453125 C-13.17163765 23.80621348 -14.34888914 25.73875838 -17 28 C-18.32 28 -19.64 28 -21 28 C-21.66 29.32 -22.32 30.64 -23 32 C-23.66 32 -24.32 32 -25 32 C-25 31.34 -25 30.68 -25 30 C-24.34 29.67 -23.68 29.34 -23 29 C-23.04640625 28.2265625 -23.0928125 27.453125 -23.140625 26.65625 C-23.37778068 19.81261456 -23.1778869 14.60097962 -19 9 C-14.13842934 3.90692597 -7.17997668 0 0 0 Z " fill="#1F1F1F" transform="translate(266,177)"/>
<path d="M0 0 C3.68232497 4.64293148 4.47911886 8.05892617 4 14 C1.60877827 22.62058278 -3.78346781 27.57939819 -11.375 31.9375 C-14 33 -14 33 -16 33 C-14.82070468 30.21257469 -13.4919106 28.40299495 -11.5 26.0625 C-6.97737823 20.52228833 -6.69048595 15.69424336 -6.34375 8.7421875 C-6 6 -6 6 -4 3 C-3.01 2.67 -2.02 2.34 -1 2 C-0.67 1.34 -0.34 0.68 0 0 Z " fill="#1C1C1C" transform="translate(321,260)"/>
<path d="M0 0 C3.3 0 6.6 0 10 0 C9.01 0.33 8.02 0.66 7 1 C7 4.3 7 7.6 7 11 C10.96 11 14.92 11 19 11 C19 7.7 19 4.4 19 1 C18.01 0.67 17.02 0.34 16 0 C19.3 0 22.6 0 26 0 C24.68 0.33 23.36 0.66 22 1 C22 8.59 22 16.18 22 24 C23.32 24.33 24.64 24.66 26 25 C22.7 25 19.4 25 16 25 C16.99 24.67 17.98 24.34 19 24 C19 20.37 19 16.74 19 13 C15.04 13 11.08 13 7 13 C7 16.63 7 20.26 7 24 C7.99 24.33 8.98 24.66 10 25 C6.7 25 3.4 25 0 25 C0.99 24.67 1.98 24.34 3 24 C3 16.74 3 9.48 3 2 C2.01 2 1.02 2 0 2 C0 1.34 0 0.68 0 0 Z " fill="#2D2D2D" transform="translate(379,416)"/>
<path d="M0 0 C3.72167775 1.17853129 6.2132416 2.1878623 8.9375 5 C10.59469021 9.6791253 10.77554769 14.10255994 10 19 C8.38735434 22.2380901 6.06259073 24.19389668 3.1875 26.375 C-1.90387555 27.82967873 -5.64602799 27.66421268 -10.3125 25.375 C-13.7801788 22.31053967 -15.62299932 19.66518539 -16.28125 15.01171875 C-16.48680835 10.4637403 -15.90964229 7.49157075 -13 4 C-8.61608144 0.31352303 -5.69473776 -0.69935376 0 0 Z M-9.375 3.8125 C-12.36337711 7.83531534 -12.6660105 12.14256341 -12 17 C-10.67356513 20.28779828 -9.28245546 23.35877227 -6 25 C-1.86337199 25.46829751 0.32813291 25.40026125 3.9375 23.25 C7.05594319 18.33608951 6.86984695 13.66575988 6 8 C4.19196596 4.92634214 3.13960536 3.56980268 0 2 C-5.0558397 1.48998879 -5.0558397 1.48998879 -9.375 3.8125 Z " fill="#414141" transform="translate(189,415)"/>
<path d="M0 0 C1.09324611 3.37912433 1.0935707 4.76607326 -0.25 8.125 C-1.69994088 10.50704573 -2.8195804 12.29358466 -5 14 C-5.66 14 -6.32 14 -7 14 C-7 14.66 -7 15.32 -7 16 C-10.78187881 17.83691257 -12.94568308 18.15837626 -17 17 C-17.97780502 13.88880221 -18.23611297 12.49707993 -16.8125 9.5 C-15.9153125 8.2625 -15.9153125 8.2625 -15 7 C-14.360625 6.113125 -13.72125 5.22625 -13.0625 4.3125 C-9.03503803 -0.20313917 -5.963854 -0.229379 0 0 Z " fill="#222222" transform="translate(327,191)"/>
<path d="M0 0 C6.78579754 0.60242424 10.68847251 2.49883938 15.51953125 7.45703125 C17.32525511 10.30451888 17.60351138 11.71487434 17.14453125 15.01953125 C16.14453125 16.01953125 16.14453125 16.01953125 12.95703125 16.26953125 C7.53370799 15.9139035 4.52556858 14.12436111 0.33203125 10.76953125 C-2.30321341 7.45665225 -2.69445464 5.20589815 -2.85546875 1.01953125 C-1.85546875 0.01953125 -1.85546875 0.01953125 0 0 Z " fill="#262626" transform="translate(288.85546875,181.98046875)"/>
<path d="M0 0 C0.33 1.32 0.66 2.64 1 4 C2.32 4 3.64 4 5 4 C5 6.31 5 8.62 5 11 C4.01 11.33 3.02 11.66 2 12 C1.21625 12.86625 0.4325 13.7325 -0.375 14.625 C-3 17 -3 17 -5.625 17.0625 C-8.64207075 15.71275782 -9.57023447 15.0100327 -11 12 C-11.65835015 7.63240876 -11.72648508 4.22049493 -9.4375 0.375 C-6.01315661 -1.55668089 -3.73770642 -0.86254764 0 0 Z " fill="#191919" transform="translate(365,214)"/>
<path d="M0 0 C2.9375 0.5625 2.9375 0.5625 4.625 2.5 C5.058125 3.180625 5.49125 3.86125 5.9375 4.5625 C6.9275 4.8925 7.9175 5.2225 8.9375 5.5625 C8.9375 7.8725 8.9375 10.1825 8.9375 12.5625 C7.9475 12.5625 6.9575 12.5625 5.9375 12.5625 C5.73125 13.366875 5.525 14.17125 5.3125 15 C3.9375 17.5625 3.9375 17.5625 1.0625 18.625 C-2.0625 18.5625 -2.0625 18.5625 -4.375 17.1875 C-6.78417741 13.43989069 -7.38591283 9.99562217 -7.0625 5.5625 C-5.13896086 1.79236328 -4.17640144 0.76709414 0 0 Z " fill="#2A2A2A" transform="translate(250.0625,211.4375)"/>
<path d="M0 0 C3.86060266 0.77066644 5.49493234 2.44788313 8.07421875 5.4140625 C8.66819925 8.71395419 8.67919097 10.40577547 6.94921875 13.2890625 C4.29386892 14.8822724 2.10632357 14.61620282 -0.92578125 14.4140625 C-0.92578125 15.0740625 -0.92578125 15.7340625 -0.92578125 16.4140625 C-3.89578125 15.9190625 -3.89578125 15.9190625 -6.92578125 15.4140625 C-7.78516189 12.83592059 -8.30121101 10.58956424 -8.67578125 7.9140625 C-8.794375 7.140625 -8.91296875 6.3671875 -9.03515625 5.5703125 C-8.92578125 3.4140625 -8.92578125 3.4140625 -7.6796875 1.6640625 C-5.23655037 -0.07714882 -2.94019059 -0.11956413 0 0 Z " fill="#252525" transform="translate(340.92578125,170.5859375)"/>
<path d="M0 0 C2.97 0 5.94 0 9 0 C8.01 0.495 8.01 0.495 7 1 C7 3.97 7 6.94 7 10 C11.22457211 6.01554084 11.22457211 6.01554084 14 1 C14 0.67 14 0.34 14 0 C16.64 0 19.28 0 22 0 C21.40832031 0.26167969 20.81664062 0.52335937 20.20703125 0.79296875 C17.87787236 2.06679193 16.45026196 3.33978128 14.6875 5.3125 C14.15511719 5.88613281 13.62273437 6.45976562 13.07421875 7.05078125 C11.7852724 8.98575544 11.7852724 8.98575544 12.12109375 11.4375 C13.12591051 14.3670991 14.43613314 16.27823295 16.375 18.6875 C16.98085938 19.45449219 17.58671875 20.22148437 18.2109375 21.01171875 C20.03103547 23.19943195 20.03103547 23.19943195 23 25 C20.03 25 17.06 25 14 25 C13.67 23.68 13.34 22.36 13 21 C10.66281864 16.81958315 10.66281864 16.81958315 7 14 C7 17.3 7 20.6 7 24 C7.66 24.33 8.32 24.66 9 25 C6.03 25 3.06 25 0 25 C0.99 24.67 1.98 24.34 3 24 C3 16.41 3 8.82 3 1 C2.01 0.67 1.02 0.34 0 0 Z " fill="#505050" transform="translate(277,416)"/>
<path d="M0 0 C3.20849858 0.08782387 5.16332813 0.64713107 7.75 2.5625 C10.25 5.4375 10.25 5.4375 10.8125 8.5625 C10.25 11.4375 10.25 11.4375 9.0625 13.3125 C6.68963721 14.78531139 4.99086056 14.65973194 2.25 14.4375 C1.92 15.4275 1.59 16.4175 1.25 17.4375 C-0.73 16.7775 -2.71 16.1175 -4.75 15.4375 C-4.97134176 13.31381556 -5.17670007 11.18845976 -5.375 9.0625 C-5.49101562 7.87914062 -5.60703125 6.69578125 -5.7265625 5.4765625 C-5.73429687 4.47367188 -5.74203125 3.47078125 -5.75 2.4375 C-3.75 0.4375 -3.75 0.4375 0 0 Z " fill="#222222" transform="translate(331.75,200.5625)"/>
<path d="M0 0 C3.203125 -0.359375 3.203125 -0.359375 7 0 C9.546875 2.484375 9.546875 2.484375 11.75 5.75 C12.48734375 6.81734375 13.2246875 7.8846875 13.984375 8.984375 C14.64953125 9.97953125 15.3146875 10.9746875 16 12 C16.99 13.32 17.98 14.64 19 16 C19.33 11.38 19.66 6.76 20 2 C19.01 2 18.02 2 17 2 C17 1.34 17 0.68 17 0 C19.97 0 22.94 0 26 0 C25.01 0.66 24.02 1.32 23 2 C22.49095616 4.4157113 22.49095616 4.4157113 22.48828125 7.2265625 C22.45283203 8.2578125 22.41738281 9.2890625 22.38085938 10.3515625 C22.35830078 11.43179687 22.33574219 12.51203125 22.3125 13.625 C22.27833984 14.71296875 22.24417969 15.8009375 22.20898438 16.921875 C22.12631666 19.61448063 22.05722913 22.30675291 22 25 C19.24804202 22.27593349 16.52298515 19.5637043 14 16.625 C13.54625 16.10164063 13.0925 15.57828125 12.625 15.0390625 C10.29682631 12.11765224 8.17129855 9.03981797 6 6 C5.67 11.94 5.34 17.88 5 24 C5.99 24.33 6.98 24.66 8 25 C5.36 25 2.72 25 0 25 C0.99 24.67 1.98 24.34 3 24 C3 16.41 3 8.82 3 1 C2.01 0.67 1.02 0.34 0 0 Z " fill="#484848" transform="translate(438,416)"/>
<path d="M0 0 C2.5647293 1.50012468 4.89183465 2.89183465 7 5 C7.1875 8.4375 7.1875 8.4375 7 12 C5 14 5 14 1.875 14.125 C0.92625 14.08375 -0.0225 14.0425 -1 14 C-1.33 14.99 -1.66 15.98 -2 17 C-4.375 16.375 -4.375 16.375 -7 15 C-8.90190213 11.0150622 -9.48737396 7.38636562 -9 3 C-6.78033584 -0.69944027 -4.03477346 -0.55379244 0 0 Z " fill="#232323" transform="translate(333,231)"/>
<path d="M0 0 C5.94 0 11.88 0 18 0 C18 1.98 18 3.96 18 6 C17.34 6 16.68 6 16 6 C16 4.68 16 3.36 16 2 C13.03 2 10.06 2 7 2 C7 4.97 7 7.94 7 11 C10.93075644 10.42547254 10.93075644 10.42547254 14 8 C14 10.64 14 13.28 14 16 C13.67 15.01 13.34 14.02 13 13 C11.02 13 9.04 13 7 13 C7 16.63 7 20.26 7 24 C9.97 23.67 12.94 23.34 16 23 C16.33 21.68 16.66 20.36 17 19 C17.66 19 18.32 19 19 19 C19 21.31 19 23.62 19 26 C12.73 26 6.46 26 0 26 C0 25.34 0 24.68 0 24 C0.99 24 1.98 24 3 24 C3 16.41 3 8.82 3 1 C2.01 0.67 1.02 0.34 0 0 Z " fill="#555555" transform="translate(412,416)"/>
<path d="M0 0 C1.32 0.33 2.64 0.66 4 1 C4 1.99 4 2.98 4 4 C7.50538557 5.96301592 11.13351728 6.95902388 15 8 C14.375 10.875 14.375 10.875 13 14 C9.85187938 15.60903943 7.76947153 16.05246397 4.25 15.8125 C2 15 2 15 0 12 C-3.55672179 10.7811879 -3.55672179 10.7811879 -7 10 C-7.33 8.02 -7.66 6.04 -8 4 C-6.865625 3.71125 -5.73125 3.4225 -4.5625 3.125 C-3.386875 2.75375 -2.21125 2.3825 -1 2 C-0.67 1.34 -0.34 0.68 0 0 Z " fill="#F5F5F5" transform="translate(253,201)"/>
<path d="M0 0 C6.27 0 12.54 0 19 0 C19 1.98 19 3.96 19 6 C18.34 6 17.68 6 17 6 C16.67 4.68 16.34 3.36 16 2 C13.03 2 10.06 2 7 2 C7 4.97 7 7.94 7 11 C8.98 11 10.96 11 13 11 C13 10.01 13 9.02 13 8 C13.66 8 14.32 8 15 8 C15 10.97 15 13.94 15 17 C14.34 17 13.68 17 13 17 C13 15.68 13 14.36 13 13 C11.02 13 9.04 13 7 13 C7 16.63 7 20.26 7 24 C10.3 24 13.6 24 17 24 C17 22.35 17 20.7 17 19 C17.66 19 18.32 19 19 19 C19 21.31 19 23.62 19 26 C12.73 26 6.46 26 0 26 C0 25.34 0 24.68 0 24 C1.32 24 2.64 24 4 24 C3.91939409 20.37407004 3.80653183 16.74985598 3.6875 13.125 C3.66494141 12.09246094 3.64238281 11.05992187 3.61914062 9.99609375 C3.58369141 9.00996094 3.54824219 8.02382813 3.51171875 7.0078125 C3.48553467 6.09660645 3.45935059 5.18540039 3.43237305 4.24658203 C3.28968994 3.50520996 3.14700684 2.76383789 3 2 C2.01 1.34 1.02 0.68 0 0 Z " fill="#191919" transform="translate(237,416)"/>
<path d="M0 0 C0.66 0.33 1.32 0.66 2 1 C2 1.99 2 2.98 2 4 C3.11375 4.103125 4.2275 4.20625 5.375 4.3125 C7.169375 4.6528125 7.169375 4.6528125 9 5 C11 8 11 8 10.875 10.4375 C9.78665774 13.62478806 8.72276727 15.01311577 6 17 C1.89222251 17.50299316 0.49124017 17.32749345 -3 15 C-3.1875 11.375 -3.1875 11.375 -3 8 C-3.99 7.67 -4.98 7.34 -6 7 C-6 6.34 -6 5.68 -6 5 C-5.38125 4.731875 -4.7625 4.46375 -4.125 4.1875 C-1.7004767 3.04443152 -1.7004767 3.04443152 0 0 Z " fill="#2B2B2B" transform="translate(277,248)"/>
<path d="M0 0 C4.69555028 1.74932265 7.13304192 3.92009812 10 8 C9.67 8.66 9.34 9.32 9 10 C8.34 10 7.68 10 7 10 C6.01 10.66 5.02 11.32 4 12 C-2.25544629 12.36368874 -6.87874729 10.37784753 -12 7 C-9.19678123 0.74666582 -7.0649522 -0.71846971 0 0 Z " fill="#323232" transform="translate(280,170)"/>
<path d="M0 0 C3.62416894 1.64734952 6.12851416 3.45402683 8 7 C8.1875 10.75 8.1875 10.75 8 14 C4.9375 14.875 4.9375 14.875 1 15 C-3.44772578 12.4636187 -6.86550423 8.64566726 -9 4 C-9 3.01 -9 2.02 -9 1 C-5.93570224 -0.53214888 -3.3834358 -0.22938548 0 0 Z " fill="#565656" transform="translate(347,194)"/>
<path d="M0 0 C0.391875 0.515625 0.78375 1.03125 1.1875 1.5625 C2.0846875 2.2740625 2.0846875 2.2740625 3 3 C5.65466049 2.76956136 5.65466049 2.76956136 8 2 C17 12.10679612 17 12.10679612 17 17 C8.19172414 17.76965517 8.19172414 17.76965517 4 15.0625 C0.93193534 10.36452599 0 5.57341292 0 0 Z " fill="#2B2B2B" transform="translate(253,234)"/>
<path d="M0 0 C0 1.98 0 3.96 0 6 C-0.99 6 -1.98 6 -3 6 C-3.33 4.68 -3.66 3.36 -4 2 C-9.44625626 1.59295835 -9.44625626 1.59295835 -14.4375 3.3125 C-17.33884874 6.44595664 -17.27201383 9.87907928 -17.2265625 14 C-16.78482562 17.89947042 -14.68660695 20.31339305 -12 23 C-9.79749008 23.46006346 -9.79749008 23.46006346 -7.375 23.625 C-6.55773437 23.69976562 -5.74046875 23.77453125 -4.8984375 23.8515625 C-4.27195312 23.90054687 -3.64546875 23.94953125 -3 24 C-3 22.35 -3 20.7 -3 19 C-2.01 19 -1.02 19 0 19 C0 20.98 0 22.96 0 25 C-5.19532598 26.73177533 -10.23401478 26.63308904 -15.3125 24.8125 C-18.2725656 22.81617669 -19.45019232 21.18118419 -21 18 C-21.33 17.34 -21.66 16.68 -22 16 C-22.79160144 9.32793075 -22.79160144 9.32793075 -20.80078125 5.98828125 C-15.09966321 -0.8616767 -8.62323535 -2.87441178 0 0 Z " fill="#454545" transform="translate(372,416)"/>
<path d="M0 0 C1.75 0.6875 1.75 0.6875 4 2 C4.9075 2.495 5.815 2.99 6.75 3.5 C11.88827715 6.98246405 17.16286203 12.77231829 18.73046875 18.81640625 C18.81941406 19.53699219 18.90835937 20.25757813 19 21 C11.81457283 20.07780614 6.44769602 15.04151576 2.01953125 9.5390625 C-2 3.63865796 -2 3.63865796 -2 1 C-1.34 0.67 -0.68 0.34 0 0 Z " fill="#202020" transform="translate(267,184)"/>
<path d="M0 0 C3.3 0 6.6 0 10 0 C9.01 0.33 8.02 0.66 7 1 C7.433125 2.13179688 7.86625 3.26359375 8.3125 4.4296875 C8.87517286 5.9113927 9.43766343 7.39316714 10 8.875 C10.28617188 9.62136719 10.57234375 10.36773437 10.8671875 11.13671875 C13 16.7734375 13 16.7734375 13 19 C13.66 19 14.32 19 15 19 C15.16822266 17.71222656 15.16822266 17.71222656 15.33984375 16.3984375 C16.02648164 12.8636744 17.13294687 9.92396876 18.5625 6.625 C19.01753906 5.56539063 19.47257812 4.50578125 19.94140625 3.4140625 C20.29074219 2.61742187 20.64007813 1.82078125 21 1 C20.01 0.67 19.02 0.34 18 0 C20.97 0 23.94 0 27 0 C25.68 0.33 24.36 0.66 23 1 C22.85304687 1.63164062 22.70609375 2.26328125 22.5546875 2.9140625 C20.519189 11.03265997 17.43288547 18.38988173 14 26 C13.34 26 12.68 26 12 26 C11.74307373 25.28344238 11.48614746 24.56688477 11.22143555 23.82861328 C10.05376408 20.59025004 8.87085317 17.357664 7.6875 14.125 C7.08131836 12.43310547 7.08131836 12.43310547 6.46289062 10.70703125 C5.86831055 9.09248047 5.86831055 9.09248047 5.26171875 7.4453125 C4.90037842 6.45031738 4.53903809 5.45532227 4.16674805 4.43017578 C3.11374616 1.70749695 3.11374616 1.70749695 0 0 Z " fill="#373737" transform="translate(205,416)"/>
<path d="M0 0 C2.75328098 2.37783357 3.96944911 4.51198161 5 8 C5.07646165 10.3320802 5.09143299 12.66845878 5 15 C5.66 15.33 6.32 15.66 7 16 C7 16.66 7 17.32 7 18 C5.68 18 4.36 18 3 18 C2.67 16.68 2.34 15.36 2 14 C-0.97851562 14.09765625 -0.97851562 14.09765625 -3.95703125 14.1953125 C-6 14 -6 14 -9 12 C-8.67 10.02 -8.34 8.04 -8 6 C-6.68 6 -5.36 6 -4 6 C-3.566875 4.7934375 -3.566875 4.7934375 -3.125 3.5625 C-2 1 -2 1 0 0 Z " fill="#ECECEC" transform="translate(363,200)"/>
<path d="M0 0 C6.93 0 13.86 0 21 0 C21 1.98 21 3.96 21 6 C20.34 6 19.68 6 19 6 C19 4.68 19 3.36 19 2 C16.69 2 14.38 2 12 2 C12 9.26 12 16.52 12 24 C13.32 24 14.64 24 16 24 C16 24.66 16 25.32 16 26 C12.37 26 8.74 26 5 26 C5 25.34 5 24.68 5 24 C6.32 24 7.64 24 9 24 C9 16.41 9 8.82 9 1 C6.69 1 4.38 1 2 1 C2 2.65 2 4.3 2 6 C1.34 6 0.68 6 0 6 C0 4.02 0 2.04 0 0 Z " fill="#202020" transform="translate(323,416)"/>
<path d="M0 0 C3.3 0 6.6 0 10 0 C9.01 0.66 8.02 1.32 7 2 C6.49156938 4.31753588 6.49156938 4.31753588 6.48828125 7.0078125 C6.43510742 8.48701172 6.43510742 8.48701172 6.38085938 9.99609375 C6.35830078 11.02863281 6.33574219 12.06117188 6.3125 13.125 C6.27833984 14.16527344 6.24417969 15.20554687 6.20898438 16.27734375 C6.12633831 18.85117834 6.06149784 21.42557329 6 24 C9.3 24 12.6 24 16 24 C16 22.35 16 20.7 16 19 C16.66 19 17.32 19 18 19 C18 21.31 18 23.62 18 26 C11.73 26 5.46 26 -1 26 C-1 25.34 -1 24.68 -1 24 C0.32 24 1.64 24 3 24 C3 16.41 3 8.82 3 1 C2.01 0.67 1.02 0.34 0 0 Z " fill="#202020" transform="translate(149,416)"/>
<path d="M0 0 C3.4375 1.5 3.4375 1.5 6 3 C5.66411682 5.51912388 5.42645046 6.67196119 3.375 8.25 C-0.83483855 9.5794227 -4.63520815 9.35603266 -8.875 8.25 C-11 7 -11 7 -11.8125 4.875 C-11.874375 4.25625 -11.93625 3.6375 -12 3 C-7.88718566 0.0088623 -5.04883872 -0.53145671 0 0 Z " fill="#222222" transform="translate(323,219)"/>
<path d="M0 0 C6.93 0.495 6.93 0.495 14 1 C14.33 2.32 14.66 3.64 15 5 C14.01 5 13.02 5 12 5 C12 5.66 12 6.32 12 7 C11.01 7.66 10.02 8.32 9 9 C9 9.66 9 10.32 9 11 C2.84765625 11.09765625 2.84765625 11.09765625 1 11 C0 10 0 10 -0.09765625 7.71484375 C-0.06510417 5.14322917 -0.03255208 2.57161458 0 0 Z " fill="#363636" transform="translate(224,312)"/>
<path d="M0 0 C0.75609756 16.1300813 0.75609756 16.1300813 -4 23 C-6.25 25 -6.25 25 -8 26 C-8.66 24.68 -9.32 23.36 -10 22 C-12.97 22 -15.94 22 -19 22 C-19 21.67 -19 21.34 -19 21 C-18.24074219 20.91363281 -17.48148437 20.82726562 -16.69921875 20.73828125 C-15.70535156 20.59777344 -14.71148437 20.45726562 -13.6875 20.3125 C-12.70136719 20.18488281 -11.71523438 20.05726563 -10.69921875 19.92578125 C-7.86181636 19.20806451 -7.86181636 19.20806451 -6.15625 16.84375 C-4.76670055 13.42620946 -4.70106141 10.86497348 -4.8125 7.1875 C-4.85310547 5.44533203 -4.85310547 5.44533203 -4.89453125 3.66796875 C-4.92933594 2.78753906 -4.96414063 1.90710938 -5 1 C-3 0 -3 0 0 0 Z " fill="#EEEEEE" transform="translate(315,263)"/>
<path d="M0 0 C0 1.65 0 3.3 0 5 C0.66 5 1.32 5 2 5 C2.33 7.31 2.66 9.62 3 12 C1.375 13.5625 1.375 13.5625 -1 15 C-4.1875 14.8125 -4.1875 14.8125 -7 14 C-8.31157516 11.37684968 -7.89649988 9.76966564 -7.5625 6.875 C-7.46066406 5.96492187 -7.35882813 5.05484375 -7.25390625 4.1171875 C-7.17011719 3.41851562 -7.08632813 2.71984375 -7 2 C-2.25 0 -2.25 0 0 0 Z " fill="#141414" transform="translate(347,216)"/>
<path d="M0 0 C-3 2 -3 2 -5.9375 3.5625 C-9.14647702 6.11658375 -9.52721357 6.9519108 -10.8125 10.625 C-12.37739814 14.71522732 -12.37739814 14.71522732 -15.24609375 16.02734375 C-17.51159629 16.51154632 -19.68980553 16.8469743 -22 17 C-21.67 16.34 -21.34 15.68 -21 15 C-20.34 15 -19.68 15 -19 15 C-19.061875 14.113125 -19.12375 13.22625 -19.1875 12.3125 C-18.90093822 7.24990847 -17.14644136 5.03459342 -13.4375 1.6875 C-8.85303903 -0.56305357 -5.01319327 -0.35666988 0 0 Z " fill="#3A3A3A" transform="translate(330,175)"/>
<path d="M0 0 C0 1.32 0 2.64 0 4 C1.32 4.66 2.64 5.32 4 6 C4.25 8.3125 4.25 8.3125 4 11 C2.3125 12.875 2.3125 12.875 0 14 C-3.37036311 13.75925978 -4.58798021 13.41201979 -7 11 C-7.1953125 8.8359375 -7.1953125 8.8359375 -7.125 6.375 C-7.10695313 5.55773437 -7.08890625 4.74046875 -7.0703125 3.8984375 C-7.04710937 3.27195313 -7.02390625 2.64546875 -7 2 C-2.25 0 -2.25 0 0 0 Z " fill="#1A1A1A" transform="translate(265,194)"/>
<path d="M0 0 C1.52519276 0.08937803 3.04681929 0.24537146 4.5625 0.4375 C5.80193359 0.59025391 5.80193359 0.59025391 7.06640625 0.74609375 C7.70449219 0.82988281 8.34257812 0.91367188 9 1 C9.33 1.99 9.66 2.98 10 4 C10.66 4 11.32 4 12 4 C12 4.99 12 5.98 12 7 C12.66 7.66 13.32 8.32 14 9 C13.01 10.485 13.01 10.485 12 12 C11.34 12 10.68 12 10 12 C7.8614515 9.8614515 7.57344937 8.86724686 7 6 C6.34 7.32 5.68 8.64 5 10 C2.525 9.01 2.525 9.01 0 8 C-0.38063221 5.6739143 -0.71269945 3.33944736 -1 1 C-0.67 0.67 -0.34 0.34 0 0 Z " fill="#1D1D1D" transform="translate(287,182)"/>
<path d="M0 0 C0.66 0 1.32 0 2 0 C2.33 1.32 2.66 2.64 3 4 C4.0725 4.2475 5.145 4.495 6.25 4.75 C9.99649437 5.99883146 11.52073882 7.02488658 14 10 C12.35 10.33 10.7 10.66 9 11 C8.67 12.98 8.34 14.96 8 17 C4.63629679 15.60812281 2.78093669 14.20568604 1 11 C0.875 8.0625 0.875 8.0625 1 5 C0.708776 3.32546201 0.38929201 1.65449105 0 0 Z " fill="#262626" transform="translate(351,179)"/>
<path d="M0 0 C3.63 0 7.26 0 11 0 C9.68 0.33 8.36 0.66 7 1 C7 8.59 7 16.18 7 24 C7.99 24.33 8.98 24.66 10 25 C6.7 25 3.4 25 0 25 C1.32 24.67 2.64 24.34 4 24 C4 16.41 4 8.82 4 1 C2.68 0.67 1.36 0.34 0 0 Z " fill="#222222" transform="translate(306,416)"/>
<path d="M0 0 C3.3 0 6.6 0 10 0 C8.68 0.33 7.36 0.66 6 1 C6 8.59 6 16.18 6 24 C7.32 24.33 8.64 24.66 10 25 C6.7 25 3.4 25 0 25 C0.99 24.67 1.98 24.34 3 24 C3 16.41 3 8.82 3 1 C2.01 0.67 1.02 0.34 0 0 Z " fill="#1A1A1A" transform="translate(395,416)"/>
<path d="M0 0 C0.33 1.32 0.66 2.64 1 4 C0.01 4.33 -0.98 4.66 -2 5 C-2 5.99 -2 6.98 -2 8 C-3.98 8 -5.96 8 -8 8 C-8 8.66 -8 9.32 -8 10 C-8.66 10 -9.32 10 -10 10 C-10.33 10.66 -10.66 11.32 -11 12 C-11.61307902 4.02997275 -11.61307902 4.02997275 -9.4375 0.375 C-6.01315661 -1.55668089 -3.73770642 -0.86254764 0 0 Z " fill="#252525" transform="translate(365,214)"/>
<path d="M0 0 C7.32732733 0.6006006 7.32732733 0.6006006 10 2.1875 C11.4851593 4.87935123 11.32051241 6.98718336 11 10 C9 12 9 12 6.375 12.125 C5.59125 12.08375 4.8075 12.0425 4 12 C4.33 11.01 4.66 10.02 5 9 C3.68 8.67 2.36 8.34 1 8 C1.20625 7.05125 1.4125 6.1025 1.625 5.125 C1.74875 4.09375 1.8725 3.0625 2 2 C1.34 1.34 0.68 0.68 0 0 Z " fill="#191919" transform="translate(331,202)"/>
<path d="M0 0 C2.97 0 5.94 0 9 0 C8.01 0.33 7.02 0.66 6 1 C6 8.59 6 16.18 6 24 C6.99 24.33 7.98 24.66 9 25 C6.03 25 3.06 25 0 25 C0.99 24.67 1.98 24.34 3 24 C3 16.41 3 8.82 3 1 C2.01 0.67 1.02 0.34 0 0 Z " fill="#292929" transform="translate(277,416)"/>
<path d="M0 0 C3.3125 -0.3125 3.3125 -0.3125 7 0 C8.9375 2.5 8.9375 2.5 10 5 C9.01 6.485 9.01 6.485 8 8 C7.34 7.34 6.68 6.68 6 6 C5.67 11.94 5.34 17.88 5 24 C5.99 24.33 6.98 24.66 8 25 C5.36 25 2.72 25 0 25 C0.99 24.67 1.98 24.34 3 24 C3 16.41 3 8.82 3 1 C2.01 0.67 1.02 0.34 0 0 Z " fill="#353535" transform="translate(438,416)"/>
<path d="M0 0 C0.33 0 0.66 0 1 0 C0.855625 1.19625 0.71125 2.3925 0.5625 3.625 C0.57190057 6.27126092 0.74625977 7.62577306 2.2421875 9.83203125 C6.71759346 14.07026132 10.94755685 14.97255128 17 15 C17 13.35 17 11.7 17 10 C17.99 10 18.98 10 20 10 C20 11.98 20 13.96 20 16 C14.80467402 17.73177533 9.76598522 17.63308904 4.6875 15.8125 C1.58997326 13.72347034 0.38734761 12.46836902 -1 9 C-1.28173965 6.23999491 -1.18621076 3.79316138 -1 1 C-0.67 0.67 -0.34 0.34 0 0 Z " fill="#2D2D2D" transform="translate(352,425)"/>
<path d="M0 0 C2.97 0 5.94 0 9 0 C9.33 1.32 9.66 2.64 10 4 C10.66 4.33 11.32 4.66 12 5 C11.34 5 10.68 5 10 5 C10 5.66 10 6.32 10 7 C8.68 6.67 7.36 6.34 6 6 C6 6.99 6 7.98 6 9 C4.02 9 2.04 9 0 9 C0 6.03 0 3.06 0 0 Z " fill="#F4F4F4" transform="translate(244,418)"/>
<path d="M0 0 C0.33 0 0.66 0 1 0 C1.85807272 9.648551 1.85807272 9.648551 -1 13.625 C-5.03221264 16.81716834 -6.98344228 16.51015841 -12 16 C-12 15.34 -12 14.68 -12 14 C-11.34 14 -10.68 14 -10 14 C-9.67 12.02 -9.34 10.04 -9 8 C-8.34 8.66 -7.68 9.32 -7 10 C-6.34 9.67 -5.68 9.34 -5 9 C-4.34 9.33 -3.68 9.66 -3 10 C-2.67 7.69 -2.34 5.38 -2 3 C-1.34 3 -0.68 3 0 3 C0 2.01 0 1.02 0 0 Z " fill="#1A1A1A" transform="translate(307,212)"/>
<path d="M0 0 C0.33 0 0.66 0 1 0 C1 2.31 1 4.62 1 7 C0.21625 7.103125 -0.5675 7.20625 -1.375 7.3125 C-4.33045181 7.77595022 -4.33045181 7.77595022 -6 11 C-8.625 11.1875 -8.625 11.1875 -11 11 C-11 8.03 -11 5.06 -11 2 C-8.03 2 -5.06 2 -2 2 C-2 3.32 -2 4.64 -2 6 C-1.34 6 -0.68 6 0 6 C0 4.02 0 2.04 0 0 Z " fill="#FAFAFA" transform="translate(430,416)"/>
<path d="M0 0 C0 1.32 0 2.64 0 4 C0.66 4 1.32 4 2 4 C2 5.32 2 6.64 2 8 C0.35 8.33 -1.3 8.66 -3 9 C-3.020625 9.825 -3.04125 10.65 -3.0625 11.5 C-4.3936281 16.4695449 -7.47118983 19.36984019 -11 23 C-11.66 22.34 -12.32 21.68 -13 21 C-12.38511719 20.29423828 -12.38511719 20.29423828 -11.7578125 19.57421875 C-11.21898437 18.95160156 -10.68015625 18.32898438 -10.125 17.6875 C-9.32449219 16.76517578 -9.32449219 16.76517578 -8.5078125 15.82421875 C-5.57332645 12.27394677 -4.75697966 10.35628326 -4.875 5.8125 C-4.89304687 4.91144531 -4.91109375 4.01039063 -4.9296875 3.08203125 C-4.95289063 2.39496094 -4.97609375 1.70789063 -5 1 C-2 0 -2 0 0 0 Z " fill="#252525" transform="translate(358,232)"/>
<path d="M0 0 C1.98 0 3.96 0 6 0 C6 1.32 6 2.64 6 4 C6.66 4.33 7.32 4.66 8 5 C8 6.32 8 7.64 8 9 C8.66 9.66 9.32 10.32 10 11 C6.7 11 3.4 11 0 11 C0 7.37 0 3.74 0 0 Z " fill="#ECECEC" transform="translate(244,429)"/>
<path d="M0 0 C2.31 0 4.62 0 7 0 C7 3.3 7 6.6 7 10 C-3.17857143 12.27678571 -3.17857143 12.27678571 -7 11 C-6.34 11 -5.68 11 -5 11 C-4.6596875 9.7934375 -4.6596875 9.7934375 -4.3125 8.5625 C-3 6 -3 6 -0.5625 5.125 C2 5 2 5 5 6 C5 5.34 5 4.68 5 4 C4.34 3.67 3.68 3.34 3 3 C3.33 2.67 3.66 2.34 4 2 C2.68 1.34 1.36 0.68 0 0 Z " fill="#242424" transform="translate(381,312)"/>
<path d="M0 0 C3.73678306 4.71159603 4.11284843 8.01903338 4 14 C3.01 14 2.02 14 1 14 C1 11.69 1 9.38 1 7 C0.01 7.33 -0.98 7.66 -2 8 C-2.33 9.65 -2.66 11.3 -3 13 C-3.99 13.33 -4.98 13.66 -6 14 C-6.25 6.375 -6.25 6.375 -4 3 C-3.01 2.67 -2.02 2.34 -1 2 C-0.67 1.34 -0.34 0.68 0 0 Z " fill="#212121" transform="translate(321,260)"/>
<path d="M0 0 C5.21630207 3.85012772 8.95730825 8.2383071 12 14 C12 14.99 12 15.98 12 17 C6.55791766 16.65986985 3.06331802 13.29703472 -1 10 C-0.34 9.67 0.32 9.34 1 9 C1.99 9.33 2.98 9.66 4 10 C4.33 8.68 4.66 7.36 5 6 C3.68 5.67 2.36 5.34 1 5 C0.67 3.35 0.34 1.7 0 0 Z " fill="#3C3C3C" transform="translate(274,188)"/>
<path d="M0 0 C1.91015625 0.734375 1.91015625 0.734375 5.03515625 2.421875 C5.36515625 3.411875 5.69515625 4.401875 6.03515625 5.421875 C4.28515625 6.171875 4.28515625 6.171875 2.03515625 6.421875 C1.13796875 5.4628125 1.13796875 5.4628125 0.22265625 4.484375 C-1.90274789 2.07257261 -1.90274789 2.07257261 -5.52734375 1.984375 C-8.87010847 2.13883891 -8.87010847 2.13883891 -10.83984375 3.734375 C-12.15030498 5.53972967 -12.15030498 5.53972967 -12.96484375 8.421875 C-13.95484375 8.751875 -14.94484375 9.081875 -15.96484375 9.421875 C-16.29484375 11.731875 -16.62484375 14.041875 -16.96484375 16.421875 C-17.29484375 16.421875 -17.62484375 16.421875 -17.96484375 16.421875 C-18.41532298 7.56245008 -18.41532298 7.56245008 -14.96484375 3.421875 C-10.11765331 -0.65417151 -6.18157581 -1.81883344 0 0 Z " fill="#464646" transform="translate(190.96484375,415.578125)"/>
<path d="M0 0 C0.33 0 0.66 0 1 0 C1 3.63 1 7.26 1 11 C4.3 11 7.6 11 11 11 C11 9.35 11 7.7 11 6 C11.66 6 12.32 6 13 6 C13 8.31 13 10.62 13 13 C6.73 13 0.46 13 -6 13 C-6 12.34 -6 11.68 -6 11 C-4.68 11 -3.36 11 -2 11 C-1.855625 9.9275 -1.71125 8.855 -1.5625 7.75 C-1.16250558 5.08337051 -0.72408076 2.58600271 0 0 Z " fill="#414141" transform="translate(243,429)"/>
<path d="M0 0 C0.99 0.33 1.98 0.66 3 1 C2.42415568 3.38564077 1.77772405 5.66682784 1 8 C1.66 8 2.32 8 3 8 C3.66666667 10.66666667 4.33333333 13.33333333 5 16 C2.03 15.505 2.03 15.505 -1 15 C-1.85938064 12.42185809 -2.37542976 10.17550174 -2.75 7.5 C-2.86859375 6.7265625 -2.9871875 5.953125 -3.109375 5.15625 C-3 3 -3 3 -1.515625 1.21875 C-1.01546875 0.8165625 -0.5153125 0.414375 0 0 Z " fill="#272727" transform="translate(335,171)"/>
<path d="M0 0 C0.433125 0.474375 0.86625 0.94875 1.3125 1.4375 C3.02309613 3.23686957 3.02309613 3.23686957 6 4 C6 6.31 6 8.62 6 11 C5.01 11 4.02 11 3 11 C2.34 12.65 1.68 14.3 1 16 C-0.32 16 -1.64 16 -3 16 C-3 15.34 -3 14.68 -3 14 C-2.34 14 -1.68 14 -1 14 C-1 12.906875 -1 11.81375 -1 10.6875 C-1 8.45833333 -1 6.22916667 -1 4 C-0.34 4 0.32 4 1 4 C0.67 2.68 0.34 1.36 0 0 Z " fill="#232323" transform="translate(253,213)"/>
<path d="M0 0 C0.66 0.66 1.32 1.32 2 2 C2.33 1.34 2.66 0.68 3 0 C5.31 0 7.62 0 10 0 C10.75 1.75 10.75 1.75 11 4 C9.4375 6.25 9.4375 6.25 7 8 C3.75 8.25 3.75 8.25 1 8 C0.40267181 5.23735711 0 2.83967231 0 0 Z " fill="#1B1B1B" transform="translate(276,257)"/>
<path d="M0 0 C4.21708244 1.50610087 5.94467452 4.11771853 8 8 C7.9375 10.75 7.9375 10.75 7 13 C4 15 4 15 1.875 14.75 C0 14 0 14 -1 12 C-0.01 11.67 0.98 11.34 2 11 C2.33 9.35 2.66 7.7 3 6 C2.01 5.34 1.02 4.68 0 4 C0 2.68 0 1.36 0 0 Z " fill="#161616" transform="translate(273,215)"/>
<path d="M0 0 C1.1894524 1.7841786 2.34821969 3.59045948 3.4375 5.4375 C4.84347634 7.7433012 6.34349569 9.87020874 8 12 C7.01 13.485 7.01 13.485 6 15 C2.32408105 13.9789114 1.0660202 13.08564783 -1.3125 10 C-3 7 -3 7 -3 5 C-2.01 5 -1.02 5 0 5 C0 3.35 0 1.7 0 0 Z " fill="#212121" transform="translate(244,362)"/>
<path d="M0 0 C5.0572806 0.44623064 7.50642642 2.50642642 11 6 C11 7.32 11 8.64 11 10 C7.06089933 9.72517902 5.24636457 9.19816281 2.125 6.6875 C0 4 0 4 0 0 Z " fill="#313131" transform="translate(341,199)"/>
<path d="M0 0 C0.98120464 3.05263664 0.98120464 4.94736336 0 8 C0.66 8 1.32 8 2 8 C2 7.34 2 6.68 2 6 C3.32 5.67 4.64 5.34 6 5 C6 5.99 6 6.98 6 8 C4.35546875 9.38671875 4.35546875 9.38671875 2.1875 10.6875 C1.12595703 11.34298828 1.12595703 11.34298828 0.04296875 12.01171875 C-2 13 -2 13 -5 13 C-4.54996653 7.37458159 -3.31558515 4.38512875 0 0 Z " fill="#323232" transform="translate(333,253)"/>
<path d="M0 0 C0.66 0.33 1.32 0.66 2 1 C2 2.65 2 4.3 2 6 C2.99 6.33 3.98 6.66 5 7 C5.33 8.98 5.66 10.96 6 13 C5.21625 13.0825 4.4325 13.165 3.625 13.25 C0.85250896 13.72806339 0.85250896 13.72806339 -0.3125 16.0625 C-0.539375 16.701875 -0.76625 17.34125 -1 18 C-1.66 18 -2.32 18 -3 18 C-3 17.34 -3 16.68 -3 16 C-2.34 15.67 -1.68 15.34 -1 15 C-1.01160156 14.16855469 -1.02320313 13.33710938 -1.03515625 12.48046875 C-1.04417969 11.39378906 -1.05320313 10.30710938 -1.0625 9.1875 C-1.07410156 8.10855469 -1.08570313 7.02960938 -1.09765625 5.91796875 C-1 3 -1 3 0 0 Z " fill="#333333" transform="translate(244,191)"/>
<path d="M0 0 C2.875 0.75 2.875 0.75 5 2 C5.33 3.32 5.66 4.64 6 6 C-1.425 5.01 -1.425 5.01 -9 4 C-9 5.32 -9 6.64 -9 8 C-9.99 7.67 -10.98 7.34 -12 7 C-9.17694899 0.70242467 -7.08149885 -0.61047404 0 0 Z " fill="#262626" transform="translate(280,170)"/>
<path d="M0 0 C0.66 0 1.32 0 2 0 C2 2.64 2 5.28 2 8 C6.47883696 7.55296014 6.47883696 7.55296014 10 5 C10 7.64 10 10.28 10 13 C9.67 12.01 9.34 11.02 9 10 C6.69 10 4.38 10 2 10 C2 12.97 2 15.94 2 19 C1.34 19 0.68 19 0 19 C0 12.73 0 6.46 0 0 Z " fill="#191919" transform="translate(416,419)"/>
<path d="M0 0 C0 0.99 0 1.98 0 3 C-0.99 3.33 -1.98 3.66 -3 4 C-3.78375 4.86625 -4.5675 5.7325 -5.375 6.625 C-8 9 -8 9 -10.6875 9.0625 C-13 8 -13 8 -14.3125 5.9375 C-14.539375 5.298125 -14.76625 4.65875 -15 4 C-12.92446352 3.4465236 -11.15634036 3 -9 3 C-9 3.66 -9 4.32 -9 5 C-8.34 5 -7.68 5 -7 5 C-6.71125 4.360625 -6.4225 3.72125 -6.125 3.0625 C-4.45129782 -0.005954 -3.47574769 0 0 0 Z " fill="#2B2B2B" transform="translate(370,222)"/>
<path d="M0 0 C0.33 0 0.66 0 1 0 C3 5.625 3 5.625 3 9 C-0.77578157 11.96668552 -4.39874735 13.68535639 -9 15 C-7.82070468 12.21257469 -6.4919106 10.40299495 -4.5 8.0625 C-2.27119968 5.33221961 -1.07080101 3.30974856 0 0 Z " fill="#2A2A2A" transform="translate(314,278)"/>
<path d="M0 0 C-0.99 0.495 -0.99 0.495 -2 1 C-2.65555119 3.52733235 -2.65555119 3.52733235 -3 6 C-3.99 6 -4.98 6 -6 6 C-6 6.66 -6 7.32 -6 8 C-7.65 7.67 -9.3 7.34 -11 7 C-11.33 5.68 -11.66 4.36 -12 3 C-7.89542386 0.01485372 -5.02254631 -0.2954439 0 0 Z " fill="#2F2F2F" transform="translate(323,219)"/>
<path d="M0 0 C0.391875 0.515625 0.78375 1.03125 1.1875 1.5625 C2.0846875 2.2740625 2.0846875 2.2740625 3 3 C5.65466049 2.76956136 5.65466049 2.76956136 8 2 C9.65 3.98 11.3 5.96 13 8 C11.35 7.67 9.7 7.34 8 7 C7.67 7.66 7.34 8.32 7 9 C7.66 9 8.32 9 9 9 C9 9.99 9 10.98 9 12 C8.34 12 7.68 12 7 12 C7 11.34 7 10.68 7 10 C6.34 10 5.68 10 5 10 C2.07907263 7.69866328 1.09694174 6.42008088 0.25 2.75 C0.1675 1.8425 0.085 0.935 0 0 Z " fill="#494949" transform="translate(253,234)"/>
<path d="M0 0 C2.64 0 5.28 0 8 0 C8 0.33 8 0.66 8 1 C5.69 1 3.38 1 1 1 C1 8.26 1 15.52 1 23 C2.32 23 3.64 23 5 23 C5 23.66 5 24.32 5 25 C1.37 25 -2.26 25 -6 25 C-6 24.34 -6 23.68 -6 23 C-4.68 23 -3.36 23 -2 23 C-1.0699111 20.2097333 -0.81301231 18.23470458 -0.68359375 15.33203125 C-0.64169922 14.43935547 -0.59980469 13.54667969 -0.55664062 12.62695312 C-0.51732422 11.69818359 -0.47800781 10.76941406 -0.4375 9.8125 C-0.39431641 8.87212891 -0.35113281 7.93175781 -0.30664062 6.96289062 C-0.20061335 4.64207146 -0.09854971 2.32114675 0 0 Z " fill="#3D3D3D" transform="translate(334,417)"/>
<path d="M0 0 C2.97 0 5.94 0 9 0 C8.01 0.66 7.02 1.32 6 2 C5.49095616 4.4157113 5.49095616 4.4157113 5.48828125 7.2265625 C5.45283203 8.2578125 5.41738281 9.2890625 5.38085938 10.3515625 C5.35830078 11.43179687 5.33574219 12.51203125 5.3125 13.625 C5.27833984 14.71296875 5.24417969 15.8009375 5.20898438 16.921875 C5.12631666 19.61448063 5.05722913 22.30675291 5 25 C0.125 20.375 0.125 20.375 -1 17 C0.65 17.33 2.3 17.66 4 18 C4 12.39 4 6.78 4 1 C2.68 0.67 1.36 0.34 0 0 Z " fill="#212121" transform="translate(455,416)"/>
<path d="M0 0 C2.64 0 5.28 0 8 0 C8.66 1.32 9.32 2.64 10 4 C7.6875 5.5625 7.6875 5.5625 5 7 C4.01 6.67 3.02 6.34 2 6 C2 6.66 2 7.32 2 8 C1.34 8 0.68 8 0 8 C0 5.36 0 2.72 0 0 Z " fill="#171717" transform="translate(225,313)"/>
<path d="M0 0 C1.32 0 2.64 0 4 0 C4 6.6 4 13.2 4 20 C4.66 20 5.32 20 6 20 C6 17.36 6 14.72 6 12 C6.33 12 6.66 12 7 12 C7 15.63 7 19.26 7 23 C7.99 23.33 8.98 23.66 10 24 C6.7 24 3.4 24 0 24 C0.99 23.67 1.98 23.34 3 23 C3 15.74 3 8.48 3 1 C2.01 0.67 1.02 0.34 0 0 Z " fill="#555555" transform="translate(379,417)"/>
<path d="M0 0 C6.27 0 12.54 0 19 0 C19 1.98 19 3.96 19 6 C18.34 6 17.68 6 17 6 C16.67 4.68 16.34 3.36 16 2 C13.03 2 10.06 2 7 2 C7 4.97 7 7.94 7 11 C6.67 11 6.34 11 6 11 C5.67 8.03 5.34 5.06 5 2 C3.35 1.67 1.7 1.34 0 1 C0 0.67 0 0.34 0 0 Z " fill="#282828" transform="translate(237,416)"/>
<path d="M0 0 C0.33 0.99 0.66 1.98 1 3 C1.99 3.33 2.98 3.66 4 4 C0.375 9.75 0.375 9.75 -3 12 C-3.66 10.68 -4.32 9.36 -5 8 C-7.97 8 -10.94 8 -14 8 C-14 7.67 -14 7.34 -14 7 C-13.24074219 6.91363281 -12.48148437 6.82726562 -11.69921875 6.73828125 C-5.47644164 6.09266893 -5.47644164 6.09266893 -0.8125 2.375 C-0.544375 1.59125 -0.27625 0.8075 0 0 Z " fill="#DCDCDC" transform="translate(310,277)"/>
<path d="M0 0 C2.97 0 5.94 0 9 0 C7.68 0.33 6.36 0.66 5 1 C4.82984375 1.68964844 4.6596875 2.37929688 4.484375 3.08984375 C2.86290628 9.37734748 0.84015761 15.16109729 -2 21 C-2.99 21 -3.98 21 -5 21 C-5 20.34 -5 19.68 -5 19 C-4.34 19 -3.68 19 -3 19 C-2.83177734 17.71222656 -2.83177734 17.71222656 -2.66015625 16.3984375 C-1.97351836 12.8636744 -0.86705313 9.92396876 0.5625 6.625 C1.01753906 5.56539063 1.47257813 4.50578125 1.94140625 3.4140625 C2.29074219 2.61742187 2.64007813 1.82078125 3 1 C2.01 0.67 1.02 0.34 0 0 Z " fill="#424242" transform="translate(223,416)"/>
<path d="M0 0 C5.94 0 11.88 0 18 0 C18 1.98 18 3.96 18 6 C17.34 6 16.68 6 16 6 C16 4.68 16 3.36 16 2 C13.03 2 10.06 2 7 2 C7 4.97 7 7.94 7 11 C6.67 11 6.34 11 6 11 C6 8.36 6 5.72 6 3 C4.02 2.34 2.04 1.68 0 1 C0 0.67 0 0.34 0 0 Z " fill="#363636" transform="translate(412,416)"/>
<path d="M0 0 C4.05780213 -0.47183746 5.56195324 -0.33329645 8.875 2.1875 C11.23797669 5.31496915 11.21419096 6.25165812 11 10 C10.46890625 9.57847656 9.9378125 9.15695313 9.390625 8.72265625 C8.68421875 8.17480469 7.9778125 7.62695312 7.25 7.0625 C6.55390625 6.51722656 5.8578125 5.97195312 5.140625 5.41015625 C3.03907872 4.02574346 1.45678201 3.43713013 -1 3 C-0.67 2.01 -0.34 1.02 0 0 Z " fill="#202020" transform="translate(343,195)"/>
<path d="M0 0 C1.15837626 4.05431692 0.83691257 6.21812119 -1 10 C-1.66 9.01 -2.32 8.02 -3 7 C-3.33 7 -3.66 7 -4 7 C-4.66 6.67 -5.32 6.34 -6 6 C-5.67 5.67 -5.34 5.34 -5 5 C-7.8684413 2.89767656 -7.8684413 2.89767656 -11 2 C-7.36576791 -0.32590854 -4.22911669 -0.16265833 0 0 Z " fill="#434343" transform="translate(327,191)"/>
<path d="M0 0 C1.5 1.375 1.5 1.375 3 3 C3 3.66 3 4.32 3 5 C3.886875 4.896875 4.77375 4.79375 5.6875 4.6875 C9 5 9 5 11.875 7.1875 C14 10 14 10 14.3125 12.8125 C14.209375 13.534375 14.10625 14.25625 14 15 C12.12452035 13.21829434 10.54194618 11.41702241 8.9375 9.375 C7.22133095 6.93968019 7.22133095 6.93968019 5 6 C4.67 6.66 4.34 7.32 4 8 C1.84526801 6.4198632 -0.10646634 4.89353366 -2 3 C-1.34 2.01 -0.68 1.02 0 0 Z " fill="#2F2F2F" transform="translate(268,209)"/>
<path d="M0 0 C2.97 0 5.94 0 9 0 C9 0.66 9 1.32 9 2 C9.99 2.66 10.98 3.32 12 4 C10.35 4 8.7 4 7 4 C6.67 4.99 6.34 5.98 6 7 C4.02 6.34 2.04 5.68 0 5 C0 3.35 0 1.7 0 0 Z " fill="#2D2D2D" transform="translate(327,211)"/>
<path d="M0 0 C2.37056898 2.30649955 4.64998319 4.52882352 6.625 7.1875 C8.04770058 9.26842487 8.04770058 9.26842487 11 11 C8.03 11 5.06 11 2 11 C1.67 9.68 1.34 8.36 1 7 C0.03112419 4.98473831 -0.9641321 2.98166034 -2 1 C-1.34 0.67 -0.68 0.34 0 0 Z " fill="#363636" transform="translate(289,430)"/>
<path d="M0 0 C0.66 0.66 1.32 1.32 2 2 C2.66 1.67 3.32 1.34 4 1 C4 1.99 4 2.98 4 4 C6.31 4 8.62 4 11 4 C10.375 5.9375 10.375 5.9375 9 8 C6.0625 8.9375 6.0625 8.9375 3 9 C1.125 7.9375 1.125 7.9375 0 6 C-0.1875 2.8125 -0.1875 2.8125 0 0 Z " fill="#2C2C2C" transform="translate(339,222)"/>
<path d="M0 0 C1.32 0 2.64 0 4 0 C4 1.32 4 2.64 4 4 C4.66 4.66 5.32 5.32 6 6 C6.125 8.625 6.125 8.625 6 11 C5.67 9.68 5.34 8.36 5 7 C4.34 7 3.68 7 3 7 C2.67 8.65 2.34 10.3 2 12 C1.34 11.67 0.68 11.34 0 11 C0.33 10.01 0.66 9.02 1 8 C0.34 8 -0.32 8 -1 8 C-2.2077558 4.37673261 -1.54311128 3.35853631 0 0 Z M6 4 C6.66 4.66 7.32 5.32 8 6 C7.34 6 6.68 6 6 6 C6 5.34 6 4.68 6 4 Z " fill="#181818" transform="translate(337,171)"/>
<path d="M0 0 C3.63 0 7.26 0 11 0 C12 4 12 4 12 7 C10.625 9.1875 10.625 9.1875 9 11 C8.34 11 7.68 11 7 11 C7 8.03 7 5.06 7 2 C4.69 1.67 2.38 1.34 0 1 C0 0.67 0 0.34 0 0 Z " fill="#E3E3E3" transform="translate(277,415)"/>
<path d="M0 0 C-1.3437261 4.0311783 -3.45371931 4.80130597 -7 7 C-7.99 7.66 -8.98 8.32 -10 9 C-10.99 7.35 -11.98 5.7 -13 4 C-11.39850114 3.32694982 -9.79368971 2.66177773 -8.1875 2 C-7.29417969 1.62875 -6.40085937 1.2575 -5.48046875 0.875 C-3 0 -3 0 0 0 Z " fill="#313131" transform="translate(266,177)"/>
<path d="M0 0 C6.04942966 2.12547529 6.04942966 2.12547529 8 5 C8.1875 8.1875 8.1875 8.1875 8 11 C7.34 11 6.68 11 6 11 C6 10.34 6 9.68 6 9 C5.34 8.67 4.68 8.34 4 8 C3.67 7.01 3.34 6.02 3 5 C2.01 5 1.02 5 0 5 C-0.66 4.34 -1.32 3.68 -2 3 C-1.34 2.01 -0.68 1.02 0 0 Z " fill="#313131" transform="translate(341,171)"/>
<path d="M0 0 C1.32 0 2.64 0 4 0 C5.32229189 2.64458379 5.09677194 4.67761301 5.0625 7.625 C5.05347656 8.62789063 5.04445312 9.63078125 5.03515625 10.6640625 C5.02355469 11.43492187 5.01195312 12.20578125 5 13 C4.01 12.67 3.02 12.34 2 12 C1.34 8.04 0.68 4.08 0 0 Z " fill="#262626" transform="translate(194,421)"/>
<path d="M0 0 C0.66 0.33 1.32 0.66 2 1 C1.67 2.32 1.34 3.64 1 5 C-1.8125 5.6875 -1.8125 5.6875 -5 6 C-6.875 4.6875 -6.875 4.6875 -8 3 C-8 2.34 -8 1.68 -8 1 C-5.26094655 -0.36952673 -3.02912668 -0.12621361 0 0 Z " fill="#2C2C2C" transform="translate(333,231)"/>
<path d="M0 0 C0.82638376 2.89234315 1 4.88742431 1 8 C0.01 8 -0.98 8 -2 8 C-2 8.66 -2 9.32 -2 10 C-1.34 10.33 -0.68 10.66 0 11 C-0.99 11 -1.98 11 -3 11 C-3 11.66 -3 12.32 -3 13 C-5 12 -5 12 -6 9.875 C-6 5.36849105 -3.05982098 3.07755907 0 0 Z " fill="#2C2C2C" transform="translate(340,244)"/>
<path d="M0 0 C2 0.3125 2 0.3125 4 1 C4.33 1.66 4.66 2.32 5 3 C4.34 3 3.68 3 3 3 C3 4.65 3 6.3 3 8 C2.34 8 1.68 8 1 8 C1 8.66 1 9.32 1 10 C1.66 10.33 2.32 10.66 3 11 C-0.68754757 10.50168276 -2.60490662 9.89932357 -5 7 C-4.01 6.67 -3.02 6.34 -2 6 C-1.34 6.33 -0.68 6.66 0 7 C0.6814823 5.10820797 0.6814823 5.10820797 1 3 C0.34 2.34 -0.32 1.68 -1 1 C-0.67 0.67 -0.34 0.34 0 0 Z " fill="#313131" transform="translate(249,219)"/>
<path d="M0 0 C0.66 0 1.32 0 2 0 C2 2.31 2 4.62 2 7 C-4.27 7 -10.54 7 -17 7 C-16.67 6.34 -16.34 5.68 -16 5 C-10.72 5 -5.44 5 0 5 C0 3.35 0 1.7 0 0 Z " fill="#595959" transform="translate(165,435)"/>
<path d="M0 0 C3.6413205 -0.33102914 5.41472925 -0.42019439 8.4375 1.75 C10 4 10 4 9.75 6.25 C9.5025 6.8275 9.255 7.405 9 8 C8.67 7.01 8.34 6.02 8 5 C6.35 5 4.7 5 3 5 C3 4.34 3 3.68 3 3 C2.01 3 1.02 3 0 3 C0 2.01 0 1.02 0 0 Z " fill="#3B3B3B" transform="translate(278,252)"/>
<path d="M0 0 C1.32 0.66 2.64 1.32 4 2 C3.67 3.65 3.34 5.3 3 7 C1.02 7 -0.96 7 -3 7 C-3 7.66 -3 8.32 -3 9 C-3.66 9 -4.32 9 -5 9 C-5.125 6.125 -5.125 6.125 -5 3 C-4.34 2.34 -3.68 1.68 -3 1 C-2.34 2.32 -1.68 3.64 -1 5 C-0.67 3.35 -0.34 1.7 0 0 Z " fill="#161616" transform="translate(338,252)"/>
<path d="M0 0 C3.3 0 6.6 0 10 0 C9.01 0.33 8.02 0.66 7 1 C7.66 4.3 8.32 7.6 9 11 C8.01 10.67 7.02 10.34 6 10 C5.15625 8.22265625 5.15625 8.22265625 4.5 6.0625 C3.43824907 2.58020975 3.23663534 2.1577569 0 0 Z " fill="#252525" transform="translate(205,416)"/>
<path d="M0 0 C0.495 0.165 0.99 0.33 1.5 0.5 C1.5 2.48 1.5 4.46 1.5 6.5 C0.51 6.5 -0.48 6.5 -1.5 6.5 C-1.83 5.18 -2.16 3.86 -2.5 2.5 C-5.47 2.5 -8.44 2.5 -11.5 2.5 C-11.83 1.84 -12.16 1.18 -12.5 0.5 C-8.76025568 -1.36987216 -4.03209172 -0.80641834 0 0 Z " fill="#494949" transform="translate(370.5,415.5)"/>
<path d="M0 0 C2.0625 0.4375 2.0625 0.4375 4 1 C4.33 3.64 4.66 6.28 5 9 C4.34 8.34 3.68 7.68 3 7 C2.01 8.485 2.01 8.485 1 10 C-0.85064319 6.87703962 -1.29356154 4.62059232 -1 1 C-0.67 0.67 -0.34 0.34 0 0 Z " fill="#D7D7D7" transform="translate(323,257)"/>
<path d="M0 0 C2.35171131 0.59861742 4.6859378 1.26924352 7 2 C7.33 2.66 7.66 3.32 8 4 C7.01 4.99 6.02 5.98 5 7 C2.97954558 6.39816251 0.97888961 5.72693904 -1 5 C-1.33 4.34 -1.66 3.68 -2 3 C-1.34 2.01 -0.68 1.02 0 0 Z " fill="#252525" transform="translate(251,374)"/>
<path d="M0 0 C0.66 0 1.32 0 2 0 C2.33 1.32 2.66 2.64 3 4 C4.0725 4.2475 5.145 4.495 6.25 4.75 C9.99649437 5.99883146 11.52073882 7.02488658 14 10 C11 10 11 10 8.5625 9 C5.83739994 7.75763834 5.83739994 7.75763834 2 8 C0.74335022 5.09399739 0 3.20395416 0 0 Z " fill="#707070" transform="translate(351,179)"/>
<path d="M0 0 C3.3125 -0.3125 3.3125 -0.3125 7 0 C8.9375 2.5 8.9375 2.5 10 5 C9.01 6.485 9.01 6.485 8 8 C7.34 6.68 6.68 5.36 6 4 C5.34 4 4.68 4 4 4 C3.67 4.66 3.34 5.32 3 6 C3 4.35 3 2.7 3 1 C2.01 0.67 1.02 0.34 0 0 Z " fill="#222222" transform="translate(438,416)"/>
<path d="M0 0 C0.33 0.99 0.66 1.98 1 3 C1.99 3 2.98 3 4 3 C4 2.34 4 1.68 4 1 C4.99 1.33 5.98 1.66 7 2 C6.67 3.32 6.34 4.64 6 6 C4.02 6.33 2.04 6.66 0 7 C-0.66 5.68 -1.32 4.36 -2 3 C-1.34 2.01 -0.68 1.02 0 0 Z " fill="#252525" transform="translate(247,322)"/>
<path d="M0 0 C3.2542015 2.83430453 4.5206753 4.68607774 5 9 C2.625 8.6875 2.625 8.6875 0 8 C-0.66 7.01 -1.32 6.02 -2 5 C-1.125 2.3125 -1.125 2.3125 0 0 Z " fill="#333333" transform="translate(281,196)"/>
<path d="M0 0 C3.97256398 2.09663099 6.43898489 4.30075595 9 8 C9 8.66 9 9.32 9 10 C7.0625 9.6875 7.0625 9.6875 5 9 C4.67 8.01 4.34 7.02 4 6 C3.01 5.67 2.02 5.34 1 5 C1.33 4.01 1.66 3.02 2 2 C1.34 2 0.68 2 0 2 C0 1.34 0 0.68 0 0 Z " fill="#505050" transform="translate(297,184)"/>
<path d="M0 0 C0 0.99 0 1.98 0 3 C-0.66 3 -1.32 3 -2 3 C-2 3.66 -2 4.32 -2 5 C-2.99 5 -3.98 5 -5 5 C-5.33 5.99 -5.66 6.98 -6 8 C-7.65 8 -9.3 8 -11 8 C-7.61831569 4.31993178 -4.57478244 2.0214155 0 0 Z " fill="#2E2E2E" transform="translate(352,236)"/>
<path d="M0 0 C0.33 0 0.66 0 1 0 C1.125 2.875 1.125 2.875 1 6 C-1 8 -1 8 -3.625 8.125 C-4.40875 8.08375 -5.1925 8.0425 -6 8 C-5.67 6.02 -5.34 4.04 -5 2 C-4.01 2.33 -3.02 2.66 -2 3 C-1.34 2.01 -0.68 1.02 0 0 Z " fill="#202020" transform="translate(341,206)"/>
<path d="M0 0 C0.99 0 1.98 0 3 0 C3 0.66 3 1.32 3 2 C4.32 2.33 5.64 2.66 7 3 C6.42655063 5.86724686 6.1385485 6.8614515 4 9 C3.54625 8.34 3.0925 7.68 2.625 7 C2.08875 6.34 1.5525 5.68 1 5 C0.34 5 -0.32 5 -1 5 C-0.67 3.35 -0.34 1.7 0 0 Z " fill="#272727" transform="translate(246,194)"/>
<path d="M0 0 C4.95 0.99 4.95 0.99 10 2 C9.67 3.32 9.34 4.64 9 6 C3.50847458 5.38983051 3.50847458 5.38983051 1.125 3.5625 C0 2 0 2 0 0 Z " fill="#222222" transform="translate(269,192)"/>
<path d="M0 0 C2.64 0 5.28 0 8 0 C7.40445312 0.25910156 6.80890625 0.51820313 6.1953125 0.78515625 C3.83928576 2.08893617 2.57518257 3.36790604 0.875 5.4375 C0.12863281 6.33275391 0.12863281 6.33275391 -0.6328125 7.24609375 C-1.82665495 8.77762306 -2.9228468 10.3842702 -4 12 C-4.33 11.01 -4.66 10.02 -5 9 C-3.35830472 6.97945196 -1.69088222 4.97956942 0 3 C0 2.01 0 1.02 0 0 Z " fill="#3D3D3D" transform="translate(291,416)"/>
<path d="M0 0 C0.99 0.33 1.98 0.66 3 1 C2.34 2.32 1.68 3.64 1 5 C1.66 5.33 2.32 5.66 3 6 C2.67 6.99 2.34 7.98 2 9 C1.01 8.67 0.02 8.34 -1 8 C-1.33 7.01 -1.66 6.02 -2 5 C-2.99 5.33 -3.98 5.66 -5 6 C-5 5.34 -5 4.68 -5 4 C-4.0409375 3.8453125 -4.0409375 3.8453125 -3.0625 3.6875 C-2.381875 3.460625 -1.70125 3.23375 -1 3 C-0.67 2.01 -0.34 1.02 0 0 Z " fill="#161616" transform="translate(335,233)"/>
<path d="M0 0 C2.38672669 2.96283313 4.7353371 5.94270509 7 9 C6.34 9 5.68 9 5 9 C5 10.65 5 12.3 5 14 C4.67 14 4.34 14 4 14 C3.62875 12.3603125 3.62875 12.3603125 3.25 10.6875 C1.97997149 6.94091591 1.34243648 5.89404734 -2 4 C-1.34 2.68 -0.68 1.36 0 0 Z " fill="#DCDCDC" transform="translate(338,198)"/>
<path d="M0 0 C0.33 0 0.66 0 1 0 C1 2.31 1 4.62 1 7 C0.21625 7.12375 -0.5675 7.2475 -1.375 7.375 C-4.14057822 7.79117993 -4.14057822 7.79117993 -6 10 C-5.979375 9.21625 -5.95875 8.4325 -5.9375 7.625 C-5.81315937 5.01885039 -5.81315937 5.01885039 -7 3 C-5.35 2.67 -3.7 2.34 -2 2 C-2 3.32 -2 4.64 -2 6 C-1.34 6 -0.68 6 0 6 C0 4.02 0 2.04 0 0 Z " fill="#DFDFDF" transform="translate(430,416)"/>
<path d="M0 0 C0.33 0 0.66 0 1 0 C1.05416188 1.60379341 1.09286638 3.20811406 1.125 4.8125 C1.14820313 5.70582031 1.17140625 6.59914063 1.1953125 7.51953125 C1 10 1 10 -1 13 C-1.99 13 -2.98 13 -4 13 C-3.52343588 11.20763933 -3.04366502 9.41613103 -2.5625 7.625 C-2.29566406 6.62726563 -2.02882813 5.62953125 -1.75390625 4.6015625 C-1 2 -1 2 0 0 Z " fill="#656565" transform="translate(310,267)"/>
<path d="M0 0 C5.74820144 2.44604317 5.74820144 2.44604317 6.9375 5.0625 C7 7 7 7 6 9 C5.34 9 4.68 9 4 9 C3.67 8.01 3.34 7.02 3 6 C2.34 5.67 1.68 5.34 1 5 C1 4.34 1 3.68 1 3 C0.34 3 -0.32 3 -1 3 C-0.67 2.01 -0.34 1.02 0 0 Z " fill="#181818" transform="translate(261,240)"/>
<path d="M0 0 C0.66 0 1.32 0 2 0 C2.25 2.3125 2.25 2.3125 2 5 C0.3125 6.875 0.3125 6.875 -2 8 C-4.75 7.6875 -4.75 7.6875 -7 7 C-7 6.01 -7 5.02 -7 4 C-6.21625 4.185625 -5.4325 4.37125 -4.625 4.5625 C-2.02910225 5.25962266 -2.02910225 5.25962266 0 4 C0 2.68 0 1.36 0 0 Z " fill="#464646" transform="translate(267,200)"/>
<path d="M0 0 C0.33 0 0.66 0 1 0 C1.33 1.98 1.66 3.96 2 6 C2.33 6 2.66 6 3 6 C3 7.65 3 9.3 3 11 C4.32 11.33 5.64 11.66 7 12 C3.7 12 0.4 12 -3 12 C-2.01 11.67 -1.02 11.34 0 11 C0 7.37 0 3.74 0 0 Z " fill="#282828" transform="translate(398,429)"/>
<path d="M0 0 C0.66 0 1.32 0 2 0 C2 2.97 2 5.94 2 9 C1.34 9 0.68 9 0 9 C0 7.68 0 6.36 0 5 C-1.98 5 -3.96 5 -6 5 C-6 4.34 -6 3.68 -6 3 C-4.02 3 -2.04 3 0 3 C0 2.01 0 1.02 0 0 Z " fill="#565656" transform="translate(250,424)"/>
<path d="M0 0 C0.66 0 1.32 0 2 0 C2 3.3 2 6.6 2 10 C1.01 10 0.02 10 -1 10 C-1.02689216 8.52093108 -1.04634621 7.04172517 -1.0625 5.5625 C-1.07410156 4.73878906 -1.08570313 3.91507812 -1.09765625 3.06640625 C-1 1 -1 1 0 0 Z " fill="#1D1D1D" transform="translate(175,424)"/>
<path d="M0 0 C0.66 0.33 1.32 0.66 2 1 C2.99 0.67 3.98 0.34 5 0 C3.7251791 2.84383123 2.54862922 5.13754018 0 7 C-2.1875 6.6875 -2.1875 6.6875 -4 6 C-4 3 -4 3 -2 1 C-1.34 0.67 -0.68 0.34 0 0 Z " fill="#141414" transform="translate(321,195)"/>
<path d="M0 0 C3.465 1.485 3.465 1.485 7 3 C7 3.66 7 4.32 7 5 C3.37 5 -0.26 5 -4 5 C-4 4.34 -4 3.68 -4 3 C-2.68 3 -1.36 3 0 3 C0 2.01 0 1.02 0 0 Z " fill="#4C4C4C" transform="translate(332,437)"/>
<path d="M0 0 C4 4.75 4 4.75 4 7 C4.66 7.33 5.32 7.66 6 8 C5.01 8.33 4.02 8.66 3 9 C1.35 7.35 -0.3 5.7 -2 4 C-1.34 2.68 -0.68 1.36 0 0 Z " fill="#333333" transform="translate(177,432)"/>
<path d="M0 0 C0.86625 0.3403125 0.86625 0.3403125 1.75 0.6875 C1.42 1.3475 1.09 2.0075 0.75 2.6875 C1.74 2.6875 2.73 2.6875 3.75 2.6875 C3.75 3.3475 3.75 4.0075 3.75 4.6875 C-0.19727588 4.86692163 -2.8480513 4.78100689 -6.25 2.6875 C-2.80384615 -0.38942308 -2.80384615 -0.38942308 0 0 Z " fill="#2C2C2C" transform="translate(282.25,234.3125)"/>
<path d="M0 0 C3.7758544 0.52442422 6.22372155 1.32654667 9 4 C9 4.99 9 5.98 9 7 C8.34 6.67 7.68 6.34 7 6 C5.67139075 5.64830932 4.33841672 5.31229724 3 5 C3 4.34 3 3.68 3 3 C2.01 3 1.02 3 0 3 C0 2.01 0 1.02 0 0 Z " fill="#181818" transform="translate(341,199)"/>
<path d="M0 0 C0 0.99 0 1.98 0 3 C0.66 3.66 1.32 4.32 2 5 C1.01 6.485 1.01 6.485 0 8 C-0.66 8 -1.32 8 -2 8 C-4 6 -4 6 -4.125 3.375 C-4.08375 2.59125 -4.0425 1.8075 -4 1 C-2 0 -2 0 0 0 Z " fill="#171717" transform="translate(299,186)"/>
<path d="M0 0 C0.66 0.33 1.32 0.66 2 1 C3.1577506 4.47325181 3.06866652 7.36067448 3 11 C2.01 11 1.02 11 0 11 C-0.19406478 9.35492782 -0.38007935 7.70890406 -0.5625 6.0625 C-0.66691406 5.14597656 -0.77132813 4.22945313 -0.87890625 3.28515625 C-0.91886719 2.53105469 -0.95882813 1.77695312 -1 1 C-0.67 0.67 -0.34 0.34 0 0 Z " fill="#7B7B7B" transform="translate(322,263)"/>
<path d="M0 0 C0.33 0 0.66 0 1 0 C1.125 5.75 1.125 5.75 0 8 C-0.99 8 -1.98 8 -3 8 C-3.66 8.66 -4.32 9.32 -5 10 C-4.45276317 6.62537285 -3.9451 4.91765 -2 2 C-1.67 2.33 -1.34 2.66 -1 3 C-0.67 2.01 -0.34 1.02 0 0 Z " fill="#181818" transform="translate(304,214)"/>
<path d="M0 0 C3.3 0 6.6 0 10 0 C8.68 0.33 7.36 0.66 6 1 C6 1.99 6 2.98 6 4 C5.34 4 4.68 4 4 4 C4 6.31 4 8.62 4 11 C3.67 11 3.34 11 3 11 C3 7.7 3 4.4 3 1 C2.01 0.67 1.02 0.34 0 0 Z " fill="#2A2A2A" transform="translate(395,416)"/>
<path d="M0 0 C0.66 0.66 1.32 1.32 2 2 C2.33 1.34 2.66 0.68 3 0 C3.66 0 4.32 0 5 0 C5.6875 1.8125 5.6875 1.8125 6 4 C4.75 5.75 4.75 5.75 3 7 C2.01 7 1.02 7 0 7 C0 4.69 0 2.38 0 0 Z " fill="#161616" transform="translate(276,257)"/>
<path d="M0 0 C0.99 0.33 1.98 0.66 3 1 C2.34 3.31 1.68 5.62 1 8 C-0.9375 7.625 -0.9375 7.625 -3 7 C-3.33 6.34 -3.66 5.68 -4 5 C-3.01 4.67 -2.02 4.34 -1 4 C-0.26676204 1.98491642 -0.26676204 1.98491642 0 0 Z " fill="#161616" transform="translate(276,222)"/>
<path d="M0 0 C0.33 0.66 0.66 1.32 1 2 C2.32 1.67 3.64 1.34 5 1 C4.49396008 3.16874252 4.00016187 4.99967627 3 7 C1.35 6.67 -0.3 6.34 -2 6 C-2 5.34 -2 4.68 -2 4 C-1.34 4 -0.68 4 0 4 C-0.33 3.01 -0.66 2.02 -1 1 C-0.67 0.67 -0.34 0.34 0 0 Z " fill="#1B1B1B" transform="translate(246,219)"/>
<path d="M0 0 C3.96 0 7.92 0 12 0 C12 3 12 3 11 5 C10.484375 4.690625 9.96875 4.38125 9.4375 4.0625 C6.33334577 2.70940713 3.34884993 2.38640576 0 2 C0 1.34 0 0.68 0 0 Z " fill="#C9C9C9" transform="translate(378,440)"/>
<path d="M0 0 C3.875 1.875 3.875 1.875 5 3 C5.04080783 4.99958364 5.04254356 7.00045254 5 9 C4.01 7.68 3.02 6.36 2 5 C1.34 5.66 0.68 6.32 0 7 C0 4.69 0 2.38 0 0 Z " fill="#CACACA" transform="translate(259,217)"/>
<path d="M0 0 C0.33 0 0.66 0 1 0 C1 3.3 1 6.6 1 10 C-0.65 10.66 -2.3 11.32 -4 12 C-3.34 9.03 -2.68 6.06 -2 3 C-1.34 3 -0.68 3 0 3 C0 2.01 0 1.02 0 0 Z " fill="#7E7E7E" transform="translate(307,212)"/>
<path d="M0 0 C0.33 1.32 0.66 2.64 1 4 C1.66 4 2.32 4 3 4 C2.67 5.65 2.34 7.3 2 9 C1.34 9 0.68 9 0 9 C-0.66 6.69 -1.32 4.38 -2 2 C-1.34 2 -0.68 2 0 2 C0 1.34 0 0.68 0 0 Z " fill="#313131" transform="translate(217,433)"/>
<path d="M0 0 C0 1.98 0 3.96 0 6 C-0.66 6 -1.32 6 -2 6 C-2.33 4.68 -2.66 3.36 -3 2 C-5.97 2 -8.94 2 -12 2 C-12 1.67 -12 1.34 -12 1 C-10.37512529 0.83211627 -8.75009558 0.66573213 -7.125 0.5 C-6.22007812 0.4071875 -5.31515625 0.314375 -4.3828125 0.21875 C-2 0 -2 0 0 0 Z " fill="#5E5E5E" transform="translate(256,416)"/>
<path d="M0 0 C0.66 0.66 1.32 1.32 2 2 C1.625 5.625 1.625 5.625 1 9 C0.01 9.33 -0.98 9.66 -2 10 C-2 10.66 -2 11.32 -2 12 C-2.66 12 -3.32 12 -4 12 C-4 10.35 -4 8.7 -4 7 C-3.01 7 -2.02 7 -1 7 C-0.67 4.69 -0.34 2.38 0 0 Z " fill="#232323" transform="translate(243,321)"/>
<path d="M0 0 C0.33 0.66 0.66 1.32 1 2 C0.67 2.66 0.34 3.32 0 4 C0.66 4.33 1.32 4.66 2 5 C-3.75 8 -3.75 8 -6 8 C-4.55746343 4.63408134 -2.66735273 2.48952921 0 0 Z " fill="#3B3B3B" transform="translate(311,285)"/>
<path d="M0 0 C0.66 0.66 1.32 1.32 2 2 C-0.31 4.64 -2.62 7.28 -5 10 C-5.66 9.34 -6.32 8.68 -7 8 C-4.69 5.36 -2.38 2.72 0 0 Z " fill="#6B6B6B" transform="translate(352,245)"/>
<path d="M0 0 C0.66 0.33 1.32 0.66 2 1 C2 2.32 2 3.64 2 5 C1.34 5 0.68 5 0 5 C-0.33 5.99 -0.66 6.98 -1 8 C-0.34 8 0.32 8 1 8 C1 8.66 1 9.32 1 10 C0.34 10 -0.32 10 -1 10 C-1.33 10.66 -1.66 11.32 -2 12 C-2.05422947 10.5629191 -2.09289723 9.12524538 -2.125 7.6875 C-2.14820313 6.88699219 -2.17140625 6.08648437 -2.1953125 5.26171875 C-2 3 -2 3 0 0 Z " fill="#424242" transform="translate(356,214)"/>
<path d="M0 0 C-1.65 2.64 -3.3 5.28 -5 8 C-7 4 -7 4 -6.8125 1.8125 C-6.544375 1.214375 -6.27625 0.61625 -6 0 C-3 -1 -3 -1 0 0 Z " fill="#2F2F2F" transform="translate(323,179)"/>
<path d="M0 0 C0.99 0.33 1.98 0.66 3 1 C2.8125 2.875 2.8125 2.875 2 5 C-0.5625 6.25 -0.5625 6.25 -3 7 C-2.625 4.0625 -2.625 4.0625 -2 1 C-1.34 0.67 -0.68 0.34 0 0 Z " fill="#3C3C3C" transform="translate(335,171)"/>
<path d="M0 0 C3.68754757 0.49831724 5.60490662 1.10067643 8 4 C6.02 4.99 6.02 4.99 4 6 C2.62437146 4.71034824 1.29233607 3.37310707 0 2 C0 1.34 0 0.68 0 0 Z " fill="#393939" transform="translate(189,416)"/>
<path d="M0 0 C2.31 0 4.62 0 7 0 C7 3.3 7 6.6 7 10 C6.67 10 6.34 10 6 10 C5.87625 9.21625 5.7525 8.4325 5.625 7.625 C5.20882007 4.85942178 5.20882007 4.85942178 3 3 C3.33 2.67 3.66 2.34 4 2 C2.68 1.34 1.36 0.68 0 0 Z " fill="#3D3D3D" transform="translate(381,312)"/>
<path d="M0 0 C2.97 0.495 2.97 0.495 6 1 C2.86730295 4.13269705 0.02671577 4.05494397 -4.25 4.0625 C-6.10625 4.0315625 -6.10625 4.0315625 -8 4 C-8 3.67 -8 3.34 -8 3 C-5.36 2.67 -2.72 2.34 0 2 C0 1.34 0 0.68 0 0 Z " fill="#3E3E3E" transform="translate(290,244)"/>
<path d="M0 0 C0.33 0 0.66 0 1 0 C1.33663062 3.70293685 1.47736015 5.39534381 -0.875 8.375 C-3 10 -3 10 -5 10 C-5 8.68 -5 7.36 -5 6 C-4.360625 5.7525 -3.72125 5.505 -3.0625 5.25 C-0.81258459 4.18437567 -0.81258459 4.18437567 -0.25 1.875 C-0.1675 1.25625 -0.085 0.6375 0 0 Z " fill="#353535" transform="translate(306,218)"/>
<path d="M0 0 C3.93846154 3.32307692 3.93846154 3.32307692 4.25 6.75 C4.1675 7.4925 4.085 8.235 4 9 C1.38472619 6.63379989 -0.26440562 4.057952 -2 1 C-1.34 0.67 -0.68 0.34 0 0 Z " fill="#707070" transform="translate(278,215)"/>
<path d="M0 0 C0 1.32 0 2.64 0 4 C-0.9590625 4.2165625 -0.9590625 4.2165625 -1.9375 4.4375 C-3.97545146 4.81007181 -3.97545146 4.81007181 -5 6 C-5.66 6 -6.32 6 -7 6 C-7 4.68 -7 3.36 -7 2 C-2.25 0 -2.25 0 0 0 Z " fill="#383838" transform="translate(347,216)"/>
<path d="M0 0 C0 1.98 0 3.96 0 6 C-0.66 6 -1.32 6 -2 6 C-2 4.68 -2 3.36 -2 2 C-4.97 2 -7.94 2 -11 2 C-11 1.67 -11 1.34 -11 1 C-3.375 0 -3.375 0 0 0 Z " fill="#535353" transform="translate(430,416)"/>
<path d="M0 0 C0.66 0.33 1.32 0.66 2 1 C1.625 3.4375 1.625 3.4375 1 6 C0.01 6.495 0.01 6.495 -1 7 C-1.99 6.34 -2.98 5.68 -4 5 C-2.68 3.35 -1.36 1.7 0 0 Z " fill="#171717" transform="translate(352,238)"/>
<path d="M0 0 C0.66 0.33 1.32 0.66 2 1 C1.67 4.3 1.34 7.6 1 11 C0.34 11 -0.32 11 -1 11 C-1.125 3.375 -1.125 3.375 0 0 Z " fill="#6C6C6C" transform="translate(244,191)"/>
<path d="M0 0 C0.33 0 0.66 0 1 0 C1 2.64 1 5.28 1 8 C0.67 7.01 0.34 6.02 0 5 C-1.98 5 -3.96 5 -6 5 C-6 4.34 -6 3.68 -6 3 C-5.195625 2.87625 -4.39125 2.7525 -3.5625 2.625 C-2.716875 2.41875 -1.87125 2.2125 -1 2 C-0.67 1.34 -0.34 0.68 0 0 Z " fill="#373737" transform="translate(425,424)"/>
<path d="M0 0 C0.93423645 3.01031744 1.04449911 3.86650268 0 7 C-0.66 7 -1.32 7 -2 7 C-2.66 5.02 -3.32 3.04 -4 1 C-2 0 -2 0 0 0 Z " fill="#EAEAEA" transform="translate(220,428)"/>
<path d="M0 0 C-0.125 1.8125 -0.125 1.8125 -1 4 C-4.0625 5.75 -4.0625 5.75 -7 7 C-6.61402985 4.20171644 -6.19863427 3.1794116 -4.0625 1.25 C-2 0 -2 0 0 0 Z " fill="#E0E0E0" transform="translate(362,417)"/>
<path d="M0 0 C2.375 0.25 2.375 0.25 5 1 C6.3125 3.0625 6.3125 3.0625 7 5 C4.36 4.34 1.72 3.68 -1 3 C-0.67 2.01 -0.34 1.02 0 0 Z " fill="#181818" transform="translate(284,234)"/>
<path d="M0 0 C1.32 0.33 2.64 0.66 4 1 C4 1.66 4 2.32 4 3 C4.33 3.66 4.66 4.32 5 5 C2.69 5 0.38 5 -2 5 C-1.34 3.35 -0.68 1.7 0 0 Z " fill="#272727" transform="translate(270,226)"/>
<path d="M0 0 C0 1.32 0 2.64 0 4 C-1.98 4.33 -3.96 4.66 -6 5 C-6.33 4.01 -6.66 3.02 -7 2 C-2.25 0 -2.25 0 0 0 Z " fill="#2F2F2F" transform="translate(265,194)"/>
<path d="M0 0 C0 1.98 0 3.96 0 6 C-3.16115776 4.63016497 -3.9927092 4.0109362 -6 1 C-4 0 -4 0 0 0 Z " fill="#313131" transform="translate(359,190)"/>
<path d="M0 0 C0.99 0 1.98 0 3 0 C3 1.98 3 3.96 3 6 C1.35 6 -0.3 6 -2 6 C-1.34 5.67 -0.68 5.34 0 5 C0 3.35 0 1.7 0 0 Z " fill="#484848" transform="translate(369,435)"/>
<path d="M0 0 C0.99 0.33 1.98 0.66 3 1 C2.2884375 1.6496875 2.2884375 1.6496875 1.5625 2.3125 C-0.23686957 4.02309613 -0.23686957 4.02309613 -1 7 C-1.99 6.67 -2.98 6.34 -4 6 C-2.84826645 3.53199953 -1.95216435 1.95216435 0 0 Z " fill="#2C2C2C" transform="translate(356,417)"/>
<path d="M0 0 C0.99 0.33 1.98 0.66 3 1 C1.37660195 2.70884005 -0.29319053 4.37446717 -2 6 C-2.66 6 -3.32 6 -4 6 C-4 5.01 -4 4.02 -4 3 C-3.34 3 -2.68 3 -2 3 C-2 2.34 -2 1.68 -2 1 C-1.34 0.67 -0.68 0.34 0 0 Z " fill="#292929" transform="translate(337,258)"/>
<path d="M0 0 C0.33 0 0.66 0 1 0 C1.3125 2.75 1.3125 2.75 1 6 C-1.5 8.375 -1.5 8.375 -4 10 C-3.29445932 6.33118845 -1.72264494 3.29549466 0 0 Z " fill="#7A7A7A" transform="translate(318,245)"/>
<path d="M0 0 C2.97 0.495 2.97 0.495 6 1 C6 1.99 6 2.98 6 4 C6.66 4.33 7.32 4.66 8 5 C4.33776842 4.50510384 2.33006074 3.94323463 0 1 C0 0.67 0 0.34 0 0 Z " fill="#3F3F3F" transform="translate(244,225)"/>
<path d="M0 0 C0.66 0 1.32 0 2 0 C1.75 2.375 1.75 2.375 1 5 C-1.0625 6.3125 -1.0625 6.3125 -3 7 C-2.25 2.25 -2.25 2.25 0 0 Z " fill="#2F2F2F" transform="translate(290,207)"/>
<path d="M0 0 C1.32 1.32 2.64 2.64 4 4 C3.01 5.485 3.01 5.485 2 7 C-0.475 6.01 -0.475 6.01 -3 5 C-2.01 4.67 -1.02 4.34 0 4 C0 2.68 0 1.36 0 0 Z " fill="#3F3F3F" transform="translate(248,370)"/>
<path d="M0 0 C1.65 0 3.3 0 5 0 C5.33 1.32 5.66 2.64 6 4 C3.69 3.67 1.38 3.34 -1 3 C-0.67 2.01 -0.34 1.02 0 0 Z " fill="#2B2B2B" transform="translate(233,313)"/>
<path d="M0 0 C0.33 0 0.66 0 1 0 C1.36458333 4.49652778 1.36458333 4.49652778 -0.3125 6.8125 C-2 8 -2 8 -5 8 C-5 7.01 -5 6.02 -5 5 C-3.70264493 3.95374591 -2.36733028 2.95298777 -1 2 C-0.67 1.34 -0.34 0.68 0 0 Z " fill="#C6C6C6" transform="translate(360,236)"/>
<path d="M0 0 C-0.66 0 -1.32 0 -2 0 C-2 0.66 -2 1.32 -2 2 C-4.70879335 3.35439668 -7.00933268 3.06501451 -10 3 C-6.81859267 -0.48439851 -4.56758339 -1.41752588 0 0 Z " fill="#151515" transform="translate(292,244)"/>
<path d="M0 0 C1.5625 1.1875 1.5625 1.1875 3 3 C2.8125 5.625 2.8125 5.625 2 8 C1.01 8.495 1.01 8.495 0 9 C-0.33 8.01 -0.66 7.02 -1 6 C-0.34 5.01 0.32 4.02 1 3 C0.34 2.67 -0.32 2.34 -1 2 C-0.67 1.34 -0.34 0.68 0 0 Z " fill="#272727" transform="translate(278,220)"/>
<path d="M0 0 C1.32 0.66 2.64 1.32 4 2 C3.67 2.66 3.34 3.32 3 4 C2.34 3.67 1.68 3.34 1 3 C0.67 3.99 0.34 4.98 0 6 C-0.66 4.68 -1.32 3.36 -2 2 C-1.34 1.34 -0.68 0.68 0 0 Z " fill="#3D3D3D" transform="translate(267,184)"/>
<path d="M0 0 C0.66 1.32 1.32 2.64 2 4 C-0.875 4.625 -0.875 4.625 -4 5 C-4.66 4.34 -5.32 3.68 -6 3 C-3.375 0 -3.375 0 0 0 Z " fill="#E2E2E2" transform="translate(290,178)"/>
<path d="M0 0 C2.49361571 1.20381448 4.68143083 2.45428722 7 4 C4.03 4 1.06 4 -2 4 C-1.34 3.67 -0.68 3.34 0 3 C0 2.01 0 1.02 0 0 Z " fill="#232323" transform="translate(293,437)"/>
<path d="M0 0 C0.33 1.65 0.66 3.3 1 5 C-1.97 4.505 -1.97 4.505 -5 4 C-5 3.01 -5 2.02 -5 1 C-2 0 -2 0 0 0 Z " fill="#464646" transform="translate(358,232)"/>
<path d="M0 0 C2.475 0.99 2.475 0.99 5 2 C4.67 2.99 4.34 3.98 4 5 C2.35 4.67 0.7 4.34 -1 4 C-0.67 2.68 -0.34 1.36 0 0 Z " fill="#2F2F2F" transform="translate(324,220)"/>
<path d="M0 0 C1.4540625 0.0309375 1.4540625 0.0309375 2.9375 0.0625 C2.2775 1.7125 1.6175 3.3625 0.9375 5.0625 C0.2775 5.0625 -0.3825 5.0625 -1.0625 5.0625 C-1.0625 4.0725 -1.0625 3.0825 -1.0625 2.0625 C-2.0525 1.7325 -3.0425 1.4025 -4.0625 1.0625 C-3.0625 0.0625 -3.0625 0.0625 0 0 Z " fill="#2F2F2F" transform="translate(250.0625,211.9375)"/>
<path d="M0 0 C0.66 0 1.32 0 2 0 C1.67 1.65 1.34 3.3 1 5 C-0.65 4.67 -2.3 4.34 -4 4 C-3.34 3.01 -2.68 2.02 -2 1 C-1.34 1.33 -0.68 1.66 0 2 C0 1.34 0 0.68 0 0 Z " fill="#272727" transform="translate(363,193)"/>
<path d="M0 0 C0.99 0.66 1.98 1.32 3 2 C2.34 2 1.68 2 1 2 C1 2.66 1 3.32 1 4 C1.66 4 2.32 4 3 4 C3 4.66 3 5.32 3 6 C1.68 6.33 0.36 6.66 -1 7 C-1.33 6.34 -1.66 5.68 -2 5 C-1.0625 2.375 -1.0625 2.375 0 0 Z " fill="#131313" transform="translate(360,189)"/>
<path d="M0 0 C1.65 1.65 3.3 3.3 5 5 C4.67 5.66 4.34 6.32 4 7 C3.01 7 2.02 7 1 7 C-0.6875 5 -0.6875 5 -2 3 C-1.34 2.67 -0.68 2.34 0 2 C0 1.34 0 0.68 0 0 Z " fill="#767676" transform="translate(285,173)"/>
<path d="M0 0 C2 3 2 3 1.625 5.1875 C1.41875 5.785625 1.2125 6.38375 1 7 C0.34 7 -0.32 7 -1 7 C-1.33 7.66 -1.66 8.32 -2 9 C-2.33 7.68 -2.66 6.36 -3 5 C-2.01 5 -1.02 5 0 5 C0 3.35 0 1.7 0 0 Z " fill="#3D3D3D" transform="translate(244,362)"/>
<path d="M0 0 C0.99 0.66 1.98 1.32 3 2 C-0.4352048 4.29013653 -1.985331 4.17842973 -6 4 C-4.04783565 2.04783565 -2.46800047 1.15173355 0 0 Z " fill="#272727" transform="translate(283,261)"/>
<path d="M0 0 C0 1.65 0 3.3 0 5 C-0.99 5.33 -1.98 5.66 -3 6 C-3.33 4.35 -3.66 2.7 -4 1 C-2 0 -2 0 0 0 Z " fill="#202020" transform="translate(349,221)"/>
</svg>
