<?xml version="1.0" encoding="UTF-8"?>
<svg version="1.1" xmlns="http://www.w3.org/2000/svg" width="360" height="360">
<path d="M0 0 C118.8 0 237.6 0 360 0 C360 118.8 360 237.6 360 360 C241.2 360 122.4 360 0 360 C0 241.2 0 122.4 0 0 Z " fill="#F9F9F9" transform="translate(0,0)"/>
<path d="M0 0 C7.1055573 2.84869126 11.34661418 13.0926183 14.90087891 19.32226562 C15.93359762 21.12822724 16.98273741 22.9239409 18.03344727 24.71948242 C18.68635742 25.85450195 19.33926758 26.98952148 20.01196289 28.15893555 C20.6074292 29.1931665 21.20289551 30.22739746 21.81640625 31.29296875 C22.2019165 32.11885498 22.58742676 32.94474121 22.98461914 33.7956543 C22.65461914 34.4556543 22.32461914 35.1156543 21.98461914 35.7956543 C16.53961914 26.8856543 16.53961914 26.8856543 10.98461914 17.7956543 C10.98461914 21.54760913 12.14032672 23.12091084 14.04711914 26.33862305 C14.67875977 27.41176758 15.31040039 28.48491211 15.96118164 29.59057617 C16.62891602 30.71012695 17.29665039 31.82967773 17.98461914 32.9831543 C18.65235352 34.11430664 19.32008789 35.24545898 20.00805664 36.41088867 C21.66112855 39.20930327 23.32018137 42.00398995 24.98461914 44.7956543 C25.97461914 44.1356543 26.96461914 43.4756543 27.98461914 42.7956543 C28.42032227 43.38733398 28.85602539 43.97901367 29.30493164 44.58862305 C32.84822585 49.29000692 36.1961407 53.34349542 40.98461914 56.7956543 C41.64461914 56.7956543 42.30461914 56.7956543 42.98461914 56.7956543 C42.98461914 54.4856543 42.98461914 52.1756543 42.98461914 49.7956543 C46.28461914 49.1356543 49.58461914 48.4756543 52.98461914 47.7956543 C52.98461914 49.4456543 52.98461914 51.0956543 52.98461914 52.7956543 C53.97461914 53.2906543 53.97461914 53.2906543 54.98461914 53.7956543 C53.33461914 55.4456543 51.68461914 57.0956543 49.98461914 58.7956543 C48.66461914 58.1356543 47.34461914 57.4756543 45.98461914 56.7956543 C45.32461914 57.7856543 44.66461914 58.7756543 43.98461914 59.7956543 C44.61122437 60.36896484 44.61122437 60.36896484 45.25048828 60.95385742 C69.99393624 83.65213837 69.99393624 83.65213837 71.22290039 94.99487305 C71.40702333 101.16783701 70.62344744 105.71303283 66.98461914 110.7956543 C62.75569407 114.81829034 59.19389019 116.23316984 53.30102539 116.13549805 C46.54515731 115.14433359 40.36495699 111.31099784 36.28149414 105.88549805 C29.78090039 95.41014366 27.92109523 83.4054877 25.53930664 71.48925781 C24.86159333 68.19823188 24.09565878 64.9311549 23.30419922 61.66577148 C22.88118654 59.19038791 23.21830766 57.1712199 23.98461914 54.7956543 C23.32461914 54.7956543 22.66461914 54.7956543 21.98461914 54.7956543 C21.62335938 54.14306641 21.26209961 53.49047852 20.88989258 52.81811523 C19.17503279 49.72530116 17.45539387 46.63518139 15.73461914 43.5456543 C15.10724854 42.41716064 14.47987793 41.28866699 13.83349609 40.12597656 C10.78746073 34.67870945 7.7036514 29.27172008 4.41821289 23.96362305 C3.59595215 22.63282715 3.59595215 22.63282715 2.75708008 21.27514648 C1.72721868 19.62343409 0.68550084 17.97903461 -0.36987305 16.34350586 C-3.46375929 11.37919563 -4.71600871 7.65669577 -5.01538086 1.7956543 C-2.01538086 -0.2043457 -2.01538086 -0.2043457 0 0 Z " fill="#737375" transform="translate(167.015380859375,82.204345703125)"/>
<path d="M0 0 C1.32 0.33 2.64 0.66 4 1 C4.28773432 5.79077635 3.44169975 9.00617556 1.5 13.375 C1.0359375 14.43460938 0.571875 15.49421875 0.09375 16.5859375 C-0.44765625 17.78089844 -0.44765625 17.78089844 -1 19 C-0.34 18.67 0.32 18.34 1 18 C3.125 18.4375 3.125 18.4375 5 19 C4.51803103 24.06067421 2.80509468 26.83760144 0 31 C0 35.62475117 1.11930528 37.60187263 3.3125 41.625 C3.92738281 42.77226562 4.54226562 43.91953125 5.17578125 45.1015625 C6.84516667 48.1919643 6.84516667 48.1919643 10 50 C14.62268633 50.66369119 18.68004854 50.9336242 22.5625 48.1875 C25.29944133 44.02258928 25.50760778 39.85155901 25 35 C24.20426487 32.38239295 24.20426487 32.38239295 22 31 C19.20528714 30.38865656 16.78262993 30.29854537 14 31 C11.91783124 33.3549963 11.91783124 33.3549963 11 36 C9.515 35.505 9.515 35.505 8 35 C9.39521847 31.62822203 10.76282761 29.74982291 14 28 C18.99039002 27.45559382 22.00560122 27.91860666 26 31 C28.9768542 35.46528129 28.49133346 39.76422782 28 45 C26.73508874 48.19556529 25.51244916 49.53559295 23 51.8125 C18.32264452 53.66395321 13.94793679 53.90088485 9 53 C6.62266412 51.60203172 4.74784074 50.11403405 2.75390625 48.21484375 C1.04444598 46.73682826 1.04444598 46.73682826 -1.22265625 47.31640625 C-1.80917969 47.54199219 -2.39570313 47.76757812 -3 48 C-2.34 46.68 -1.68 45.36 -1 44 C-1.66 44 -2.32 44 -3 44 C-3.309375 44.61875 -3.61875 45.2375 -3.9375 45.875 C-4.625 47.25 -5.3125 48.625 -6 50 C-5.0409375 50.185625 -5.0409375 50.185625 -4.0625 50.375 C-3.381875 50.58125 -2.70125 50.7875 -2 51 C-0.57958179 53.84083641 -0.68547728 55.85477278 -1 59 C-2.5 61.375 -2.5 61.375 -5 63 C-8.85570922 63.5508156 -12.29036293 63.23654569 -16 62 C-16.66 63.32 -17.32 64.64 -18 66 C-21.34373475 65.44271087 -24.03312999 64.64826111 -27 63 C-27.33 63.99 -27.66 64.98 -28 66 C-30.4375 65.625 -30.4375 65.625 -33 65 C-33.33 64.34 -33.66 63.68 -34 63 C-34.66 63 -35.32 63 -36 63 C-36.33 63.99 -36.66 64.98 -37 66 C-37.763125 65.835 -38.52625 65.67 -39.3125 65.5 C-42.03596236 64.90854604 -42.03596236 64.90854604 -45 65 C-46.32 65 -47.64 65 -49 65 C-49 59.06 -49 53.12 -49 47 C-49.99 47 -50.98 47 -52 47 C-52 46.34 -52 45.68 -52 45 C-52.928125 44.62875 -53.85625 44.2575 -54.8125 43.875 C-58.66253193 41.61027533 -59.35223052 40.0951918 -61 36 C-62.35633785 25.79691797 -60.74630677 15.84127965 -54.6875 7.375 C-51.38344622 4.45513852 -49.37364158 4 -45 4 C-44.01 4.66 -43.02 5.32 -42 6 C-41.63671875 8.42578125 -41.63671875 8.42578125 -41.6875 11.3125 C-41.69136719 12.25738281 -41.69523437 13.20226562 -41.69921875 14.17578125 C-42.01152142 17.10818162 -42.77899221 19.32934949 -44 22 C-44.99 22 -45.98 22 -47 22 C-46.47731534 19.23723823 -45.89130413 16.6739124 -45 14 C-44.96045766 11.66700175 -44.95598268 9.33291811 -45 7 C-46.98 7 -48.96 7 -51 7 C-57.51674447 22.5258726 -57.51674447 22.5258726 -55.5 38.625 C-55.005 39.40875 -54.51 40.1925 -54 41 C-51.60343183 40.86932205 -51.60343183 40.86932205 -49 40 C-47.1360373 37.86720366 -47.1360373 37.86720366 -45.75 35.1875 C-45.24984375 34.31480469 -44.7496875 33.44210938 -44.234375 32.54296875 C-43.15860642 30.32674931 -42.4709657 28.40528913 -42 26 C-41.34 26 -40.68 26 -40 26 C-39.731875 25.236875 -39.46375 24.47375 -39.1875 23.6875 C-37.37362637 19.58241758 -37.37362637 19.58241758 -35 18 C-32.4375 18.125 -32.4375 18.125 -30 19 C-27.64880601 22.52679099 -27.78556548 24.02879485 -27.875 28.1875 C-27.89304688 29.27417969 -27.91109375 30.36085937 -27.9296875 31.48046875 C-27.95289063 32.31191406 -27.97609375 33.14335937 -28 34 C-25.86539589 31.21974527 -25.86539589 31.21974527 -25.5 28.375 C-25.335 27.59125 -25.17 26.8075 -25 26 C-24.34 25.67 -23.68 25.34 -23 25 C-21.98133771 23.34467377 -20.98189187 21.67739862 -20 20 C-19.34 19.34 -18.68 18.68 -18 18 C-14.70285207 18.32971479 -13.3773161 18.6226839 -11 21 C-10.8046875 24.0390625 -10.8046875 24.0390625 -10.875 27.625 C-10.89304688 28.81351563 -10.91109375 30.00203125 -10.9296875 31.2265625 C-10.95289063 32.14179688 -10.97609375 33.05703125 -11 34 C-8.91486377 30.87229565 -8.48827389 29.09419932 -7.8515625 25.44921875 C-7.65046875 24.35802734 -7.449375 23.26683594 -7.2421875 22.14257812 C-6.83299816 19.85189479 -6.42928814 17.56022544 -6.03125 15.26757812 C-4.91564759 9.26944999 -3.93793968 4.73390621 0 0 Z " fill="#F6F6F7" transform="translate(246,211)"/>
<path d="M0 0 C0.66 0.33 1.32 0.66 2 1 C1.45721437 7.47465714 0.2333844 13.20213364 -1.75 19.375 C-4.16804723 27.10138239 -6.33530552 34.8462653 -8.17480469 42.73193359 C-10.27247945 51.20616835 -14.8951423 57.01148289 -22 62 C-28.56881265 65.30769999 -35.37685114 66.14498546 -42.5078125 64.37890625 C-49.97552892 61.80973776 -55.45294634 57.46813651 -59.3828125 50.57421875 C-61.81440762 45.10738078 -62.78382292 39.96219402 -62 34 C-61.67 33.34 -61.34 32.68 -61 32 C-52.99001591 32.66921461 -45.3634674 34.87275605 -37.625 36.9375 C-34.90982195 37.65865899 -32.1937791 38.3764034 -29.4765625 39.08984375 C-28.82850647 39.26003021 -28.18045044 39.43021667 -27.51275635 39.6055603 C-22.37680451 40.93783576 -17.22131319 42.06078614 -12 43 C-11.90855713 42.38648682 -11.81711426 41.77297363 -11.72290039 41.14086914 C-10.45038764 33.38443194 -8.35968731 25.9607302 -6.05883789 18.46264648 C-5.42943004 16.41119734 -4.80875374 14.35725505 -4.18945312 12.30273438 C-1.16892064 2.33784128 -1.16892064 2.33784128 0 0 Z " fill="#35343A" transform="translate(184,132)"/>
<path d="M0 0 C0.05399736 1.45792884 0.09279177 2.91642712 0.125 4.375 C0.14820313 5.18710938 0.17140625 5.99921875 0.1953125 6.8359375 C0 9 0 9 -2 11 C-2 8.36 -2 5.72 -2 3 C-2.99 6.3 -3.98 9.6 -5 13 C-4.01 12.67 -3.02 12.34 -2 12 C-1.34 12.66 -0.68 13.32 0 14 C-0.6496875 14.556875 -0.6496875 14.556875 -1.3125 15.125 C-6.54142271 20.93491413 -6.3563701 26.58222238 -6 34 C-5.34 34 -4.68 34 -4 34 C-2.35 30.7 -0.7 27.4 1 24 C2 27 2 27 1 30 C2.32 30.33 3.64 30.66 5 31 C8.14717468 23.69530305 10.53170007 17.13745907 10.859375 9.14453125 C11 7 11 7 12 5 C12.99 5 13.98 5 15 5 C14.95359375 5.82242188 14.9071875 6.64484375 14.859375 7.4921875 C14.60772775 15.27527755 15.47954589 21.03767334 19 28 C19.99 27.01 20.98 26.02 22 25 C21.71125 25.845625 21.4225 26.69125 21.125 27.5625 C19.99227296 31.02361041 18.98175684 34.49372557 18 38 C18.99 38 19.98 38 21 38 C21.99 40.31 22.98 42.62 24 45 C23.34 45 22.68 45 22 45 C22 46.32 22 47.64 22 49 C22.99 49.495 22.99 49.495 24 50 C23.34 50 22.68 50 22 50 C22 52.64 22 55.28 22 58 C22.99 58.495 22.99 58.495 24 59 C22.02 59.495 22.02 59.495 20 60 C19.67 59.34 19.34 58.68 19 58 C17.68 58.66 16.36 59.32 15 60 C14.01 59.01 13.02 58.02 12 57 C11.608125 57.515625 11.21625 58.03125 10.8125 58.5625 C9.9153125 59.2740625 9.9153125 59.2740625 9 60 C6.375 59.625 6.375 59.625 4 59 C3.67 59.33 3.34 59.66 3 60 C1.00045254 60.04254356 -1.00041636 60.04080783 -3 60 C-4.64701961 60 -6.29382535 60.0825846 -7.9375 60.1875 C-11 60 -11 60 -12.875 58.875 C-14.53577671 56.10703881 -14.38805206 54.16909182 -14 51 C-12.75 49 -12.75 49 -11 47 C-8.62772382 44.15031532 -8.62772382 44.15031532 -7 41 C-7.68931667 38.44288628 -7.68931667 38.44288628 -9 36 C-9.125 32.6875 -9.125 32.6875 -9 30 C-9.66 30 -10.32 30 -11 30 C-11.268125 30.763125 -11.53625 31.52625 -11.8125 32.3125 C-13.6612529 36.49651972 -13.6612529 36.49651972 -16 38 C-19.0625 37.875 -19.0625 37.875 -22 37 C-24.9896111 32.51558336 -24.59542649 28.25840503 -24 23 C-22.57168338 18.68690597 -20.54411512 14.92027853 -17 12 C-14.3125 12.3125 -14.3125 12.3125 -12 13 C-12.25446825 17.32596028 -12.6119335 19.52002301 -15.375 22.9375 C-18 25 -18 25 -21 25 C-20.67 27.64 -20.34 30.28 -20 33 C-18.35 33.33 -16.7 33.66 -15 34 C-10.30626074 27.14125185 -9.15356809 21.25079473 -9 13 C-8.34 13 -7.68 13 -7 13 C-6.96261719 12.39671875 -6.92523438 11.7934375 -6.88671875 11.171875 C-5.96774194 0 -5.96774194 0 0 0 Z M-9 48 C-9.66 49.65 -10.32 51.3 -11 53 C-9.3603125 53.680625 -9.3603125 53.680625 -7.6875 54.375 C-5.17862235 55.41642091 -3.30282933 56.46478044 -1 58 C-1 55.69 -1 53.38 -1 51 C-2.32 51 -3.64 51 -5 51 C-5.33 50.01 -5.66 49.02 -6 48 C-6.99 48 -7.98 48 -9 48 Z " fill="#F2F2F3" transform="translate(154,217)"/>
<path d="M0 0 C3.5 0.875 3.5 0.875 5.19140625 2.61328125 C8.02205993 7.50566478 7.04270287 13.38675855 5.87890625 18.72265625 C3.09045227 27.53417082 -2.25936283 34.53067727 -10.5 38.875 C-11.16 38.875 -11.82 38.875 -12.5 38.875 C-12.603125 39.865 -12.70625 40.855 -12.8125 41.875 C-13.40808706 46.15797163 -14.88595027 49.87496371 -16.5 53.875 C-8.99783264 56.9267291 -2.55364285 57.21108711 5.5 56.875 C5.5 55.885 5.5 54.895 5.5 53.875 C6.49 53.875 7.48 53.875 8.5 53.875 C8.15557106 56.37210982 7.65296001 57.69654665 6 59.625 C2.13853135 61.55573433 -1.3350069 61.57217056 -5.5 60.875 C-8.90360219 59.56995017 -12.19586972 58.15088839 -15.484375 56.578125 C-16.47953125 56.34609375 -17.4746875 56.1140625 -18.5 55.875 C-21.25446092 57.59104518 -21.25446092 57.59104518 -23.5 59.875 C-27.05353929 61.0595131 -29.77013478 61.14141894 -33.5 60.875 C-35.5 59.6875 -35.5 59.6875 -36.5 57.875 C-36.375 55.3125 -36.375 55.3125 -35.5 52.875 C-31.86804504 50.45369669 -30.11650652 50.66477215 -25.8125 50.75 C-24.63300781 50.76804687 -23.45351562 50.78609375 -22.23828125 50.8046875 C-21.33464844 50.82789063 -20.43101563 50.85109375 -19.5 50.875 C-18.51 47.905 -17.52 44.935 -16.5 41.875 C-17.4178125 41.86082031 -18.335625 41.84664062 -19.28125 41.83203125 C-28.38291048 41.47829024 -33.80777497 40.26450083 -40.4375 34.0625 C-42.8293551 29.13809243 -42.90616835 25.22889449 -41.375 20.125 C-39.32960818 16.57965417 -38.06016623 14.88726787 -34.5 12.875 C-26.8622142 11.1938929 -26.8622142 11.1938929 -23.5 12.875 C-23.5 13.865 -23.5 14.855 -23.5 15.875 C-24.09167969 15.81699219 -24.68335937 15.75898438 -25.29296875 15.69921875 C-30.84224859 15.37075115 -30.84224859 15.37075115 -35.5 18.3125 C-36.16 19.158125 -36.82 20.00375 -37.5 20.875 C-37.83 21.205 -38.16 21.535 -38.5 21.875 C-38.90902941 27.09012497 -38.39554549 30.48175857 -35.5 34.875 C-31.378144 38.0952 -27.731046 38.25072803 -22.6875 38.0625 C-21.99462891 38.04896484 -21.30175781 38.03542969 -20.58789062 38.02148438 C-18.89158735 37.98638845 -17.19568864 37.93258943 -15.5 37.875 C-15.40501221 37.13975098 -15.31002441 36.40450195 -15.2121582 35.64697266 C-14.76409599 32.26190918 -14.28850029 28.88124347 -13.8125 25.5 C-13.66361328 24.34371094 -13.51472656 23.18742187 -13.36132812 21.99609375 C-12.30260378 14.64730121 -10.75431572 8.07944248 -6.5 1.875 C-3.5 -0.125 -3.5 -0.125 0 0 Z " fill="#49484C" transform="translate(127.5,206.125)"/>
<path d="M0 0 C1.32 0.33 2.64 0.66 4 1 C4.28773432 5.79077635 3.44169975 9.00617556 1.5 13.375 C0.80390625 14.96441406 0.80390625 14.96441406 0.09375 16.5859375 C-0.2671875 17.38257813 -0.628125 18.17921875 -1 19 C-0.34 18.67 0.32 18.34 1 18 C3.125 18.4375 3.125 18.4375 5 19 C4.51803103 24.06067421 2.80509468 26.83760144 0 31 C0 35.62475117 1.11930528 37.60187263 3.3125 41.625 C3.92738281 42.77226562 4.54226562 43.91953125 5.17578125 45.1015625 C6.84516667 48.1919643 6.84516667 48.1919643 10 50 C14.62268633 50.66369119 18.68004854 50.9336242 22.5625 48.1875 C25.29944133 44.02258928 25.50760778 39.85155901 25 35 C24.20426487 32.38239295 24.20426487 32.38239295 22 31 C19.20528714 30.38865656 16.78262993 30.29854537 14 31 C11.91783124 33.3549963 11.91783124 33.3549963 11 36 C10.01 35.67 9.02 35.34 8 35 C9.39521847 31.62822203 10.76282761 29.74982291 14 28 C18.99039002 27.45559382 22.00560122 27.91860666 26 31 C28.9768542 35.46528129 28.49133346 39.76422782 28 45 C26.73508874 48.19556529 25.51244916 49.53559295 23 51.8125 C18.30062921 53.6726676 13.97290564 53.83716541 9 53 C2.52238519 50.08691706 0.02523676 43.66717119 -2.73828125 37.51171875 C-3.74827673 34.87648357 -3.74827673 34.87648357 -6 34 C-6.33 36.97 -6.66 39.94 -7 43 C-7.99 43 -8.98 43 -10 43 C-10 40.69 -10 38.38 -10 36 C-10.61875 36.66 -11.2375 37.32 -11.875 38 C-14 40 -14 40 -16 40 C-15.54177532 36.53058454 -15.10868317 33.32604951 -14 30 C-13.93259135 28.43881572 -13.91485544 26.8749748 -13.9375 25.3125 C-13.94652344 24.50425781 -13.95554688 23.69601563 -13.96484375 22.86328125 C-13.97644531 22.24839844 -13.98804688 21.63351563 -14 21 C-16.47266765 21.34444881 -16.47266765 21.34444881 -19 22 C-20.14814997 24.29629994 -20.30769809 26.07698086 -20.5625 28.625 C-20.64628906 29.44226563 -20.73007813 30.25953125 -20.81640625 31.1015625 C-20.87699219 31.72804687 -20.93757812 32.35453125 -21 33 C-21.33 32.34 -21.66 31.68 -22 31 C-22.66 31 -23.32 31 -24 31 C-24 33.97 -24 36.94 -24 40 C-24.33 40 -24.66 40 -25 40 C-25 38.02 -25 36.04 -25 34 C-25.66 33.67 -26.32 33.34 -27 33 C-26.40138258 30.64828869 -25.73075648 28.3140622 -25 26 C-24.34 25.67 -23.68 25.34 -23 25 C-21.98133771 23.34467377 -20.98189187 21.67739862 -20 20 C-19.34 19.34 -18.68 18.68 -18 18 C-14.70285207 18.32971479 -13.3773161 18.6226839 -11 21 C-10.8046875 24.0390625 -10.8046875 24.0390625 -10.875 27.625 C-10.89304688 28.81351563 -10.91109375 30.00203125 -10.9296875 31.2265625 C-10.95289063 32.14179688 -10.97609375 33.05703125 -11 34 C-8.91486377 30.87229565 -8.48827389 29.09419932 -7.8515625 25.44921875 C-7.65046875 24.35802734 -7.449375 23.26683594 -7.2421875 22.14257812 C-6.83299816 19.85189479 -6.42928814 17.56022544 -6.03125 15.26757812 C-4.91564759 9.26944999 -3.93793968 4.73390621 0 0 Z " fill="#3F3E42" transform="translate(246,211)"/>
<path d="M0 0 C7.1055573 2.84869126 11.34661418 13.0926183 14.90087891 19.32226562 C15.93359762 21.12822724 16.98273741 22.9239409 18.03344727 24.71948242 C18.68635742 25.85450195 19.33926758 26.98952148 20.01196289 28.15893555 C20.6074292 29.1931665 21.20289551 30.22739746 21.81640625 31.29296875 C22.2019165 32.11885498 22.58742676 32.94474121 22.98461914 33.7956543 C22.65461914 34.4556543 22.32461914 35.1156543 21.98461914 35.7956543 C16.53961914 26.8856543 16.53961914 26.8856543 10.98461914 17.7956543 C10.98461914 21.54760913 12.14032672 23.12091084 14.04711914 26.33862305 C14.67875977 27.41176758 15.31040039 28.48491211 15.96118164 29.59057617 C16.62891602 30.71012695 17.29665039 31.82967773 17.98461914 32.9831543 C18.65235352 34.11430664 19.32008789 35.24545898 20.00805664 36.41088867 C21.66112855 39.20930327 23.32018137 42.00398995 24.98461914 44.7956543 C25.97461914 44.1356543 26.96461914 43.4756543 27.98461914 42.7956543 C28.31461914 43.7856543 28.64461914 44.7756543 28.98461914 45.7956543 C26.50961914 46.2906543 26.50961914 46.2906543 23.98461914 46.7956543 C24.41395752 47.65843994 24.8432959 48.52122559 25.28564453 49.41015625 C26.87412817 52.60887507 28.44951303 55.81389554 30.02099609 59.02099609 C30.70330228 60.40882278 31.38916065 61.79490889 32.07861328 63.17919922 C33.06837402 65.16798411 34.04523903 67.16265536 35.01977539 69.15893555 C35.33116959 69.77779129 35.64256378 70.39664703 35.96339417 71.03425598 C38.09849085 75.45403918 38.09849085 75.45403918 36.98461914 78.7956543 C35.33461914 75.4956543 33.68461914 72.1956543 31.98461914 68.7956543 C32.33524414 70.0331543 32.68586914 71.2706543 33.04711914 72.5456543 C34.03993413 76.04970721 33.9334685 77.00025685 32.98461914 80.7956543 C30.01461914 72.2156543 27.04461914 63.6356543 23.98461914 54.7956543 C23.32461914 54.7956543 22.66461914 54.7956543 21.98461914 54.7956543 C21.62335938 54.14306641 21.26209961 53.49047852 20.88989258 52.81811523 C19.17503279 49.72530116 17.45539387 46.63518139 15.73461914 43.5456543 C15.10724854 42.41716064 14.47987793 41.28866699 13.83349609 40.12597656 C10.78746073 34.67870945 7.7036514 29.27172008 4.41821289 23.96362305 C3.59595215 22.63282715 3.59595215 22.63282715 2.75708008 21.27514648 C1.72721868 19.62343409 0.68550084 17.97903461 -0.36987305 16.34350586 C-3.46375929 11.37919563 -4.71600871 7.65669577 -5.01538086 1.7956543 C-2.01538086 -0.2043457 -2.01538086 -0.2043457 0 0 Z " fill="#A6A6A8" transform="translate(167.015380859375,82.204345703125)"/>
<path d="M0 0 C0.33 0.66 0.66 1.32 1 2 C1.66 2 2.32 2 3 2 C5.31 8.93 7.62 15.86 10 23 C9.34 19.37 8.68 15.74 8 12 C10.82413009 14.82413009 12.00941008 16.69293744 13.69921875 20.21875 C14.18583984 21.23324219 14.67246094 22.24773437 15.17382812 23.29296875 C15.67333984 24.35128906 16.17285156 25.40960938 16.6875 26.5 C17.19861328 27.55832031 17.70972656 28.61664063 18.23632812 29.70703125 C22 37.61626961 22 37.61626961 22 41 C20.515 41.495 20.515 41.495 19 42 C17.68 40.02 16.36 38.04 15 36 C19.92703669 45.661884 24.12704842 53.06352421 34 58 C34 58.33 34 58.66 34 59 C27.07317494 58.4962309 20.54757432 57.25863162 15.2734375 52.4140625 C7.40007522 42.84489912 4.98866603 29.77120079 2.6875 17.9375 C2.42388672 16.64650391 2.16027344 15.35550781 1.88867188 14.02539062 C0 4.6114651 0 4.6114651 0 0 Z " fill="#A2A2A3" transform="translate(190,138)"/>
<path d="M0 0 C0.66 0 1.32 0 2 0 C3.26953125 1.7734375 3.26953125 1.7734375 4.8125 4.375 C8.07607597 9.67151184 11.62849574 14.67597002 15.3125 19.6875 C38.26204554 51.11158664 38.26204554 51.11158664 38 65 C18.69754407 56.30971681 7.80504778 18.35892447 0 0 Z " fill="#F6F6F6" transform="translate(191,130)"/>
<path d="M0 0 C0.36263859 5.8022175 -0.74315457 9.63999211 -3 15 C-2.01 15.33 -1.02 15.66 0 16 C0.33 16.33 0.66 16.66 1 17 C1.99 17.66 2.98 18.32 4 19 C3.34 19 2.68 19 2 19 C1.95875 19.804375 1.9175 20.60875 1.875 21.4375 C0.68842171 26.26856876 -1.55550103 30.38022785 -5 34 C-7.703125 34.76171875 -7.703125 34.76171875 -10 35 C-14.32627313 29.54513388 -14.66073945 24.77704377 -14 18 C-12.50087775 11.59533417 -10.74286818 5.47185715 -7 0 C-4.3333581 -1.33332095 -2.83319697 -0.67102033 0 0 Z " fill="#F3F3F3" transform="translate(202,218)"/>
<path d="M0 0 C0.05399736 1.45792884 0.09279177 2.91642712 0.125 4.375 C0.14820313 5.18710938 0.17140625 5.99921875 0.1953125 6.8359375 C0 9 0 9 -2 11 C-2 8.36 -2 5.72 -2 3 C-2.99 6.3 -3.98 9.6 -5 13 C-4.01 12.67 -3.02 12.34 -2 12 C-1.34 12.66 -0.68 13.32 0 14 C-0.6496875 14.556875 -0.6496875 14.556875 -1.3125 15.125 C-6.54142271 20.93491413 -6.3563701 26.58222238 -6 34 C-5.34 34 -4.68 34 -4 34 C-2.35 30.7 -0.7 27.4 1 24 C2 27 2 27 1.328125 28.9375 C0.97234375 29.618125 0.6165625 30.29875 0.25 31 C-0.09546875 31.680625 -0.4409375 32.36125 -0.796875 33.0625 C-2.03689448 35.05941449 -3.17094504 36.52197579 -5 38 C-5.99 38 -6.98 38 -8 38 C-9.35439668 35.29120665 -9.06501451 32.99066732 -9 30 C-9.66 30 -10.32 30 -11 30 C-11.268125 30.763125 -11.53625 31.52625 -11.8125 32.3125 C-13.6612529 36.49651972 -13.6612529 36.49651972 -16 38 C-19.0625 37.875 -19.0625 37.875 -22 37 C-24.9896111 32.51558336 -24.59542649 28.25840503 -24 23 C-22.57168338 18.68690597 -20.54411512 14.92027853 -17 12 C-14.3125 12.3125 -14.3125 12.3125 -12 13 C-12.25446825 17.32596028 -12.6119335 19.52002301 -15.375 22.9375 C-18 25 -18 25 -21 25 C-20.67 27.64 -20.34 30.28 -20 33 C-18.35 33.33 -16.7 33.66 -15 34 C-10.30626074 27.14125185 -9.15356809 21.25079473 -9 13 C-8.34 13 -7.68 13 -7 13 C-6.96261719 12.39671875 -6.92523438 11.7934375 -6.88671875 11.171875 C-5.96774194 0 -5.96774194 0 0 0 Z " fill="#434347" transform="translate(154,217)"/>
<path d="M0 0 C0.33 0 0.66 0 1 0 C0.8453125 1.6396875 0.8453125 1.6396875 0.6875 3.3125 C0.790625 4.529375 0.89375 5.74625 1 7 C3.39740918 8.95578117 4.87586608 10 8 10 C8.33 9.01 8.66 8.02 9 7 C12 8 12 8 13 10 C12.6546321 17.252726 10.69683642 23.2892675 8 30 C6.02 29.67 4.04 29.34 2 29 C2 28.01 2 27.02 2 26 C0.68 28.31 -0.64 30.62 -2 33 C-2.99 32.67 -3.98 32.34 -5 32 C-5.71404789 23.65357353 -4.3449235 18.15360619 0 11 C-0.99 11 -1.98 11 -3 11 C-2.69217504 9.35328588 -2.37860766 7.70764424 -2.0625 6.0625 C-1.88847656 5.14597656 -1.71445313 4.22945312 -1.53515625 3.28515625 C-1 1 -1 1 0 0 Z " fill="#F4F4F5" transform="translate(152,219)"/>
<path d="M0 0 C2.4375 0.375 2.4375 0.375 5 1 C7.30828404 5.61656809 6.56337322 11.80123479 5.31640625 16.66796875 C3.21637551 22.28838296 0.36812368 27.80660126 -4 32 C-6.69140625 33.21875 -6.69140625 33.21875 -9 34 C-6.4211165 6.4211165 -6.4211165 6.4211165 0 0 Z " fill="#F3F3F3" transform="translate(125,208)"/>
<path d="M0 0 C1.71216126 1.71216126 1.17191224 3.91807056 1.1875 6.25 C1.20167969 7.20390625 1.21585938 8.1578125 1.23046875 9.140625 C0.9897641 12.12699459 0.249438 14.29370741 -1 17 C-1.99 17 -2.98 17 -4 17 C-3.47731534 14.23723823 -2.89130413 11.6739124 -2 9 C-1.96045766 6.66700175 -1.95598268 4.33291811 -2 2 C-3.98 2 -5.96 2 -8 2 C-14.51674447 17.5258726 -14.51674447 17.5258726 -12.5 33.625 C-12.005 34.40875 -11.51 35.1925 -11 36 C-8.60343183 35.86932205 -8.60343183 35.86932205 -6 35 C-4.1360373 32.86720366 -4.1360373 32.86720366 -2.75 30.1875 C-2.24984375 29.31480469 -1.7496875 28.44210938 -1.234375 27.54296875 C-0.15860642 25.32674931 0.5290343 23.40528913 1 21 C1.66 21 2.32 21 3 21 C3.268125 20.236875 3.53625 19.47375 3.8125 18.6875 C5.62637363 14.58241758 5.62637363 14.58241758 8 13 C10.5625 13.125 10.5625 13.125 13 14 C15.13586678 17.20380017 15.23132175 18.01939967 15.125 21.6875 C15.10695312 22.49574219 15.08890625 23.30398437 15.0703125 24.13671875 C15.04710937 24.75160156 15.02390625 25.36648437 15 26 C14.01 26.33 13.02 26.66 12 27 C11.67 23.37 11.34 19.74 11 16 C9.68 16.33 8.36 16.66 7 17 C5.86929556 18.84727567 5.86929556 18.84727567 5.25 21.0625 C5.00765625 21.79597656 4.7653125 22.52945313 4.515625 23.28515625 C4.34546875 23.85105469 4.1753125 24.41695312 4 25 C3.34 25 2.68 25 2 25 C2 28.63 2 32.26 2 36 C0 35 0 35 -1 32 C-1.70125 32.969375 -2.4025 33.93875 -3.125 34.9375 C-5.12059517 37.30515529 -6.01004189 38.00397492 -9 39.1875 C-12 39 -12 39 -14.8125 36.75 C-19.3878944 30.99807561 -18.53161211 24.02909352 -18 17 C-16.45796935 10.22847412 -13.91001766 4.91001766 -9 0 C-5.90842747 -1.54578627 -3.31526981 -0.60277633 0 0 Z " fill="#37373B" transform="translate(203,216)"/>
<path d="M0 0 C9.03286371 7.97017386 13.14548543 18.19420657 14 30 C14 30.99 14 31.98 14 33 C9.60726552 37.03656682 6.20395763 38.33415932 0.20703125 38.30078125 C-3.60473379 37.78130177 -6.73096387 35.94751089 -10 34 C-9.01 33.505 -9.01 33.505 -8 33 C-5.65794699 33.97940398 -3.32481174 34.98034573 -1 36 C-0.01 36 0.98 36 2 36 C1.25556641 35.52433594 1.25556641 35.52433594 0.49609375 35.0390625 C-7.00214804 29.88846757 -12.67703469 22.5150986 -16 14 C-15.67 13.01 -15.34 12.02 -15 11 C-13.68 13.64 -12.36 16.28 -11 19 C-10.01 19 -9.02 19 -8 19 C-8.51691406 17.95199219 -9.03382813 16.90398437 -9.56640625 15.82421875 C-10.232288 14.44556217 -10.89762435 13.06664207 -11.5625 11.6875 C-11.90474609 10.99720703 -12.24699219 10.30691406 -12.59960938 9.59570312 C-15.11328125 4.33984375 -15.11328125 4.33984375 -14 1 C-13.70867187 1.58378418 -13.41734375 2.16756836 -13.1171875 2.76904297 C-4.62021375 20.83525132 -4.62021375 20.83525132 9 35 C8.71682074 33.39431334 8.42312209 31.79047953 8.125 30.1875 C7.96257812 29.29417969 7.80015625 28.40085938 7.6328125 27.48046875 C7.08811551 24.77272154 7.08811551 24.77272154 5 22 C5.33 20.68 5.66 19.36 6 18 C7.65 21.63 9.3 25.26 11 29 C11.99050626 20.28354495 7.90219477 12.17516016 2.6875 5.375 C2.17574219 4.76398438 1.66398437 4.15296875 1.13671875 3.5234375 C0 2 0 2 0 0 Z " fill="#A7A7A8" transform="translate(220,160)"/>
<path d="M0 0 C1.11375 0.495 2.2275 0.99 3.375 1.5 C3.375 3.15 3.375 4.8 3.375 6.5 C0.5057638 7.31978177 -1.07216699 7.73034709 -3.875 6.5625 C-8.50064567 4.77531872 -13.05341981 4.52080311 -17.73828125 6.3046875 C-27.82922374 11.98696579 -32.30255811 22.25597106 -36.625 32.5 C-37.285 32.5 -37.945 32.5 -38.625 32.5 C-39.40950541 30.21500506 -39.76373659 28.92773001 -39.00756836 26.59643555 C-38.66346924 25.949729 -38.31937012 25.30302246 -37.96484375 24.63671875 C-37.58263672 23.91419922 -37.20042969 23.19167969 -36.80664062 22.44726562 C-36.39607422 21.70154297 -35.98550781 20.95582031 -35.5625 20.1875 C-35.17900391 19.45337891 -34.79550781 18.71925781 -34.40039062 17.96289062 C-27.14977516 4.50087475 -15.96369004 -5.81775324 0 0 Z " fill="#3C3B40" transform="translate(230.625,84.5)"/>
<path d="M0 0 C2.11688496 4.23376992 2.19576939 4.76045398 1 9 C0.67 9.99 0.34 10.98 0 12 C7.50216736 15.0517291 13.94635715 15.33608711 22 15 C22 14.01 22 13.02 22 12 C22.99 12 23.98 12 25 12 C24.65557106 14.49710982 24.15296001 15.82154665 22.5 17.75 C18.63853135 19.68073433 15.1649931 19.69717056 11 19 C7.59639781 17.69495017 4.30413028 16.27588839 1.015625 14.703125 C-0.47710937 14.35507812 -0.47710937 14.35507812 -2 14 C-4.75446092 15.71604518 -4.75446092 15.71604518 -7 18 C-10.55353929 19.1845131 -13.27013478 19.26641894 -17 19 C-19 17.8125 -19 17.8125 -20 16 C-19.875 13.4375 -19.875 13.4375 -19 11 C-15.36804504 8.57869669 -13.61650652 8.78977215 -9.3125 8.875 C-8.13300781 8.89304687 -6.95351562 8.91109375 -5.73828125 8.9296875 C-4.38283203 8.96449219 -4.38283203 8.96449219 -3 9 C-2.01 6.03 -1.02 3.06 0 0 Z " fill="#515154" transform="translate(111,248)"/>
<path d="M0 0 C0.99 0 1.98 0 3 0 C2.93039063 1.23363281 2.93039063 1.23363281 2.859375 2.4921875 C2.60772775 10.27527755 3.47954589 16.03767334 7 23 C7.99 22.01 8.98 21.02 10 20 C8.70445748 25.31172433 6.34278359 29.62000334 2 33 C-1.25 33.0625 -1.25 33.0625 -4 32 C-4.66 31.34 -5.32 30.68 -6 30 C-6.33 30.66 -6.66 31.32 -7 32 C-7.66 31.67 -8.32 31.34 -9 31 C-8.57847656 29.95199219 -8.15695313 28.90398437 -7.72265625 27.82421875 C-7.16922506 26.44533087 -6.61584216 25.06642361 -6.0625 23.6875 C-5.78470703 22.99720703 -5.50691406 22.30691406 -5.22070312 21.59570312 C-2.84367462 15.6674513 -1.752223 10.82899851 -1.28125 4.49609375 C-1 2 -1 2 0 0 Z " fill="#5B5B5E" transform="translate(166,222)"/>
<path d="M0 0 C0.66 0 1.32 0 2 0 C1.47084065 3.43953578 0.8147479 6.80690422 0 10.1875 C-1.01271774 14.61345159 -1.43402769 18.99553444 -1.75390625 23.51953125 C-1.97779403 25.77617794 -2.38557186 27.82157297 -3 30 C-2.34 30.33 -1.68 30.66 -1 31 C-1.99 31 -2.98 31 -4 31 C-4.33 34.3 -4.66 37.6 -5 41 C-5.99 41 -6.98 41 -8 41 C-8 38.69 -8 36.38 -8 34 C-8.61875 34.66 -9.2375 35.32 -9.875 36 C-12 38 -12 38 -14 38 C-13.54177532 34.53058454 -13.10868317 31.32604951 -12 28 C-11.93259135 26.43881572 -11.91485544 24.8749748 -11.9375 23.3125 C-11.94652344 22.50425781 -11.95554688 21.69601563 -11.96484375 20.86328125 C-11.97644531 20.24839844 -11.98804688 19.63351563 -12 19 C-14.47266765 19.34444881 -14.47266765 19.34444881 -17 20 C-18.14814997 22.29629994 -18.30769809 24.07698086 -18.5625 26.625 C-18.64628906 27.44226563 -18.73007813 28.25953125 -18.81640625 29.1015625 C-18.87699219 29.72804687 -18.93757812 30.35453125 -19 31 C-19.33 30.34 -19.66 29.68 -20 29 C-20.66 29 -21.32 29 -22 29 C-22 31.97 -22 34.94 -22 38 C-22.33 38 -22.66 38 -23 38 C-23 36.02 -23 34.04 -23 32 C-23.66 31.67 -24.32 31.34 -25 31 C-24.40138258 28.64828869 -23.73075648 26.3140622 -23 24 C-22.34 23.67 -21.68 23.34 -21 23 C-19.98133771 21.34467377 -18.98189187 19.67739862 -18 18 C-17.34 17.34 -16.68 16.68 -16 16 C-12.70285207 16.32971479 -11.3773161 16.6226839 -9 19 C-8.8046875 22.0390625 -8.8046875 22.0390625 -8.875 25.625 C-8.89304688 26.81351563 -8.91109375 28.00203125 -8.9296875 29.2265625 C-8.95289063 30.14179688 -8.97609375 31.05703125 -9 32 C-6.91545103 28.87317654 -6.45570116 27.02216772 -5.78125 23.37890625 C-5.46607422 21.72858398 -5.46607422 21.72858398 -5.14453125 20.04492188 C-4.82548828 18.32112305 -4.82548828 18.32112305 -4.5 16.5625 C-4.0783454 14.29195388 -3.65147031 12.02236947 -3.21875 9.75390625 C-3.03248047 8.74658447 -2.84621094 7.7392627 -2.65429688 6.70141602 C-2.04798583 4.19812059 -1.25847499 2.2345913 0 0 Z " fill="#3D3C40" transform="translate(244,213)"/>
<path d="M0 0 C0.66 0 1.32 0 2 0 C2.125 6.625 2.125 6.625 1 10 C0.96045766 12.33299825 0.95598268 14.66708189 1 17 C2.32 14.69 3.64 12.38 5 10 C6.231394 12.46278801 6.07159196 14.2795055 6 17 C6.99 17 7.98 17 9 17 C8.67 16.34 8.34 15.68 8 15 C8.66 15 9.32 15 10 15 C10 13.35 10 11.7 10 10 C10.66 10.33 11.32 10.66 12 11 C12 12.32 12 13.64 12 15 C12.66 15 13.32 15 14 15 C14 13.35 14 11.7 14 10 C14.66 9.67 15.32 9.34 16 9 C16 12.3 16 15.6 16 19 C16.66 18.67 17.32 18.34 18 18 C18 15.36 18 12.72 18 10 C19.32 10 20.64 10 22 10 C22.33 10.66 22.66 11.32 23 12 C23.433125 11.505 23.86625 11.01 24.3125 10.5 C26 9 26 9 29 9 C28.67 10.65 28.34 12.3 28 14 C27.01 14.33 26.02 14.66 25 15 C25 15.99 25 16.98 25 18 C26.94074861 17.72382467 26.94074861 17.72382467 29 17 C29.66 16.01 30.32 15.02 31 14 C31.68707031 14.08378906 32.37414062 14.16757812 33.08203125 14.25390625 C33.98308594 14.35574219 34.88414062 14.45757812 35.8125 14.5625 C36.70582031 14.66691406 37.59914062 14.77132813 38.51953125 14.87890625 C41.13375572 15.15658709 41.13375572 15.15658709 44 14 C44 14.66 44 15.32 44 16 C40.85658007 17.57170996 37.44228549 17.23175783 34 17 C33.01 16.67 32.02 16.34 31 16 C30.34 17.32 29.68 18.64 29 20 C25.65626525 19.44271087 22.96687001 18.64826111 20 17 C19.67 17.99 19.34 18.98 19 20 C16.5625 19.625 16.5625 19.625 14 19 C13.67 18.34 13.34 17.68 13 17 C12.34 17 11.68 17 11 17 C10.67 17.99 10.34 18.98 10 20 C9.236875 19.835 8.47375 19.67 7.6875 19.5 C4.96403764 18.90854604 4.96403764 18.90854604 2 19 C0.68 19 -0.64 19 -2 19 C-2.05394705 16.39555652 -2.09364469 13.79223002 -2.125 11.1875 C-2.14175781 10.44951172 -2.15851563 9.71152344 -2.17578125 8.95117188 C-2.21074628 5.08753574 -2.19397555 3.29096332 0 0 Z " fill="#4F4F52" transform="translate(199,257)"/>
<path d="M0 0 C6.58880165 2.15098336 9.85341178 7.10601365 13.11328125 13.01953125 C15.74431932 19.14199425 15.88591786 25.66077114 14.1875 32.0625 C13 34 13 34 10 35 C9.92523438 34.20078125 9.85046875 33.4015625 9.7734375 32.578125 C8.48543409 21.81950826 4.97000651 13.32779999 -2 5 C-1.34 3.35 -0.68 1.7 0 0 Z " fill="#C6C6C6" transform="translate(223,156)"/>
<path d="M0 0 C1.32 0.33 2.64 0.66 4 1 C4 4.63 4 8.26 4 12 C4.66 12 5.32 12 6 12 C6.33 12.66 6.66 13.32 7 14 C7.99 14 8.98 14 10 14 C10 15.65 10 17.3 10 19 C9.34 18.01 8.68 17.02 8 16 C7.2575 16.763125 6.515 17.52625 5.75 18.3125 C1.19178082 22.76712329 1.19178082 22.76712329 -1 24 C-3.6875 23.8125 -3.6875 23.8125 -6 23 C-7.36421031 20.27157939 -6.87807211 18.39046682 -6.5625 15.375 C-6.40974609 13.87066406 -6.40974609 13.87066406 -6.25390625 12.3359375 C-6.17011719 11.56507813 -6.08632812 10.79421875 -6 10 C-5.34 10 -4.68 10 -4 10 C-3.896875 9.0925 -3.79375 8.185 -3.6875 7.25 C-2.99585051 3.98038425 -2.17865079 2.46282263 0 0 Z " fill="#4E4E51" transform="translate(211,231)"/>
<path d="M0 0 C0 1.65 0 3.3 0 5 C0.66 5.33 1.32 5.66 2 6 C0.35 7.65 -1.3 9.3 -3 11 C-4.32 10.34 -5.64 9.68 -7 9 C-7.99 10.485 -7.99 10.485 -9 12 C-1.575 18.93 -1.575 18.93 6 26 C4.35 27.32 2.7 28.64 1 30 C-2.53353269 26.57354406 -5.79758756 22.98934703 -9.01953125 19.26953125 C-12.62836485 15.13396454 -16.32000318 11.07219603 -20 7 C-19.67 6.34 -19.34 5.68 -19 5 C-16.69 6.98 -14.38 8.96 -12 11 C-12 10.34 -12 9.68 -12 9 C-11.34 9 -10.68 9 -10 9 C-10 6.69 -10 4.38 -10 2 C-3.375 0 -3.375 0 0 0 Z " fill="#D0D0D1" transform="translate(220,130)"/>
<path d="M0 0 C1.79296875 0.06640625 1.79296875 0.06640625 4 1 C5.2851066 3.32157953 6.31326058 5.49769533 7.3125 7.9375 C11.59953278 17.66008403 15.87607777 25.40109424 25.27734375 30.94140625 C25.84582031 31.29074219 26.41429687 31.64007813 27 32 C27 32.33 27 32.66 27 33 C19.6096419 32.60408796 14.55372079 30.61103887 9.3046875 25.27734375 C3.35358282 17.99546441 0.6995441 9.26895927 0 0 Z " fill="#F3F3F4" transform="translate(197,164)"/>
<path d="M0 0 C2.625 0.375 2.625 0.375 5 1 C5.2206578 6.51644498 4.90678029 10.75635421 3 16 C3.061875 17.3303125 3.061875 17.3303125 3.125 18.6875 C3 21 3 21 1.3125 22.875 C-1.57270838 24.27861489 -2.98731243 23.92054342 -6 23 C-7.03159626 19.90521121 -6.97482862 18.47368607 -6.5625 15.3125 C-6.46066406 14.50425781 -6.35882813 13.69601563 -6.25390625 12.86328125 C-6.17011719 12.24839844 -6.08632812 11.63351563 -6 11 C-5.34 11 -4.68 11 -4 11 C-3.87882813 10.37351563 -3.75765625 9.74703125 -3.6328125 9.1015625 C-3.38144531 7.87566406 -3.38144531 7.87566406 -3.125 6.625 C-2.96257812 5.81289062 -2.80015625 5.00078125 -2.6328125 4.1640625 C-2 2 -2 2 0 0 Z " fill="#F2F2F2" transform="translate(228,231)"/>
<path d="M0 0 C0.66 0.33 1.32 0.66 2 1 C1.45640504 7.54278753 0.19142933 13.32503874 -1.8125 19.5625 C-4.53522713 28.30743288 -6.8846083 37.09046789 -9 46 C-11.31 45.34 -13.62 44.68 -16 44 C-14.02 43.505 -14.02 43.505 -12 43 C-11.90855713 42.38648682 -11.81711426 41.77297363 -11.72290039 41.14086914 C-10.45038764 33.38443194 -8.35968731 25.9607302 -6.05883789 18.46264648 C-5.42943004 16.41119734 -4.80875374 14.35725505 -4.18945312 12.30273438 C-1.16892064 2.33784128 -1.16892064 2.33784128 0 0 Z " fill="#47464A" transform="translate(184,132)"/>
<path d="M0 0 C1.79736328 0.18774414 1.79736328 0.18774414 4 1 C5.64404297 3.15795898 5.64404297 3.15795898 7.2421875 5.99609375 C7.83386719 7.03056641 8.42554688 8.06503906 9.03515625 9.13085938 C9.64230469 10.22205078 10.24945313 11.31324219 10.875 12.4375 C12.08019796 14.56149942 13.28592212 16.68520036 14.4921875 18.80859375 C15.07452148 19.84226074 15.65685547 20.87592773 16.25683594 21.94091797 C18.7631813 26.33930836 21.36919044 30.675191 24 35 C24.99 34.34 25.98 33.68 27 33 C27.33 33.99 27.66 34.98 28 36 C25.525 36.495 25.525 36.495 23 37 C23 37.66 23 38.32 23 39 C22.34 39 21.68 39 21 39 C20.40574219 37.92105469 19.81148437 36.84210938 19.19921875 35.73046875 C18.36244669 34.21588744 17.52516614 32.701587 16.6875 31.1875 C16.24615723 30.38957031 15.80481445 29.59164062 15.35009766 28.76953125 C11.47365986 21.79112798 7.4756608 14.88713033 3.4050293 8.02026367 C2.9594165 7.26076416 2.51380371 6.50126465 2.0546875 5.71875 C1.65749512 5.04779297 1.26030273 4.37683594 0.85107422 3.68554688 C0 2 0 2 0 0 Z " fill="#3A393E" transform="translate(168,92)"/>
<path d="M0 0 C4.75 0.875 4.75 0.875 7 2 C7.23828125 4.15234375 7.23828125 4.15234375 7.3125 6.9375 C7.87645413 14.8123504 11.2087546 20.84983412 16 27 C8.97174871 25.45721313 5.12152111 20.94275509 1.0625 15.3125 C-0.56050087 10.25255612 -0.23017187 5.26837835 0 0 Z " fill="#F3F3F4" transform="translate(125,166)"/>
<path d="M0 0 C0.99 0.33 1.98 0.66 3 1 C2.67702486 2.66870487 2.33986667 4.33465333 2 6 C1.83371094 7.01707031 1.83371094 7.01707031 1.6640625 8.0546875 C0.58935908 13.91486275 -1.54851901 18.1652919 -5 23 C-9.875 22.125 -9.875 22.125 -11 21 C-11.50755287 15.75528701 -11.50755287 15.75528701 -11 13 C-8.6875 11.25 -8.6875 11.25 -6 10 C-3.91317931 7.61506207 -3.01148698 6.03446095 -2 3 C-1.34 3 -0.68 3 0 3 C0 2.01 0 1.02 0 0 Z " fill="#F3F3F4" transform="translate(144,229)"/>
<path d="M0 0 C0.928125 0.28875 1.85625 0.5775 2.8125 0.875 C4.24310128 3.73620256 4.19942581 5.71510585 3.8125 8.875 C1.10550207 11.26352759 -0.65883801 11.83184392 -4.25 12.125 C-6.69819462 11.91664301 -8.84662726 11.59526854 -11.1875 10.875 C-12.1775 12.36 -12.1775 12.36 -13.1875 13.875 C-14.5075 13.875 -15.8275 13.875 -17.1875 13.875 C-17.1875 10.875 -17.1875 10.875 -15.875 9.48828125 C-14.3125 8.28385417 -12.75 7.07942708 -11.1875 5.875 C-9.1875 6.875 -9.1875 6.875 -8.1875 7.875 C-8.105 7.2975 -8.0225 6.72 -7.9375 6.125 C-6.49435769 1.79557308 -4.64041233 -0.18197695 0 0 Z " fill="#F6F6F6" transform="translate(241.1875,261.125)"/>
<path d="M0 0 C2.0625 0.4375 2.0625 0.4375 4 1 C4.28773432 5.79077635 3.44169975 9.00617556 1.5 13.375 C1.0359375 14.43460938 0.571875 15.49421875 0.09375 16.5859375 C-0.2671875 17.38257813 -0.628125 18.17921875 -1 19 C-0.34 18.67 0.32 18.34 1 18 C3.125 18.4375 3.125 18.4375 5 19 C4.6875 20.9375 4.6875 20.9375 4 23 C3.01 23.33 2.02 23.66 1 24 C0.63451555 25.32488113 0.3062434 26.66018514 0 28 C-1.4375 30.25 -1.4375 30.25 -3 32 C-3.66 32 -4.32 32 -5 32 C-5.28864797 24.20650493 -3.85498195 17.19728869 -1.875 9.6875 C-1.13688212 6.57686036 -0.90439828 4.15485673 -1 1 C-0.67 0.67 -0.34 0.34 0 0 Z " fill="#565657" transform="translate(246,211)"/>
<path d="M0 0 C4.20984071 3.00490397 6.92272067 6.40545468 9.625 10.75 C10.21365845 11.68924316 10.21365845 11.68924316 10.81420898 12.64746094 C15.62052507 20.46316903 17.51357601 26.71758919 17 36 C15.3988519 33.59827785 14.22903078 31.46990242 13.046875 28.8671875 C12.67747803 28.06490723 12.30808105 27.26262695 11.92749023 26.43603516 C11.53891846 25.59089355 11.15034668 24.74575195 10.75 23.875 C7.93810531 17.80749671 5.14870457 12.07829579 0.99609375 6.7890625 C-0.30939274 4.44430638 -0.17683152 2.63887039 0 0 Z " fill="#F1F1F3" transform="translate(215,156)"/>
<path d="M0 0 C1.71216126 1.71216126 1.17191224 3.91807056 1.1875 6.25 C1.20167969 7.20390625 1.21585938 8.1578125 1.23046875 9.140625 C0.9897641 12.12699459 0.249438 14.29370741 -1 17 C-1.99 17 -2.98 17 -4 17 C-3.47731534 14.23723823 -2.89130413 11.6739124 -2 9 C-1.96045766 6.66700175 -1.95598268 4.33291811 -2 2 C-3.98 2 -5.96 2 -8 2 C-11.46207675 10.36797922 -14.28965265 18.94307126 -15 28 C-15.66 28 -16.32 28 -17 28 C-17.66532285 16.91128578 -17.29393257 8.99050265 -9.625 0.3125 C-6.05729091 -1.47135455 -3.80248529 -0.95062132 0 0 Z " fill="#48474C" transform="translate(203,216)"/>
<path d="M0 0 C9.03286371 7.97017386 13.14548543 18.19420657 14 30 C14 30.99 14 31.98 14 33 C9.60726552 37.03656682 6.20395763 38.33415932 0.20703125 38.30078125 C-3.60473379 37.78130177 -6.73096387 35.94751089 -10 34 C-9.01 33.505 -9.01 33.505 -8 33 C-5.65794699 33.97940398 -3.32481174 34.98034573 -1 36 C-0.01 36 0.98 36 2 36 C1.01 35.01 0.02 34.02 -1 33 C0.65 33.33 2.3 33.66 4 34 C3.01 33.01 2.02 32.02 1 31 C1.33 30.34 1.66 29.68 2 29 C4.31 30.98 6.62 32.96 9 35 C8.71682074 33.39431334 8.42312209 31.79047953 8.125 30.1875 C7.96257812 29.29417969 7.80015625 28.40085938 7.6328125 27.48046875 C7.08811551 24.77272154 7.08811551 24.77272154 5 22 C5.33 20.68 5.66 19.36 6 18 C7.65 21.63 9.3 25.26 11 29 C11.99050626 20.28354495 7.90219477 12.17516016 2.6875 5.375 C2.17574219 4.76398438 1.66398438 4.15296875 1.13671875 3.5234375 C0 2 0 2 0 0 Z " fill="#636364" transform="translate(220,160)"/>
<path d="M0 0 C0.99 0 1.98 0 3 0 C3.33 2.31 3.66 4.62 4 7 C5.32 7.33 6.64 7.66 8 8 C8 10.31 8 12.62 8 15 C8.99 14.01 9.98 13.02 11 12 C10.4375 14.375 10.4375 14.375 9 17 C5.92423601 18.1534115 3.2987434 19 0 19 C-0.66 17.35 -1.32 15.7 -2 14 C-1.67 13.67 -1.34 13.34 -1 13 C-0.95350094 11.00054061 -0.96227087 8.9996441 -1 7 C-1.03772913 5.0003559 -1.04649906 2.99945939 -1 1 C-0.67 0.67 -0.34 0.34 0 0 Z " fill="#DFDEDF" transform="translate(180,259)"/>
<path d="M0 0 C0.763125 0.639375 1.52625 1.27875 2.3125 1.9375 C4.88246713 4.14232781 4.88246713 4.14232781 8 5 C9.54980469 7.54443359 9.54980469 7.54443359 11.171875 10.8984375 C11.45855042 11.48920074 11.74522583 12.07996399 12.04058838 12.68862915 C12.64389761 13.93877115 13.24206274 15.19140678 13.83544922 16.44628906 C14.74649091 18.36759963 15.67852936 20.27763305 16.61328125 22.1875 C17.19660432 23.40302674 17.77867825 24.61915389 18.359375 25.8359375 C18.89014648 26.94501465 19.42091797 28.0540918 19.96777344 29.19677734 C21 32 21 32 20 35 C18.35 31.7 16.7 28.4 15 25 C15.350625 26.2375 15.70125 27.475 16.0625 28.75 C17.05531499 32.25405292 16.94884936 33.20460255 16 37 C13.03 28.42 10.06 19.84 7 11 C6.34 11 5.68 11 5 11 C4.16151196 9.54462432 3.32936066 8.08559627 2.5 6.625 C1.80390625 5.40683594 1.80390625 5.40683594 1.09375 4.1640625 C0 2 0 2 0 0 Z " fill="#69696B" transform="translate(184,126)"/>
<path d="M0 0 C2.6875 0.3125 2.6875 0.3125 5 1 C4.74553175 5.32596028 4.3880665 7.52002301 1.625 10.9375 C-1 13 -1 13 -4 13 C-4.33 15.97 -4.66 18.94 -5 22 C-5.66 22 -6.32 22 -7 22 C-7.54399046 13.77969969 -6.9643251 7.69182093 -1.53125 1.26171875 C-1.0259375 0.84535156 -0.520625 0.42898437 0 0 Z " fill="#464549" transform="translate(137,229)"/>
<path d="M0 0 C4.70588235 0.70588235 4.70588235 0.70588235 6 2 C5.62056512 6.09789669 5.30694043 8.53958935 3 12 C-3.38342541 11.39779006 -3.38342541 11.39779006 -5.9375 9.75 C-7.35440053 7.41628148 -7.21718696 5.67863922 -7 3 C-5.5459375 2.5359375 -5.5459375 2.5359375 -4.0625 2.0625 C-1.15934208 1.30476658 -1.15934208 1.30476658 0 0 Z " fill="#403F44" transform="translate(150,127)"/>
<path d="M0 0 C0.99 0 1.98 0 3 0 C3.01417969 0.7734375 3.02835937 1.546875 3.04296875 2.34375 C3.45006892 11.23393749 5.37405027 16.85767288 11.9375 22.9375 C15.12080245 25.08135675 17.2080503 25.72914645 21 26 C21 26.99 21 27.98 21 29 C24.96 29 28.92 29 33 29 C30.67135666 31.32864334 30.16677929 31.31845037 27 31.375 C19.40360687 31.15552155 13.21586084 28.49909138 7.625 23.375 C2.44751716 17.72588411 -0.20176269 11.55679188 -0.25 3.875 C-0.1675 2.59625 -0.085 1.3175 0 0 Z " fill="#464549" transform="translate(122,166)"/>
<path d="M0 0 C1.6875 1.5 1.6875 1.5 3 4 C2.13823111 8.60536706 0.31411942 11.76759859 -3 15 C-3.71447643 17.10332891 -3.71447643 17.10332891 -4 19 C-4.598125 18.835 -5.19625 18.67 -5.8125 18.5 C-8.11344336 17.8885876 -8.11344336 17.8885876 -11 18 C-12.68798827 19.43750191 -12.68798827 19.43750191 -14 21 C-14 20.34 -14 19.68 -14 19 C-14.66 19 -15.32 19 -16 19 C-16 18.34 -16 17.68 -16 17 C-14.2421875 15.7734375 -14.2421875 15.7734375 -11.875 14.375 C-6.28033158 10.78346995 -2.12482872 6.37448617 0 0 Z " fill="#EFEFEF" transform="translate(131,228)"/>
<path d="M0 0 C3.66281242 4.30871015 6.33050422 8.96806349 9 13.91601562 C10.98275919 17.49814892 13.10047201 20.14459527 16 23 C16.75 26.25 16.75 26.25 17 29 C16.01 29 15.02 29 14 29 C12.39013672 26.86035156 12.39013672 26.86035156 10.6796875 23.890625 C10.06222656 22.82585937 9.44476563 21.76109375 8.80859375 20.6640625 C8.17050781 19.53742188 7.53242188 18.41078125 6.875 17.25 C5.90626953 15.58324219 5.90626953 15.58324219 4.91796875 13.8828125 C-0.50231144 4.45129771 -0.50231144 4.45129771 -1 1 C-0.67 0.67 -0.34 0.34 0 0 Z " fill="#EBEBEC" transform="translate(177,98)"/>
<path d="M0 0 C1.32 0.33 2.64 0.66 4 1 C4.05406122 2.93719378 4.09282025 4.87481921 4.125 6.8125 C4.14820313 7.89144531 4.17140625 8.97039062 4.1953125 10.08203125 C4 13 4 13 2 16 C0.0625 15.625 0.0625 15.625 -2 15 C-3.71535658 11.56928684 -3.4006478 7.75941181 -3 4 C-1.5 1.4375 -1.5 1.4375 0 0 Z " fill="#F6F6F7" transform="translate(211,231)"/>
<path d="M0 0 C3.4297456 0.63513807 6.70466931 1.87659181 10 3 C10.3125 5.3125 10.3125 5.3125 10 8 C6.72821183 10.63560713 5.27931853 11 1 11 C-1.43769218 7.34346173 -1.23944439 5.30999899 -1 1 C-0.67 0.67 -0.34 0.34 0 0 Z " fill="#39383E" transform="translate(227,112)"/>
<path d="M0 0 C3 1 3 1 4 3 C4.433125 2.505 4.86625 2.01 5.3125 1.5 C7 0 7 0 10 0 C9.67 1.65 9.34 3.3 9 5 C8.01 5.33 7.02 5.66 6 6 C6 6.99 6 7.98 6 9 C7.94074861 8.72382467 7.94074861 8.72382467 10 8 C10.66 7.01 11.32 6.02 12 5 C12.68707031 5.08378906 13.37414062 5.16757812 14.08203125 5.25390625 C15.43361328 5.40666016 15.43361328 5.40666016 16.8125 5.5625 C18.15248047 5.71912109 18.15248047 5.71912109 19.51953125 5.87890625 C22.13375572 6.15658709 22.13375572 6.15658709 25 5 C25 5.66 25 6.32 25 7 C21.85658007 8.57170996 18.44228549 8.23175783 15 8 C14.01 7.67 13.02 7.34 12 7 C11.34 8.32 10.68 9.64 10 11 C6.62537285 10.45276317 4.91765 9.9451 2 8 C2 7.34 2 6.68 2 6 C1.01 6 0.02 6 -1 6 C-1.042721 4.33388095 -1.04063832 2.66617115 -1 1 C-0.67 0.67 -0.34 0.34 0 0 Z " fill="#78787A" transform="translate(218,266)"/>
<path d="M0 0 C0 1.65 0 3.3 0 5 C0.66 5.33 1.32 5.66 2 6 C0.35 7.65 -1.3 9.3 -3 11 C-4.32 10.34 -5.64 9.68 -7 9 C-7.66 9.66 -8.32 10.32 -9 11 C-9.99 11 -10.98 11 -12 11 C-12 10.34 -12 9.68 -12 9 C-11.34 9 -10.68 9 -10 9 C-10 6.69 -10 4.38 -10 2 C-3.375 0 -3.375 0 0 0 Z " fill="#F0F0F1" transform="translate(220,130)"/>
<path d="M0 0 C0.33 0.99 0.66 1.98 1 3 C-0.32346506 5.0065438 -1.65729179 7.00628175 -3 9 C-3 13.62475117 -1.88069472 15.60187263 0.3125 19.625 C1.23482422 21.34589844 1.23482422 21.34589844 2.17578125 23.1015625 C3.84516667 26.1919643 3.84516667 26.1919643 7 28 C9.32387947 28.39387788 11.65793749 28.73486085 14 29 C14 29.33 14 29.66 14 30 C7.38486102 31.62477098 7.38486102 31.62477098 4.12109375 30.15234375 C-0.85747375 26.33210068 -3.18707739 21.2290131 -5.73828125 15.609375 C-6.86362842 12.91718535 -6.86362842 12.91718535 -9 11 C-8.01 11 -7.02 11 -6 11 C-5.71125 10.2575 -5.4225 9.515 -5.125 8.75 C-4.17697356 6.43260203 -3.15154089 4.22082885 -2 2 C-1.34 2 -0.68 2 0 2 C0 1.34 0 0.68 0 0 Z " fill="#4B4A4E" transform="translate(249,233)"/>
<path d="M0 0 C0.66 0 1.32 0 2 0 C2 0.66 2 1.32 2 2 C2.61875 2.309375 3.2375 2.61875 3.875 2.9375 C5.25 3.625 6.625 4.3125 8 5 C8.625 7.5625 8.625 7.5625 9 10 C7.3125 11.5625 7.3125 11.5625 5 13 C2.25 12.6875 2.25 12.6875 0 12 C-1.03159626 8.90521121 -0.97482862 7.47368607 -0.5625 4.3125 C-0.46066406 3.50425781 -0.35882813 2.69601563 -0.25390625 1.86328125 C-0.17011719 1.24839844 -0.08632812 0.63351563 0 0 Z " fill="#5D5D5F" transform="translate(222,242)"/>
<path d="M0 0 C1.92952974 3.85905949 3.12483821 6.26132535 3.0625 10.625 C3.05347656 11.44226563 3.04445312 12.25953125 3.03515625 13.1015625 C3.02355469 13.72804687 3.01195312 14.35453125 3 15 C0.6875 15.625 0.6875 15.625 -2 16 C-2.99 15.34 -3.98 14.68 -5 14 C-4.54636829 12.41531323 -4.08688548 10.83230076 -3.625 9.25 C-3.36976563 8.36828125 -3.11453125 7.4865625 -2.8515625 6.578125 C-2.0790066 4.23919428 -1.16374324 2.16557438 0 0 Z " fill="#EFEFF0" transform="translate(166,236)"/>
<path d="M0 0 C1.32 0.33 2.64 0.66 4 1 C4.33 3.31 4.66 5.62 5 8 C5.66 6.68 6.32 5.36 7 4 C9 7 9 7 9 10 C9.66 10 10.32 10 11 10 C10.649375 9.443125 10.29875 8.88625 9.9375 8.3125 C8.78154007 5.46113217 9.19032562 3.91482778 10 1 C10.99 1.33 11.98 1.66 13 2 C13.1953125 8.0546875 13.1953125 8.0546875 13 10 C12.34 10.66 11.68 11.32 11 12 C8.625 11.625 8.625 11.625 6 11 C4.68 11 3.36 11 2 11 C1.93941406 10.37351562 1.87882813 9.74703125 1.81640625 9.1015625 C1.73261719 8.28429687 1.64882812 7.46703125 1.5625 6.625 C1.48128906 5.81289063 1.40007812 5.00078125 1.31640625 4.1640625 C1.10909886 1.95727195 1.10909886 1.95727195 0 0 Z " fill="#808082" transform="translate(152,265)"/>
<path d="M0 0 C0.66 0 1.32 0 2 0 C2 2.31 2 4.62 2 7 C2.9075 6.38125 3.815 5.7625 4.75 5.125 C7.14948817 3.55610389 9.40961612 2.19556179 12 1 C10.51697598 5.44907205 6.91714499 7.74579392 3 10 C2.34 10 1.68 10 1 10 C0.67 12.31 0.34 14.62 0 17 C-0.66 17 -1.32 17 -2 17 C-2 15.02 -2 13.04 -2 11 C-2.66 10.67 -3.32 10.34 -4 10 C-3.34 9.67 -2.68 9.34 -2 9 C-1.5720382 7.13690908 -1.5720382 7.13690908 -1.4375 5 C-1.09589041 1.09589041 -1.09589041 1.09589041 0 0 Z " fill="#3B3B3F" transform="translate(114,235)"/>
<path d="M0 0 C0.66 0.33 1.32 0.66 2 1 C1.34 2.32 0.68 3.64 0 5 C0.928125 5.0825 1.85625 5.165 2.8125 5.25 C6 6 6 6 7.875 8.0625 C8.24625 8.701875 8.6175 9.34125 9 10 C5.53076119 12.31282587 4.07794425 12.42478586 0 12 C-1.875 10.875 -1.875 10.875 -3 9 C-3.375 6 -3.375 6 -3 3 C-1.5 1.125 -1.5 1.125 0 0 Z " fill="#D0D0D0" transform="translate(143,265)"/>
<path d="M0 0 C5.58918919 0.76216216 5.58918919 0.76216216 7.78125 2.03125 C10.83960032 3.36658605 13.43029502 3.1913941 16.75 3.125 C17.92046875 3.10695313 19.0909375 3.08890625 20.296875 3.0703125 C21.18890625 3.04710937 22.0809375 3.02390625 23 3 C23 2.01 23 1.02 23 0 C23.99 0 24.98 0 26 0 C25.65557106 2.49710982 25.15296001 3.82154665 23.5 5.75 C19.59857959 7.70071021 16.27551405 7.70316824 12 7 C7.87958977 5.57541639 3.9382657 3.865845 0 2 C0 1.34 0 0.68 0 0 Z " fill="#58585A" transform="translate(110,260)"/>
<path d="M0 0 C1.61291627 3.22583254 0.43918542 6.45396365 -0.1875 9.875 C-0.30158203 10.59558594 -0.41566406 11.31617188 -0.53320312 12.05859375 C-1.35227887 16.5739047 -2.37444572 19.1325844 -6 22 C-5.91621094 20.87980469 -5.83242187 19.75960937 -5.74609375 18.60546875 C-5.64291555 17.13283444 -5.54006821 15.66017692 -5.4375 14.1875 C-5.38142578 13.44951172 -5.32535156 12.71152344 -5.26757812 11.95117188 C-5.04230276 8.63211484 -4.93744188 6.18767436 -6 3 C-4.02 2.01 -2.04 1.02 0 0 Z " fill="#F2F2F3" transform="translate(240,224)"/>
<path d="M0 0 C0.66 0 1.32 0 2 0 C3.17374173 2.43431639 4.33915763 4.87204182 5.5 7.3125 C6.00080078 8.34793945 6.00080078 8.34793945 6.51171875 9.40429688 C9 14.66015625 9 14.66015625 9 18 C8.01 18.33 7.02 18.66 6 19 C5.01070539 17.13032395 4.03399531 15.25398622 3.0625 13.375 C2.24458984 11.80878906 2.24458984 11.80878906 1.41015625 10.2109375 C0.02647791 7.06029043 -0.68430599 4.41751295 -1 1 C-0.67 0.67 -0.34 0.34 0 0 Z " fill="#F6F6F6" transform="translate(203,161)"/>
<path d="M0 0 C1.81640625 1.70703125 1.81640625 1.70703125 3.5625 3.8125 C4.43068359 4.84310547 4.43068359 4.84310547 5.31640625 5.89453125 C6.9203625 7.90040693 8.47324382 9.93493465 10 12 C7.50638429 10.79618552 5.31856917 9.54571278 3 8 C3 8.99 3 9.98 3 11 C2.67 11.66 2.34 12.32 2 13 C0.82767315 11.3790787 -0.3377077 9.75313167 -1.5 8.125 C-2.1496875 7.22007812 -2.799375 6.31515625 -3.46875 5.3828125 C-5 3 -5 3 -5 1 C-5.66 0.67 -6.32 0.34 -7 0 C-3.81827957 -1.06057348 -3.01683946 -1.18704816 0 0 Z " fill="#767677" transform="translate(198,129)"/>
<path d="M0 0 C0.66 0 1.32 0 2 0 C2 1.65 2 3.3 2 5 C2.66 5.33 3.32 5.66 4 6 C3.34 6 2.68 6 2 6 C2 8.64 2 11.28 2 14 C2.66 14.33 3.32 14.66 4 15 C2.68 15.33 1.36 15.66 0 16 C-0.33 15.34 -0.66 14.68 -1 14 C-2.98 14.99 -2.98 14.99 -5 16 C-7.03684712 11.92630576 -7.0257259 9.41062136 -6 5 C-5.34 5 -4.68 5 -4 5 C-3.67 7.64 -3.34 10.28 -3 13 C-0.89172945 9.83759418 -0.66182535 8.49342531 -0.375 4.8125 C-0.30023438 3.91144531 -0.22546875 3.01039063 -0.1484375 2.08203125 C-0.09945312 1.39496094 -0.05046875 0.70789063 0 0 Z " fill="#403F43" transform="translate(174,261)"/>
<path d="M0 0 C0.33 0 0.66 0 1 0 C1 3.63 1 7.26 1 11 C1.66 11 2.32 11 3 11 C4.32 13.64 5.64 16.28 7 19 C9.37233611 18.96219702 9.37233611 18.96219702 12 18 C14.33414647 15.04150073 14.33414647 15.04150073 16 12 C16.66 12.66 17.32 13.32 18 14 C15.3175089 17.64324146 13.19655337 20.51161087 8.9375 22.25 C6 22 6 22 3.1875 19.75 C-0.26078839 15.41500888 -0.11201121 12.20922226 -0.0625 6.8125 C-0.05347656 5.54019531 -0.04445312 4.26789063 -0.03515625 2.95703125 C-0.02355469 1.98121094 -0.01195312 1.00539062 0 0 Z " fill="#505053" transform="translate(185,233)"/>
<path d="M0 0 C2.54634201 1.11402463 3.51322983 2.57050623 5 4.875 C4.01 4.875 3.02 4.875 2 4.875 C2.66 6.525 3.32 8.175 4 9.875 C2.68 10.205 1.36 10.535 0 10.875 C-0.33 10.215 -0.66 9.555 -1 8.875 C-1.66 9.535 -2.32 10.195 -3 10.875 C-5 5.25 -5 5.25 -5 1.875 C-2 -0.125 -2 -0.125 0 0 Z " fill="#59585C" transform="translate(167,82.125)"/>
<path d="M0 0 C2.88809382 4.33214073 1.79003307 8.01671447 1 13 C0.40254711 15.69081838 -0.28652424 18.33635716 -1 21 C-3.31 20.34 -5.62 19.68 -8 19 C-6.68 18.67 -5.36 18.34 -4 18 C-3.87882813 17.28714844 -3.75765625 16.57429688 -3.6328125 15.83984375 C-2.68936031 10.44765159 -1.62637791 5.22764328 0 0 Z " fill="#48474C" transform="translate(176,157)"/>
<path d="M0 0 C1.37478516 0.01740234 1.37478516 0.01740234 2.77734375 0.03515625 C3.69644531 0.04417969 4.61554688 0.05320312 5.5625 0.0625 C6.27277344 0.07410156 6.98304687 0.08570313 7.71484375 0.09765625 C7.71484375 1.41765625 7.71484375 2.73765625 7.71484375 4.09765625 C4.62595853 6.15691306 4.00548448 6.33669365 0.52734375 6.22265625 C-1.35984375 6.16078125 -1.35984375 6.16078125 -3.28515625 6.09765625 C-3.32787725 4.4315372 -3.32579457 2.7638274 -3.28515625 1.09765625 C-2.28515625 0.09765625 -2.28515625 0.09765625 0 0 Z " fill="#EEEEEF" transform="translate(97.28515625,258.90234375)"/>
<path d="M0 0 C3.29054553 2.98361829 5.221442 5.90245093 7.1875 9.875 C7.69667969 10.88304688 8.20585937 11.89109375 8.73046875 12.9296875 C9.99605973 15.99047061 10.59410771 18.72352006 11 22 C7.81184872 19.24431088 5.88624271 15.73248732 3.8125 12.125 C3.44447266 11.51269531 3.07644531 10.90039062 2.69726562 10.26953125 C0.64148047 6.70718739 -0.47918873 4.13202081 0 0 Z " fill="#B6B6B7" transform="translate(165,90)"/>
<path d="M0 0 C0.66 0 1.32 0 2 0 C3.19542478 1.68125012 4.30712843 3.42248083 5.375 5.1875 C7.2087276 8.20466855 8.99342863 10.99203192 11.2421875 13.71875 C13 16 13 16 12.75 18.3125 C12.37875 19.1478125 12.37875 19.1478125 12 20 C11.01 20 10.02 20 9 20 C6.03 13.4 3.06 6.8 0 0 Z " fill="#F2F2F2" transform="translate(191,130)"/>
<path d="M0 0 C0.99 0.33 1.98 0.66 3 1 C2.855625 1.680625 2.71125 2.36125 2.5625 3.0625 C1.93054091 6.36273082 1.45686059 9.67144426 1 13 C-0.32 12.67 -1.64 12.34 -3 12 C-3.33 12.66 -3.66 13.32 -4 14 C-4.33 13.34 -4.66 12.68 -5 12 C-5.66 11.67 -6.32 11.34 -7 11 C-6.360625 10.236875 -5.72125 9.47375 -5.0625 8.6875 C-2.85767219 6.11753287 -2.85767219 6.11753287 -2 3 C-1.34 3 -0.68 3 0 3 C0 2.01 0 1.02 0 0 Z " fill="#ECECED" transform="translate(144,229)"/>
<path d="M0 0 C0.66 0.33 1.32 0.66 2 1 C2 1.99 2 2.98 2 4 C1.41992188 3.94199219 0.83984375 3.88398438 0.2421875 3.82421875 C-4.20497649 3.56736934 -7.07081235 3.52746015 -10.5625 6.5 C-11.7690625 7.7375 -11.7690625 7.7375 -13 9 C-13.66 8.67 -14.32 8.34 -15 8 C-13.60415208 4.62670085 -12.07634389 2.95767338 -9 1 C-5.77390955 -0.07536348 -3.37822416 -0.14375422 0 0 Z " fill="#464649" transform="translate(102,218)"/>
<path d="M0 0 C1.3921875 0.3403125 1.3921875 0.3403125 2.8125 0.6875 C1.9375 5.4375 1.9375 5.4375 0.8125 7.6875 C-0.8375 7.6875 -2.4875 7.6875 -4.1875 7.6875 C-4.8475 6.0375 -5.5075 4.3875 -6.1875 2.6875 C-4.14987265 -0.14253799 -3.59070275 -0.35202968 0 0 Z " fill="#302F35" transform="translate(152.1875,131.3125)"/>
<path d="M0 0 C1.32 0.66 2.64 1.32 4 2 C4.2233411 8.9732055 4.18031711 14.63936577 1 21 C0.34 21 -0.32 21 -1 21 C-0.54177532 17.53058454 -0.10868317 14.32604951 1 11 C1.09203743 9.48138245 1.13001284 7.95889574 1.125 6.4375 C1.12757813 5.65246094 1.13015625 4.86742187 1.1328125 4.05859375 C1.12976366 1.93561023 1.12976366 1.93561023 0 0 Z " fill="#363539" transform="translate(231,230)"/>
<path d="M0 0 C0.66 0.33 1.32 0.66 2 1 C1.38273804 6.67355671 0.72054048 12.33861055 0 18 C-0.66 18 -1.32 18 -2 18 C-2.05397335 15.5622037 -2.09365616 13.12560315 -2.125 10.6875 C-2.14175781 9.99720703 -2.15851563 9.30691406 -2.17578125 8.59570312 C-2.21217794 4.82864604 -2.14378864 3.21568296 0 0 Z " fill="#3A393E" transform="translate(188,226)"/>
<path d="M0 0 C0.99 0 1.98 0 3 0 C3.07347656 1.21236328 3.07347656 1.21236328 3.1484375 2.44921875 C3.22320312 3.51785156 3.29796875 4.58648437 3.375 5.6875 C3.44460937 6.74324219 3.51421875 7.79898438 3.5859375 8.88671875 C3.98760089 11.90677269 4.74069019 14.24078054 6 17 C5.34 17.66 4.68 18.32 4 19 C0.90133798 12.37384327 -0.47266289 7.32627475 0 0 Z " fill="#535256" transform="translate(122,166)"/>
<path d="M0 0 C0.99 0 1.98 0 3 0 C3.04254356 1.99954746 3.04080783 4.00041636 3 6 C2.67 6.33 2.34 6.66 2 7 C1.9684421 9.55619004 2.06826631 12.09780341 2.16015625 14.65234375 C2 17 2 17 0 19 C-0.66 17.35 -1.32 15.7 -2 14 C-1.67 13.67 -1.34 13.34 -1 13 C-0.95350094 11.00054061 -0.96227087 8.9996441 -1 7 C-1.03772913 5.0003559 -1.04649906 2.99945939 -1 1 C-0.67 0.67 -0.34 0.34 0 0 Z " fill="#58585B" transform="translate(180,259)"/>
<path d="M0 0 C2.64 0.33 5.28 0.66 8 1 C7.67 2.65 7.34 4.3 7 6 C5.35 6.33 3.7 6.66 2 7 C0 4 0 4 0 0 Z " fill="#39383D" transform="translate(158,157)"/>
<path d="M0 0 C0.66 0 1.32 0 2 0 C2.40214229 6.16618181 0.96818336 11.17745757 -1 17 C-1.33 17 -1.66 17 -2 17 C-2.05398987 14.72942623 -2.09278742 12.45848712 -2.125 10.1875 C-2.14820313 8.92292969 -2.17140625 7.65835937 -2.1953125 6.35546875 C-2 3 -2 3 0 0 Z " fill="#5C5C5E" transform="translate(199,257)"/>
<path d="M0 0 C0.33 1.32 0.66 2.64 1 4 C1.66 4 2.32 4 3 4 C1.72200196 6.85091869 0.62103327 9.22144171 -2 11 C-5.1875 10.6875 -5.1875 10.6875 -8 10 C-8.33 8.68 -8.66 7.36 -9 6 C-6.69 6.33 -4.38 6.66 -2 7 C-1.34 4.69 -0.68 2.38 0 0 Z " fill="#3E3D41" transform="translate(170,244)"/>
<path d="M0 0 C2.375 0.3125 2.375 0.3125 5 1 C7.13586678 4.20380017 7.23132175 5.01939967 7.125 8.6875 C7.10695312 9.49574219 7.08890625 10.30398437 7.0703125 11.13671875 C7.03550781 12.05904297 7.03550781 12.05904297 7 13 C6.01 13.33 5.02 13.66 4 14 C3.96261719 13.24074219 3.92523438 12.48148438 3.88671875 11.69921875 C3.82097656 10.70535156 3.75523437 9.71148437 3.6875 8.6875 C3.62949219 7.70136719 3.57148438 6.71523437 3.51171875 5.69921875 C2.95377187 2.75615543 2.31459868 1.81817001 0 0 Z " fill="#3C3C40" transform="translate(211,229)"/>
<path d="M0 0 C0.66 0 1.32 0 2 0 C2.38091797 0.79664063 2.38091797 0.79664063 2.76953125 1.609375 C4.58349524 5.3324172 6.3313518 8.79762215 9 12 C4.63459142 10.80943402 1.74214963 9.69135527 -1 6 C-1.3125 3.3125 -1.3125 3.3125 -1 1 C-0.67 0.67 -0.34 0.34 0 0 Z " fill="#EAE9EB" transform="translate(132,181)"/>
<path d="M0 0 C0.886875 0.78375 1.77375 1.5675 2.6875 2.375 C4.72747761 4.09338114 6.09515118 5.03624807 8.625 6 C11.74999649 7.315788 13.06489802 9.27652313 15 12 C14.01 11.67 13.02 11.34 12 11 C11.34 11.66 10.68 12.32 10 13 C8.32722165 11.21371169 6.66175557 9.4214925 5 7.625 C4.28457031 6.86316406 4.28457031 6.86316406 3.5546875 6.0859375 C0 2.2265625 0 2.2265625 0 0 Z " fill="#C4C4C5" transform="translate(200,135)"/>
<path d="M0 0 C1 3 1 3 0.328125 4.9375 C-0.02765625 5.618125 -0.3834375 6.29875 -0.75 7 C-1.09546875 7.680625 -1.4409375 8.36125 -1.796875 9.0625 C-3.03689448 11.05941449 -4.17094504 12.52197579 -6 14 C-6.99 14 -7.98 14 -9 14 C-9.95024979 10.30458414 -9.95024979 7.69541586 -9 4 C-8.67 4 -8.34 4 -8 4 C-7.67 5.98 -7.34 7.96 -7 10 C-6.34 10 -5.68 10 -5 10 C-3.35 6.7 -1.7 3.4 0 0 Z " fill="#515154" transform="translate(155,241)"/>
<path d="M0 0 C2.74526635 1.37263317 3.44355648 3.40592747 5 6 C5.66 6.33 6.32 6.66 7 7 C6.34 8.32 5.68 9.64 5 11 C1.125 10.125 1.125 10.125 0 9 C-0.07179964 7.48071962 -0.08392007 5.95832518 -0.0625 4.4375 C-0.05347656 3.61121094 -0.04445312 2.78492188 -0.03515625 1.93359375 C-0.02355469 1.29550781 -0.01195312 0.65742188 0 0 Z " fill="#E4E4E5" transform="translate(205,242)"/>
<path d="M0 0 C2.99560362 2.56766024 4.5646726 5.33991513 6 9 C5.625 12 5.625 12 5 15 C5.37617294 18.26410357 5.37617294 18.26410357 6 21 C3.16922629 18.16922629 2.77291554 14.84372212 1.875 11.0625 C1.69324219 10.33353516 1.51148438 9.60457031 1.32421875 8.85351562 C0.58831565 5.83520631 0 3.11775625 0 0 Z " fill="#C7C7C9" transform="translate(198,150)"/>
<path d="M0 0 C1.32 0 2.64 0 4 0 C4.08004482 3.5219721 4.04005702 6.61981469 3 10 C1.68 9.34 0.36 8.68 -1 8 C-0.67 5.36 -0.34 2.72 0 0 Z " fill="#BEBEC0" transform="translate(205,266)"/>
<path d="M0 0 C1.32 0.33 2.64 0.66 4 1 C4.33 3.31 4.66 5.62 5 8 C5.66 6.68 6.32 5.36 7 4 C7.33 4 7.66 4 8 4 C8 5.65 8 7.3 8 9 C7.34 9 6.68 9 6 9 C5.67 9.99 5.34 10.98 5 12 C4.01 11.67 3.02 11.34 2 11 C1.93941406 10.37351562 1.87882813 9.74703125 1.81640625 9.1015625 C1.73261719 8.28429687 1.64882812 7.46703125 1.5625 6.625 C1.48128906 5.81289063 1.40007812 5.00078125 1.31640625 4.1640625 C1.10909886 1.95727195 1.10909886 1.95727195 0 0 Z " fill="#4F4E51" transform="translate(152,265)"/>
<path d="M0 0 C0.66 0.33 1.32 0.66 2 1 C2.3690205 10.41002278 2.3690205 10.41002278 0 15 C-0.99 15 -1.98 15 -3 15 C-2 10 -1 5 0 0 Z " fill="#38373B" transform="translate(202,218)"/>
<path d="M0 0 C3.18769237 3.46488302 3.44628773 6.41209831 4 11 C4.556875 12.5778125 4.556875 12.5778125 5.125 14.1875 C6.05085398 17.16345922 5.87296946 18.12903705 5 21 C4.15229544 18.81716075 3.32192453 16.63003921 2.5 14.4375 C2.0359375 13.21933594 1.571875 12.00117188 1.09375 10.74609375 C-0.01223121 6.9581081 -0.20185162 3.92096767 0 0 Z " fill="#8F8F91" transform="translate(195,142)"/>
<path d="M0 0 C0.66 0 1.32 0 2 0 C1.54961229 4.84166786 0.40027839 7.49668287 -3 11 C-3.66 11 -4.32 11 -5 11 C-4.46968862 6.4923533 -2.74778884 3.58045212 0 0 Z " fill="#E5E5E6" transform="translate(246,232)"/>
<path d="M0 0 C2.00720923 0.28674418 4.0085944 0.61866701 6 1 C6 3 6 3 4 5.125 C3.34 5.74375 2.68 6.3625 2 7 C0.68 6.34 -0.64 5.68 -2 5 C-1.125 1.125 -1.125 1.125 0 0 Z " fill="#AFAFAF" transform="translate(238,261)"/>
<path d="M0 0 C0.99 0 1.98 0 3 0 C2.67506385 3.5742977 2.36129314 5.55712453 0.0625 8.375 C-2 10 -2 10 -4 10 C-3.52449439 8.51965236 -3.04448784 7.04074979 -2.5625 5.5625 C-2.29566406 4.73878906 -2.02882812 3.91507813 -1.75390625 3.06640625 C-1 1 -1 1 0 0 Z " fill="#DFDEDF" transform="translate(137,231)"/>
<path d="M0 0 C3.375 -0.1875 3.375 -0.1875 7 0 C9.10827055 3.16240582 9.33817465 4.50657469 9.625 8.1875 C9.69976562 9.08855469 9.77453125 9.98960937 9.8515625 10.91796875 C9.90054688 11.60503906 9.94953125 12.29210937 10 13 C8.68 12.67 7.36 12.34 6 12 C6.33 11.67 6.66 11.34 7 11 C7.36760731 8.67182036 7.70241581 6.3381615 8 4 C6.68 4 5.36 4 4 4 C3.67 3.34 3.34 2.68 3 2 C2.01 1.34 1.02 0.68 0 0 Z " fill="#D4D3D4" transform="translate(145,264)"/>
<path d="M0 0 C1.32 0.33 2.64 0.66 4 1 C3.25 5.75 3.25 5.75 1 8 C-0.32 6.68 -1.64 5.36 -3 4 C-2.01 2.68 -1.02 1.36 0 0 Z " fill="#F8F8F8" transform="translate(155,247)"/>
<path d="M0 0 C1.953125 0.8359375 1.953125 0.8359375 4 2 C4.75 4.625 4.75 4.625 5 7 C4.34 6.67 3.68 6.34 3 6 C-0.0109362 8.0072908 -0.63016497 8.83884224 -2 12 C-3.15957207 8.52128379 -2.77456651 7.65780355 -1.5625 4.3125 C-1.13130859 3.10013672 -1.13130859 3.10013672 -0.69140625 1.86328125 C-0.46324219 1.24839844 -0.23507813 0.63351563 0 0 Z " fill="#DCDCDD" transform="translate(187,133)"/>
<path d="M0 0 C2.5 2.25 2.5 2.25 5 5 C5 6.32 5 7.64 5 9 C3.0625 9.5625 3.0625 9.5625 1 10 C0 9 0 9 -0.09765625 6.93359375 C-0.08605469 6.10988281 -0.07445312 5.28617188 -0.0625 4.4375 C-0.05347656 3.61121094 -0.04445312 2.78492188 -0.03515625 1.93359375 C-0.02355469 1.29550781 -0.01195312 0.65742188 0 0 Z " fill="#F1F1F2" transform="translate(223,243)"/>
<path d="M0 0 C-0.33 1.98 -0.66 3.96 -1 6 C-3.97 5.505 -3.97 5.505 -7 5 C-7 3.68 -7 2.36 -7 1 C-4.50935112 0.31292445 -2.62113708 0 0 0 Z " fill="#35343A" transform="translate(220,130)"/>
<path d="M0 0 C0.99 0 1.98 0 3 0 C3 1.98 3 3.96 3 6 C1.02 6.99 -0.96 7.98 -3 9 C-3.33 8.01 -3.66 7.02 -4 6 C-3.525625 5.566875 -3.05125 5.13375 -2.5625 4.6875 C-0.76313043 2.97690387 -0.76313043 2.97690387 0 0 Z " fill="#DADADA" transform="translate(242,264)"/>
<path d="M0 0 C0 0.66 0 1.32 0 2 C-1.093125 2.061875 -2.18625 2.12375 -3.3125 2.1875 C-7.14332716 2.6132233 -7.14332716 2.6132233 -8.9375 5.5625 C-9.288125 6.366875 -9.63875 7.17125 -10 8 C-10.99 7.67 -11.98 7.34 -13 7 C-10.30332745 0.48304134 -6.81821784 -0.39335872 0 0 Z " fill="#48484A" transform="translate(267,239)"/>
<path d="M0 0 C3.39914975 1.13304992 4.05254451 2.12518475 6 5 C5 7 5 7 3.125 7.8125 C1 8 1 8 -0.75 6.5625 C-1.1625 6.046875 -1.575 5.53125 -2 5 C-1.34 3.35 -0.68 1.7 0 0 Z " fill="#F5F5F6" transform="translate(223,156)"/>
<path d="M0 0 C1.32 0.33 2.64 0.66 4 1 C4 3.31 4 5.62 4 8 C4.99 7.01 5.98 6.02 7 5 C6.34 6.65 5.68 8.3 5 10 C3.68 10 2.36 10 1 10 C1.33 7.03 1.66 4.06 2 1 C1.34 0.67 0.68 0.34 0 0 Z " fill="#616163" transform="translate(184,266)"/>
<path d="M0 0 C3.65316671 1.24976756 4.78065836 1.67098753 7 5 C7.1953125 7.26171875 7.1953125 7.26171875 7.125 9.6875 C7.10695313 10.49574219 7.08890625 11.30398437 7.0703125 12.13671875 C7.03550781 13.05904297 7.03550781 13.05904297 7 14 C6.01 14.495 6.01 14.495 5 15 C4.96132813 14.12988281 4.96132813 14.12988281 4.921875 13.2421875 C4.51432849 7.6291606 3.50635789 4.41122445 0 0 Z " fill="#38373C" transform="translate(267,240)"/>
<path d="M0 0 C0.66 0.99 1.32 1.98 2 3 C2.66 2.67 3.32 2.34 4 2 C3.67 3.65 3.34 5.3 3 7 C1.68 7.33 0.36 7.66 -1 8 C-3 5 -3 5 -3 2 C-2.01 1.34 -1.02 0.68 0 0 Z " fill="#EBEBEC" transform="translate(211,239)"/>
<path d="M0 0 C4.20626034 1.50223584 5.73900021 4.28550034 8 8 C7.01 9.485 7.01 9.485 6 11 C4.9944239 9.54550599 3.99569565 8.08627557 3 6.625 C2.443125 5.81289062 1.88625 5.00078125 1.3125 4.1640625 C0 2 0 2 0 0 Z " fill="#6C6C6E" transform="translate(194,131)"/>
<path d="M0 0 C4.875 2.75 4.875 2.75 6 5 C2.5647952 7.29013653 1.014669 7.17842973 -3 7 C-3.33 6.34 -3.66 5.68 -4 5 C-2.02 5 -0.04 5 2 5 C1.01 4.67 0.02 4.34 -1 4 C-0.67 2.68 -0.34 1.36 0 0 Z " fill="#ACACAC" transform="translate(146,270)"/>
<path d="M0 0 C1.43088528 2.86177057 0.59991697 4.93375773 0 8 C0.99 8.33 1.98 8.66 3 9 C1.68 9 0.36 9 -1 9 C-1 8.34 -1 7.68 -1 7 C-2.32 7.33 -3.64 7.66 -5 8 C-5 5 -5 5 -2.5 2.3125 C-1.675 1.549375 -0.85 0.78625 0 0 Z " fill="#E7E7E8" transform="translate(236,246)"/>
<path d="M0 0 C0.33 0 0.66 0 1 0 C1.21755666 5.4389165 1.10428384 9.87080814 -1 15 C-1.99 14.67 -2.98 14.34 -4 14 C-3.21824485 9.15311808 -1.60155722 4.6233633 0 0 Z " fill="#D6D6D7" transform="translate(232,232)"/>
<path d="M0 0 C0.66 0 1.32 0 2 0 C1.74553175 4.32596028 1.3880665 6.52002301 -1.375 9.9375 C-4 12 -4 12 -7 12 C-7.33 12.66 -7.66 13.32 -8 14 C-7.75 12.125 -7.75 12.125 -7 10 C-6.38125 9.7525 -5.7625 9.505 -5.125 9.25 C-1.69065422 7.2297966 -1.12842221 3.67592084 0 0 Z " fill="#3A3A3D" transform="translate(140,230)"/>
<path d="M0 0 C0.66 0 1.32 0 2 0 C1.33333333 4 0.66666667 8 0 12 C-0.99 12 -1.98 12 -3 12 C-2.14285714 3.42857143 -2.14285714 3.42857143 0 0 Z " fill="#444347" transform="translate(244,213)"/>
<path d="M0 0 C0.66 0 1.32 0 2 0 C2 1.65 2 3.3 2 5 C2.66 5.33 3.32 5.66 4 6 C3.34 6 2.68 6 2 6 C2 8.64 2 11.28 2 14 C2.66 14.33 3.32 14.66 4 15 C2.68 15.33 1.36 15.66 0 16 C0.33 12.7 0.66 9.4 1 6 C0.34 5.67 -0.32 5.34 -1 5 C-0.67 3.35 -0.34 1.7 0 0 Z " fill="#656468" transform="translate(174,261)"/>
<path d="M0 0 C0.66 0 1.32 0 2 0 C0.07289294 10.55808656 0.07289294 10.55808656 -2 15 C-2.97161849 11.94145449 -2.99142062 10.01744728 -2.125 6.9375 C-1.94195312 6.26589844 -1.75890625 5.59429687 -1.5703125 4.90234375 C-1.07756153 3.25871552 -0.54261564 1.62784691 0 0 Z " fill="#D5D4D8" transform="translate(246,214)"/>
<path d="M0 0 C0.99 0 1.98 0 3 0 C2.01 2.97 1.02 5.94 0 9 C-0.66 9 -1.32 9 -2 9 C-2.33 9.66 -2.66 10.32 -3 11 C-2.53199289 6.94393835 -2.12046792 3.53411321 0 0 Z " fill="#3E3D42" transform="translate(120,209)"/>
<path d="M0 0 C0.33 0 0.66 0 1 0 C1.05437607 1.58294782 1.09296271 3.16644256 1.125 4.75 C1.14820313 5.63171875 1.17140625 6.5134375 1.1953125 7.421875 C0.99139502 10.1135858 0.36551721 11.69904974 -1 14 C-1.33 14 -1.66 14 -2 14 C-2.05410687 12.22950311 -2.09284119 10.45853151 -2.125 8.6875 C-2.14820313 7.70136719 -2.17140625 6.71523437 -2.1953125 5.69921875 C-2 3 -2 3 0 0 Z " fill="#EAEAEB" transform="translate(235,177)"/>
<path d="M0 0 C1.60080151 4.00200378 0.29279692 7.04556236 -1 11 C-1.99 10.67 -2.98 10.34 -4 10 C-3.67 9.34 -3.34 8.68 -3 8 C-3.04125 7.01 -3.0825 6.02 -3.125 5 C-3.08375 4.01 -3.0425 3.02 -3 2 C-2.01 1.34 -1.02 0.68 0 0 Z " fill="#3B3A3F" transform="translate(180,151)"/>
<path d="M0 0 C3.57011026 3.732388 4.10913442 8.0949989 5 13 C1.79017628 9.98387254 -0.00453275 6.91966781 -2 3 C-1 1 -1 1 0 0 Z " fill="#8F8F90" transform="translate(171,99)"/>
<path d="M0 0 C0.66 0.33 1.32 0.66 2 1 C2.4140625 3.06640625 2.4140625 3.06640625 2.625 5.5625 C2.69976562 6.38878906 2.77453125 7.21507812 2.8515625 8.06640625 C2.90054688 8.70449219 2.94953125 9.34257812 3 10 C2.01 10 1.02 10 0 10 C0 7.69 0 5.38 0 3 C-0.99 3 -1.98 3 -3 3 C-2 1 -2 1 0 0 Z " fill="#47474A" transform="translate(236,244)"/>
<path d="M0 0 C0.66 0 1.32 0 2 0 C4 5.625 4 5.625 4 9 C3.01 9.33 2.02 9.66 1 10 C0.63883954 8.5225254 0.28624952 7.04295325 -0.0625 5.5625 C-0.25972656 4.73878906 -0.45695313 3.91507813 -0.66015625 3.06640625 C-0.82837891 2.04353516 -0.82837891 2.04353516 -1 1 C-0.67 0.67 -0.34 0.34 0 0 Z " fill="#EFEFF0" transform="translate(203,161)"/>
<path d="M0 0 C0.66 0.33 1.32 0.66 2 1 C2 2.32 2 3.64 2 5 C2.66 5.33 3.32 5.66 4 6 C3.01 6.33 2.02 6.66 1 7 C0.67 7.99 0.34 8.98 0 10 C-1.32 10 -2.64 10 -4 10 C-3 8 -3 8 -1 7 C-1.33 6.34 -1.66 5.68 -2 5 C-1.34 5 -0.68 5 0 5 C0 3.35 0 1.7 0 0 Z " fill="#59585B" transform="translate(209,267)"/>
<path d="M0 0 C0.99 0 1.98 0 3 0 C2.42655063 2.86724686 2.1385485 3.8614515 0 6 C-2.3828125 6.1953125 -2.3828125 6.1953125 -5.125 6.125 C-6.49011719 6.09792969 -6.49011719 6.09792969 -7.8828125 6.0703125 C-8.58148438 6.04710937 -9.28015625 6.02390625 -10 6 C-10 5.67 -10 5.34 -10 5 C-8.906875 4.855625 -7.81375 4.71125 -6.6875 4.5625 C-3.06877013 4.11711896 -3.06877013 4.11711896 0 3 C0 2.01 0 1.02 0 0 Z " fill="#39383C" transform="translate(133,260)"/>
<path d="M0 0 C0.99 0.33 1.98 0.66 3 1 C3.33 3.31 3.66 5.62 4 8 C3.34 8 2.68 8 2 8 C2 7.34 2 6.68 2 6 C1.01 6 0.02 6 -1 6 C-1.042721 4.33388095 -1.04063832 2.66617115 -1 1 C-0.67 0.67 -0.34 0.34 0 0 Z " fill="#8D8D8F" transform="translate(218,266)"/>
<path d="M0 0 C0.33 0 0.66 0 1 0 C0.98839844 0.62648437 0.97679687 1.25296875 0.96484375 1.8984375 C0.95582031 2.71570313 0.94679687 3.53296875 0.9375 4.375 C0.92589844 5.18710938 0.91429687 5.99921875 0.90234375 6.8359375 C0.85533666 9.04937142 0.85533666 9.04937142 2 11 C0.35 11 -1.3 11 -3 11 C-2.69217504 9.35328588 -2.37860766 7.70764424 -2.0625 6.0625 C-1.88847656 5.14597656 -1.71445313 4.22945312 -1.53515625 3.28515625 C-1 1 -1 1 0 0 Z " fill="#CDCDCF" transform="translate(152,219)"/>
<path d="M0 0 C3.4375 0.875 3.4375 0.875 4.875 2.9375 C5.1534375 3.8965625 5.1534375 3.8965625 5.4375 4.875 C4.4475 4.875 3.4575 4.875 2.4375 4.875 C2.1075 4.215 1.7775 3.555 1.4375 2.875 C0.014375 3.184375 0.014375 3.184375 -1.4375 3.5 C-2.46875 3.62375 -3.5 3.7475 -4.5625 3.875 C-5.2225 3.215 -5.8825 2.555 -6.5625 1.875 C-3.5625 -0.125 -3.5625 -0.125 0 0 Z " fill="#535356" transform="translate(127.5625,206.125)"/>
<path d="M0 0 C1.17825358 0.90172468 2.34231577 1.82201502 3.5 2.75 C4.1496875 3.26046875 4.799375 3.7709375 5.46875 4.296875 C7 6 7 6 7 10 C3.60582235 6.87378374 1.3937282 4.43458973 0 0 Z " fill="#F4F4F5" transform="translate(206,146)"/>
<path d="M0 0 C0.25 5.625 0.25 5.625 -2 9 C-2.66 9 -3.32 9 -4 9 C-4 6.36 -4 3.72 -4 1 C-1 0 -1 0 0 0 Z " fill="#EAEAEB" transform="translate(180,266)"/>
<path d="M0 0 C0.66 0 1.32 0 2 0 C2.33 2.31 2.66 4.62 3 7 C0.69 7 -1.62 7 -4 7 C-2.68 4.69 -1.36 2.38 0 0 Z " fill="#DCDCDE" transform="translate(143,247)"/>
<path d="M0 0 C0.33 0 0.66 0 1 0 C1.05395478 1.62463842 1.09277195 3.24978541 1.125 4.875 C1.14820313 5.77992188 1.17140625 6.68484375 1.1953125 7.6171875 C1 10 1 10 -1 12 C-2.87643761 10.12356239 -2.17984987 7.50194299 -2.23046875 5.0078125 C-2 3 -2 3 0 0 Z " fill="#313036" transform="translate(242,223)"/>
<path d="M0 0 C0.99 0.33 1.98 0.66 3 1 C3 2.65 3 4.3 3 6 C3.66 6.33 4.32 6.66 5 7 C4.01 7.33 3.02 7.66 2 8 C1.34 8.99 0.68 9.98 0 11 C0 7.37 0 3.74 0 0 Z " fill="#2D2C31" transform="translate(133,168)"/>
<path d="M0 0 C2.0625 0.4375 2.0625 0.4375 4 1 C3.625 2.9375 3.625 2.9375 3 5 C2.01 5.495 2.01 5.495 1 6 C1 5.01 1 4.02 1 3 C-0.98 3.99 -0.98 3.99 -3 5 C-1.125 1.125 -1.125 1.125 0 0 Z " fill="#555558" transform="translate(247,229)"/>
<path d="M0 0 C1.15224028 0.92961422 2.29659176 1.8690125 3.4375 2.8125 C4.07558594 3.33457031 4.71367187 3.85664063 5.37109375 4.39453125 C7 6 7 6 8 9 C4.63704165 7.55873214 2.37072898 5.79407345 0 3 C0 2.01 0 1.02 0 0 Z " fill="#3B3A3E" transform="translate(127,183)"/>
<path d="M0 0 C0.66 0 1.32 0 2 0 C2.99 1.98 3.98 3.96 5 6 C3.68 6 2.36 6 1 6 C0.34 5.34 -0.32 4.68 -1 4 C-0.625 1.875 -0.625 1.875 0 0 Z " fill="#EBEBEC" transform="translate(91,236)"/>
<path d="M0 0 C0.66 0 1.32 0 2 0 C3.5078125 2.1875 3.5078125 2.1875 5.125 5 C5.66382813 5.928125 6.20265625 6.85625 6.7578125 7.8125 C7.37269531 8.8953125 7.37269531 8.8953125 8 10 C7.01 10.33 6.02 10.66 5 11 C3.35 7.37 1.7 3.74 0 0 Z " fill="#E3E3E5" transform="translate(191,130)"/>
<path d="M0 0 C2.25245881 2.68841859 3.88213958 4.64641875 5 8 C4.01 8 3.02 8 2 8 C0.25 5.6875 0.25 5.6875 -1 3 C-0.67 2.01 -0.34 1.02 0 0 Z " fill="#F2F2F3" transform="translate(177,98)"/>
<path d="M0 0 C2.475 0.495 2.475 0.495 5 1 C5.33 2.32 5.66 3.64 6 5 C4.68 5.33 3.36 5.66 2 6 C1.34 4.02 0.68 2.04 0 0 Z " fill="#BBBABD" transform="translate(169,87)"/>
<path d="M0 0 C2.76223278 2.76223278 2.57856291 5.20706617 3 9 C2.01 9.33 1.02 9.66 0 10 C0 6.7 0 3.4 0 0 Z " fill="#E2E2E5" transform="translate(215,266)"/>
<path d="M0 0 C0.99 0 1.98 0 3 0 C2.34 2.64 1.68 5.28 1 8 C0.01 6.68 -0.98 5.36 -2 4 C-1.34 2.68 -0.68 1.36 0 0 Z " fill="#F1F1F2" transform="translate(147,217)"/>
<path d="M0 0 C2.97 1.65 5.94 3.3 9 5 C9 5.33 9 5.66 9 6 C6.36 5.67 3.72 5.34 1 5 C0.67 3.35 0.34 1.7 0 0 Z " fill="#E5E5E7" transform="translate(215,191)"/>
<path d="M0 0 C2.52259061 1.97420135 2.9929808 2.96745642 3.6875 6.1875 C3.790625 7.115625 3.89375 8.04375 4 9 C3.01 9 2.02 9 1 9 C0.67 8.01 0.34 7.02 0 6 C0.66 6 1.32 6 2 6 C1.34 4.02 0.68 2.04 0 0 Z " fill="#A4A4A6" transform="translate(190,118)"/>
<path d="M0 0 C2.97 0.33 5.94 0.66 9 1 C7.68 1.33 6.36 1.66 5 2 C5 2.66 5 3.32 5 4 C3.68 4.33 2.36 4.66 1 5 C0.67 3.35 0.34 1.7 0 0 Z " fill="#EDEDED" transform="translate(230,273)"/>
<path d="M0 0 C0.33 0.99 0.66 1.98 1 3 C-0.75 6.1875 -0.75 6.1875 -3 9 C-3.99 9 -4.98 9 -6 9 C-4.68 6.69 -3.36 4.38 -2 2 C-1.34 2 -0.68 2 0 2 C0 1.34 0 0.68 0 0 Z " fill="#37363A" transform="translate(249,233)"/>
<path d="M0 0 C1.485 0.99 1.485 0.99 3 2 C2.34 4.64 1.68 7.28 1 10 C0.34 10 -0.32 10 -1 10 C-0.67 6.7 -0.34 3.4 0 0 Z " fill="#757478" transform="translate(242,228)"/>
<path d="M0 0 C2.475 0.495 2.475 0.495 5 1 C6.15941038 4.47823115 5.70820884 6.45895578 5 10 C4.67 10 4.34 10 4 10 C3.896875 8.906875 3.79375 7.81375 3.6875 6.6875 C3.02692273 3.14440371 2.7972908 2.06756277 0 0 Z " fill="#646367" transform="translate(211,229)"/>
<path d="M0 0 C0.99 0.33 1.98 0.66 3 1 C2.34 1 1.68 1 1 1 C1.66 1.99 2.32 2.98 3 4 C2.67 4.99 2.34 5.98 2 7 C0.35 5.35 -1.3 3.7 -3 2 C-2.01 1.34 -1.02 0.68 0 0 Z " fill="#F3F3F3" transform="translate(233,226)"/>
<path d="M0 0 C5.75 -0.125 5.75 -0.125 8 1 C8 1.99 8 2.98 8 4 C5.125 3.6875 5.125 3.6875 2 3 C1.34 2.01 0.68 1.02 0 0 Z " fill="#4B4A4F" transform="translate(96,218)"/>
<path d="M0 0 C3.625 0.375 3.625 0.375 7 1 C7 1.99 7 2.98 7 4 C2.545 3.01 2.545 3.01 -2 2 C-1.34 1.34 -0.68 0.68 0 0 Z " fill="#525154" transform="translate(196,215)"/>
<path d="M0 0 C0.33 0 0.66 0 1 0 C1 3.3 1 6.6 1 10 C-0.95418308 7.06872538 -1.64700993 5.44165321 -2 2 C-1.34 1.34 -0.68 0.68 0 0 Z " fill="#EBEBEB" transform="translate(231,182)"/>
<path d="M0 0 C2.5 1.3125 2.5 1.3125 5 3 C5 3.99 5 4.98 5 6 C4.01 5.01 3.02 4.02 2 3 C1.01 4.485 1.01 4.485 0 6 C-0.66 4.68 -1.32 3.36 -2 2 C-1.34 1.34 -0.68 0.68 0 0 Z " fill="#ABABAD" transform="translate(214,154)"/>
<path d="M0 0 C0.66 0.33 1.32 0.66 2 1 C1.34 2.65 0.68 4.3 0 6 C-1.65 6 -3.3 6 -5 6 C-4.34 5.67 -3.68 5.34 -3 5 C-2.67 4.01 -2.34 3.02 -2 2 C-1.34 2 -0.68 2 0 2 C0 1.34 0 0.68 0 0 Z " fill="#424145" transform="translate(153,133)"/>
<path d="M0 0 C1.32 0.33 2.64 0.66 4 1 C2 4 2 4 0 4.8125 C-0.66 4.874375 -1.32 4.93625 -2 5 C-2.66 4.34 -3.32 3.68 -4 3 C-3.01 2.67 -2.02 2.34 -1 2 C-0.67 1.34 -0.34 0.68 0 0 Z " fill="#F0F0F1" transform="translate(219,274)"/>
<path d="M0 0 C0.66 0 1.32 0 2 0 C2 2.97 2 5.94 2 9 C1.67 8.01 1.34 7.02 1 6 C0.34 6 -0.32 6 -1 6 C-0.67 4.02 -0.34 2.04 0 0 Z " fill="#5F5E63" transform="translate(168,266)"/>
<path d="M0 0 C0.99 0.33 1.98 0.66 3 1 C3.33 1.99 3.66 2.98 4 4 C2.02 4.99 2.02 4.99 0 6 C-1.125 2.25 -1.125 2.25 0 0 Z " fill="#E6E5E6" transform="translate(240,245)"/>
<path d="M0 0 C5 2 5 2 10 4 C10 4.33 10 4.66 10 5 C3.375 4.25 3.375 4.25 0 2 C0 1.34 0 0.68 0 0 Z " fill="#3A3A3D" transform="translate(90,241)"/>
<path d="M0 0 C0.99 0.99 1.98 1.98 3 3 C2.875 5.5625 2.875 5.5625 2 8 C1.01 8.66 0.02 9.32 -1 10 C-0.67 6.7 -0.34 3.4 0 0 Z " fill="#DADADB" transform="translate(235,236)"/>
<path d="M0 0 C0.33 1.32 0.66 2.64 1 4 C-0.75 5.5625 -0.75 5.5625 -3 7 C-5.25 6.6875 -5.25 6.6875 -7 6 C-6.030625 5.38125 -5.06125 4.7625 -4.0625 4.125 C-0.97164638 2.34321154 -0.97164638 2.34321154 0 0 Z " fill="#38383B" transform="translate(107,259)"/>
<path d="M0 0 C2.125 0.375 2.125 0.375 4 1 C3.01 1.66 2.02 2.32 1 3 C-0.19232613 5.05003955 -0.19232613 5.05003955 -1 7 C-1.625 4.625 -1.625 4.625 -2 2 C-1.34 1.34 -0.68 0.68 0 0 Z " fill="#404042" transform="translate(93,258)"/>
<path d="M0 0 C0.99 0.33 1.98 0.66 3 1 C2.67 2.65 2.34 4.3 2 6 C0.68 6 -0.64 6 -2 6 C-2 5.01 -2 4.02 -2 3 C-1.34 3 -0.68 3 0 3 C0 2.01 0 1.02 0 0 Z " fill="#D0CFD1" transform="translate(144,229)"/>
<path d="M0 0 C0.66 0 1.32 0 2 0 C2 2.31 2 4.62 2 7 C1.01 7.495 1.01 7.495 0 8 C-0.38063221 5.6739143 -0.71269945 3.33944736 -1 1 C-0.67 0.67 -0.34 0.34 0 0 Z " fill="#E3E3E4" transform="translate(200,218)"/>
<path d="M0 0 C2.31 0 4.62 0 7 0 C4.3144406 2.6855594 1.62378672 3.06049974 -2 4 C-1.34 2.68 -0.68 1.36 0 0 Z " fill="#2F2E33" transform="translate(93,219)"/>
<path d="M0 0 C2 1 2 1 4 4 C2.35 4.33 0.7 4.66 -1 5 C-1 4.34 -1 3.68 -1 3 C-1.66 2.34 -2.32 1.68 -3 1 C-2.01 0.67 -1.02 0.34 0 0 Z " fill="#EBEBEB" transform="translate(160,194)"/>
<path d="M0 0 C2.42203285 3.63304928 2 5.73839043 2 10 C0.4375 8.9375 0.4375 8.9375 -1 7 C-0.6875 3.3125 -0.6875 3.3125 0 0 Z " fill="#545359" transform="translate(176,157)"/>
<path d="M0 0 C0.99 0.99 1.98 1.98 3 3 C2.34 3.66 1.68 4.32 1 5 C0.01 5 -0.98 5 -2 5 C-2 3.68 -2 2.36 -2 1 C-1.34 0.67 -0.68 0.34 0 0 Z " fill="#EDEDEF" transform="translate(166,83)"/>
</svg>
